<svg xmlns="http://www.w3.org/2000/svg" xmlns:xlink="http://www.w3.org/1999/xlink" id="Meditation-bro_1_" width="391.205" height="369" data-name="Meditation-bro (1)" viewBox="0 0 391.205 369"><defs><clipPath id="clip-path"><path id="Path_28" fill="#fff" stroke="#263238" stroke-linecap="round" stroke-linejoin="round" stroke-width="1" d="M264.774,179.091s.533,8.063-1.343,12.563-9.421,9.034-15.88,13.226-15.6,3.552-19.366,10.645-3.5,19.028-3.5,19.028-5.925,10.976-10.764,20.65-7.535,19.679-1.343,25.127,13.717-2.581,17.756-10.279,7.8-16.447,7.8-16.447,5.154,29.958,3.763,38.056-4.573,15.807-4.573,19.416,2.42,6.133,6.192,7.093,16.68,2.284,25.558,1.622,34.17-2.581,35.246-6.784,2.686-33.225,2.686-33.225,15.87,6.453,20.719-5.151,5.106-37.69,1.61-50.653-12.384-17.737-17.757-20.958-20.176-11.615-22.862-15.167-3.515-21.027-3.515-26.829-.533-.32-5.649,4.192S264.774,179.091,264.774,179.091Z" data-name="Path 28" transform="translate(-208.982 -158.514)"/></clipPath><clipPath id="clip-path-2"><path id="Path_42" fill="#92e3a9" stroke="#263238" stroke-linecap="round" stroke-linejoin="round" stroke-width="1" d="M312.138,198.951c-4.191-2.524-14.118-8.178-19.557-12.221-1.791,6.442-7.049,21.244-17.566,21.244-9.7,0-12.546-10.873-13.336-16.961-3.22,3.426-8.678,6.716-13.536,9.868-6.449,4.192-15.6,3.552-19.366,10.645s-3.5,19.028-3.5,19.028-2,3.712-4.62,8.7c10.869-.651,18.1,10.336,18.1,10.336s5.087,29.958,3.7,38.056-4.572,15.807-4.572,19.416,2.42,6.133,6.192,7.093,16.68,2.284,25.558,1.622,34.17-2.581,35.246-6.784,2.686-33.224,2.686-33.224l-1.61-25.481c13.517-10.713,22.967-3.209,26.063,0,.667-10.953-.1-22.843-2.124-30.335C326.4,207.014,317.52,202.172,312.138,198.951Z" data-name="Path 42" transform="translate(-220.66 -186.73)"/></clipPath><clipPath id="clip-path-3"><path id="Path_50" fill="#fff" stroke="#263238" stroke-linecap="round" stroke-linejoin="round" stroke-width="1" d="M211.982,254.425s-2.658,1.69-4.763,7.846-4.763,17.589-2.124,21.2,8.669.423,14.289-.423,29.178-17.383,33.065-20.147,7.078-3.815,8.316-6.362.886-11.661,1.057-16.115-.7-24.384-.7-24.384-1.238-4.877-3.363-4.454c0,0-2.477-1.69-3,0l-1.067,3.426s-2.3-.845-2.858.64a22.2,22.2,0,0,0-.7,4.454s-2.648,1.485-2.648,3.426.524,13.363.524,16.538-.352,8.063.533,10.176,1.772,4.032,1.772,4.032-12.917,2.124-18.395,2.124-15.032.206-16.8,1.268" data-name="Path 50" transform="translate(-203.992 -210.832)"/></clipPath><clipPath id="clip-path-4"><path id="Path_55" fill="#fff" stroke="#263238" stroke-linecap="round" stroke-linejoin="round" stroke-width="1" d="M321.795,264.628c-8.488-6.567-26.177-1.485-31.836-1.907s-21.4-10.816-21.4-10.816,3.182-3.815,3.353-6.145,0-8.692,0-12.3.886-7.207,1.067-9.959-2.858-.857-3.363,0-1.772,9.32-1.772,9.32-1.591-5.711-1.591-6.35-.352-8.486-1.238-11.673-3,0-3,0c-.181-1.907-.714-3.426-1.953-3.426s-2.3,5.311-2.3,5.311c0-3.187-.886-2.97-1.772-1.919s-.876,8.063-.876,8.063l-1.067-1.907c-1.238-.423-1.905,1.907-1.905,4.032s.7,8.475.7,13.774a47.416,47.416,0,0,0,.533,8.063,35.964,35.964,0,0,0,3.887,10.393c3.01,5.3,13.089,11.867,19.281,17.589s24.406,15.27,33.427,16.972,15.242,5.711,17.328,1.062,6.011-27.571,4.068-35.2" data-name="Path 55" transform="translate(-252.15 -211.37)"/></clipPath><clipPath id="clip-path-5"><path id="Path_64" fill="#fff" stroke="#263238" stroke-linecap="round" stroke-linejoin="round" stroke-width="1" d="M241.69,331.219a20.5,20.5,0,0,1-5.306-4.237c-2.115-2.547,0-8.909-2.858-11.421s-8.488-3.426-9.526.434-1.772,6.362-3.9,7.207-4.592.845-8.488,2.97-3.887,9.754-3.887,9.754a93.155,93.155,0,0,1,21.91,6.362c10.26,4.66,14.851,2.113,14.851,2.113S244.881,335.845,241.69,331.219Z" data-name="Path 64" transform="translate(-207.73 -313.385)"/></clipPath><clipPath id="clip-path-6"><path id="Path_76" fill="#fff" stroke="#263238" stroke-linecap="round" stroke-linejoin="round" stroke-width="1" d="M268.167,339.089c-4.6-1.279-4.954,0-15.918-.434s-22.986-5.083-22.986-5.083-1.029.183-3.563-1.222a14.069,14.069,0,0,0-4.22,8.851,13.267,13.267,0,0,0,3,8.68,53.961,53.961,0,0,0,5.487,1.5c7.783,1.7,17.328,5.939,22.281,8.486a26.685,26.685,0,0,0,12.736,3.426c3.887,0,2.372.7,5.211-.16s1.858-3.232,1.858-3.232a10.667,10.667,0,0,0,3.544-.845c2.115-.857,1.41-4.249,1.41-4.249a9.033,9.033,0,0,0,4.077-.788c2.162-1.359,2.162-4.215,1.229-6.853C280.9,343.166,272.768,340.356,268.167,339.089Z" data-name="Path 76" transform="translate(-221.479 -332.35)"/></clipPath><clipPath id="clip-path-7"><path id="Path_85" fill="#fff" stroke="#263238" stroke-linecap="round" stroke-linejoin="round" stroke-width="1" d="M260.693,124.091s-6.725,7.412-6.182,15.476-1.619,12.563-.81,18.388,1.905,17.132,3.81,20,2.153,6.133,4.039,7.744,8.345,1.61,9.688-.971,15.6-12.563,16.68-16.127.81-4.511.81-4.511,9.412-6.773,8.068-12.563-5.115-8.063-7.268-6.122-2.42,2.9-2.42,2.9-5.63-4.443-4.553-8.635,4.439-5.631,3.363-10.473-9.126-2.421-17.69-1.633C261.474,128.157,263.694,121.122,260.693,124.091Z" data-name="Path 85" transform="translate(-253.517 -123.357)"/></clipPath></defs><g id="freepik--background-simple--inject-2" transform="translate(15.414 0)"><path id="Path_1" fill="#92e3a9" d="M110.292,405.246c-17.528-7.047-32.56-19.884-41.714-43.835-16.032-42.065,8.735-88.5,35.818-103.4s65.044-17.532,66.511-41.2-30.721-61.344-4.382-91.119c22.2-25.127,54.851-33.853,84.372-36.742,49.145-4.82,93.679,6.442,124.057,56.387,13.413,22.054,26.892,52.812,23.263,81.091-5.849,45.571-31.436,63.959-24.12,90.228s33.617,17.532,44.582,50.825c6.259,18.994,2.591,37.782-13.108,47.353-17.852,10.885-39.18,5.517-58.271,5.22-30.359-.468-60.728-1.416-91.088-2.444q-38.152-1.268-76.3-2.878C156.684,413.847,132.564,414.2,110.292,405.246Z" data-name="Path 1" transform="translate(-63.511 -87.939)"/><path id="Path_2" fill="#fff" d="M110.292,405.246c-17.528-7.047-32.56-19.884-41.714-43.835-16.032-42.065,8.735-88.5,35.818-103.4s65.044-17.532,66.511-41.2-30.721-61.344-4.382-91.119c22.2-25.127,54.851-33.853,84.372-36.742,49.145-4.82,93.679,6.442,124.057,56.387,13.413,22.054,26.892,52.812,23.263,81.091-5.849,45.571-31.436,63.959-24.12,90.228s33.617,17.532,44.582,50.825c6.259,18.994,2.591,37.782-13.108,47.353-17.852,10.885-39.18,5.517-58.271,5.22-30.359-.468-60.728-1.416-91.088-2.444q-38.152-1.268-76.3-2.878C156.684,413.847,132.564,414.2,110.292,405.246Z" data-name="Path 2" opacity=".7" transform="translate(-63.511 -87.939)"/></g><g id="freepik--Plants--inject-2" transform="translate(17.823 58.132)"><path id="Path_3" fill="#92e3a9" d="M439.479,221.5c-5.382-7.755-13.013,7.3-21.443,25.515-4.62,9.982-14.851,18.491-19.319,31.032-4.344,12.209-2.772,27.982-6.249,39.118-5.135,16.424-9.355,16.287-13.432,24.8-1.8-4.911-3.382-10.782-3.1-16.824.371-7.675,10.812-15.03,11.05-24.773.181-8.292-9.8-18.571-9.755-27.708,0-8.692,10.136-16.6,10-25.5s-10.479-18.571-10.86-27.217c-.391-9.308,9.183-18.126,8.488-26.429-.838-9.994-11.908-18.16-13.279-25.652-2.534-13.808-1.791-29.273-6.582-29.01-4.515.251-1.905,17.029-3.972,31.488-1.134,7.995-12,15.167-12.574,25.824-.476,8.931,9.355,20.17,9.193,30.186-.152,9.354-10.317,17.863-10.259,27.56s10.336,20.227,10.536,29.7c.219,10.005-9.64,19.028-9.335,28.108.162,4.637,2.239,9.206,4.563,13.58-2.905-4.683-6.668-9.5-8.116-15.042-2.115-7.926,1.172-18.046-1.5-25.766-2.858-8.372-11.384-13.329-14.842-19.884-4.62-8.737-6.516-20.387-12.031-22.511-8.5-3.289-7.211,9.5-3.915,25.447,1.743,8.452-1.057,20.307,2.6,31.112,3.134,9.274,12.308,16.527,16.194,26.075s2.791,22.157,6.859,30.769c3.391,7.161,8.954,12.072,13.5,16.515l.267.879a1.32,1.32,0,0,0,1.162.537,31.1,31.1,0,0,1,4.163,5c2.305,3.655-.267,10.793,1.21,12.563,4.058,4.9,4.268.891,4.02-3.346-.143-2.456,4.592-6.407,4.306-10.074a2.256,2.256,0,0,1,.886-.959c1.6-.434,8.916,6.99,9.907,4.569.734-1.759-8.135-9.137-7.621-11.421.362-1.611,6.583-1.062,9.526-1.77a1.121,1.121,0,0,1,.229.263c.867,1.348,1.305,7.333,3.81,6.225,3.334-1.485,7.83-20.044,17.2-37.816,5.649-10.713,16.994-19.108,22.462-31.854s4.915-29.444,8.44-41.4C437.317,244.9,444.4,228.623,439.479,221.5ZM359.832,340.963c.4,9.057-2.162,12.563-4.611,15.727-1.505-10.279,4.372-10.279,1.457-23.756a17.148,17.148,0,0,0-1.181-3.426C357.727,333.6,359.68,337.457,359.832,340.963Zm3.744,30.586a2.793,2.793,0,0,1,.257,1.862c-.953-.651-1.905-1.279-2.782-1.93C362.29,371.184,363.252,371.092,363.576,371.549Z" data-name="Path 3" transform="translate(-77.614 -138.837)"/><path id="Path_4" fill="#fff" d="M439.479,221.5c-5.382-7.755-13.013,7.3-21.443,25.515-4.62,9.982-14.851,18.491-19.319,31.032-4.344,12.209-2.772,27.982-6.249,39.118-5.135,16.424-9.355,16.287-13.432,24.8-1.8-4.911-3.382-10.782-3.1-16.824.371-7.675,10.812-15.03,11.05-24.773.181-8.292-9.8-18.571-9.755-27.708,0-8.692,10.136-16.6,10-25.5s-10.479-18.571-10.86-27.217c-.391-9.308,9.183-18.126,8.488-26.429-.838-9.994-11.908-18.16-13.279-25.652-2.534-13.808-1.791-29.273-6.582-29.01-4.515.251-1.905,17.029-3.972,31.488-1.134,7.995-12,15.167-12.574,25.824-.476,8.931,9.355,20.17,9.193,30.186-.152,9.354-10.317,17.863-10.259,27.56s10.336,20.227,10.536,29.7c.219,10.005-9.64,19.028-9.335,28.108.162,4.637,2.239,9.206,4.563,13.58-2.905-4.683-6.668-9.5-8.116-15.042-2.115-7.926,1.172-18.046-1.5-25.766-2.858-8.372-11.384-13.329-14.842-19.884-4.62-8.737-6.516-20.387-12.031-22.511-8.5-3.289-7.211,9.5-3.915,25.447,1.743,8.452-1.057,20.307,2.6,31.112,3.134,9.274,12.308,16.527,16.194,26.075s2.791,22.157,6.859,30.769c3.391,7.161,8.954,12.072,13.5,16.515l.267.879a1.32,1.32,0,0,0,1.162.537,31.1,31.1,0,0,1,4.163,5c2.305,3.655-.267,10.793,1.21,12.563,4.058,4.9,4.268.891,4.02-3.346-.143-2.456,4.592-6.407,4.306-10.074a2.256,2.256,0,0,1,.886-.959c1.6-.434,8.916,6.99,9.907,4.569.734-1.759-8.135-9.137-7.621-11.421.362-1.611,6.583-1.062,9.526-1.77a1.121,1.121,0,0,1,.229.263c.867,1.348,1.305,7.333,3.81,6.225,3.334-1.485,7.83-20.044,17.2-37.816,5.649-10.713,16.994-19.108,22.462-31.854s4.915-29.444,8.44-41.4C437.317,244.9,444.4,228.623,439.479,221.5ZM359.832,340.963c.4,9.057-2.162,12.563-4.611,15.727-1.505-10.279,4.372-10.279,1.457-23.756a17.148,17.148,0,0,0-1.181-3.426C357.727,333.6,359.68,337.457,359.832,340.963Zm3.744,30.586a2.793,2.793,0,0,1,.257,1.862c-.953-.651-1.905-1.279-2.782-1.93C362.29,371.184,363.252,371.092,363.576,371.549Z" data-name="Path 4" opacity=".5" transform="translate(-77.614 -138.837)"/><g id="Group_1" data-name="Group 1" opacity=".2" transform="translate(236.035 34.439)"><path id="Path_5" d="M376.786,327.141l-.953-.537-2.858,11.455.114-27.194,5.192-17.7-.962-.491-4.21,14.379.1-25.31,8.335-16.652-.886-.7-7.44,14.882.114-27.708,7.716-13.945-.857-.731-6.849,12.369.1-23.505,4.915-12.312-.915-.617-3.982,10.039.1-26.143,6.44-15.807-.914-.605-5.516,13.523.1-24.727-1.01-.114-.1,24.464-10.917-19.69-.829.617,11.736,21.164-.124,28.747-10.879-13.683-.7.8,11.574,14.551-.1,24.133L361.8,239.048l-.629.891,11.145,11.684-.114,28.016-10.85-15.008-.734.754,11.574,16.024-.114,29.147-.086.274L361.449,292.02l-.819.617,11.431,20.4-.114,28.051-8.707-21-.9.468,9.6,23.14-.143,34.3,1.01.114.152-36.56Z" data-name="Path 5" transform="translate(-316.038 -168.99)"/><path id="Path_6" d="M431.945,258.133,431.488,257l-10.507,5.208,5.287-13.032,11.822-7.995-.553-1.074-10.46,7.07,8.773-21.62-.914-.605-7.8,19.2,1.981-21.392-1.01-.251L425.8,247.443l-5.649,13.923.657-22.055-1.01-.148-.743,24.91-6.421,15.819-1.819-15.624-1,.057,2.039,17.5-7.345,18.1-.629-19.005-1.01-.057.7,21.369-8.192,20.181-.867-7.744-1.01.023,1.048,9.754L381.4,356.87l.924.617,12.45-30.689.048.56,11.746-5.665-.448-1.142-10.45,5.037-.067-.822,8.774-21.632,11.222-4.157-.372-1.165L405,301.591l7.926-19.53,12.841-6.51-.467-1.131-11.669,5.928,6.659-16.435Z" data-name="Path 6" transform="translate(-317.023 -161.383)"/><path id="Path_7" d="M352.505,322.925l-1.01-.183-.7,12.061-5.239-13.523,2.6-15.476-1-.343L344.827,319.4l-7.1-18.308,1.9-18.982-1-.24-1.715,17.109-5.9-15.213.591.3.848-18.685-1.01-.171-.781,17.109-.257-.126-6.64-17.132,1.277-17.509-1.01-.217-1.134,15.5-6.992-18.046-.915.434,7.44,19.188-8.145-6.008-.467,1.028,9.355,6.9,5.887,15.2-7.745-3.826-.3,1.119,8.669,4.283,6.106,15.761-9.145-6.247-.438,1.051,10.288,7.024,7.287,18.8-8.164-3.609-.267,1.142,9.021,3.986,6.287,16.23-.048.879-7.84-5-.41,1.062,9.164,5.859.029-.5,12.012,31,.914-.434-12.793-33Z" data-name="Path 7" transform="translate(-313.82 -158.218)"/></g><path id="Path_8" fill="#92e3a9" d="M362.025,356.627s.9-3.529-5.373-7.732a80.669,80.669,0,0,0-7.773-4.9s1.476,5.288,4.715,8.1,4.62,4.089,4.62,4.089a18.443,18.443,0,0,0-8.373-2.547,11.372,11.372,0,0,0-7.4,2.513,71.661,71.661,0,0,0,8.431,4.568,28.625,28.625,0,0,0,10.7,2.284s-8.173-1.142-9.774.765a44.2,44.2,0,0,0-3.953,6.727,47.344,47.344,0,0,1,10.126.057c4.334.685,10.069-1.93,10.069-1.93l4.9,2.913,2.058-3.666s1.153-.126,5.049,2.284a76.479,76.479,0,0,0,11.1,5.117l-7.287-11.2,7.364,2.079c3.687,1.039,9.621-.171,9.621-.171s-.562-2.227-4.6-4.089-11.755-4.763-11.755-4.763,6.354,1.61,10.574-1.7a36.244,36.244,0,0,0,6.925-7.332s-6.02-4.249-11.7-2.764a27.626,27.626,0,0,0-10.612,6.293,19.671,19.671,0,0,0,4.906-8.269A51.087,51.087,0,0,0,386,335.452s-6.887,2.753-8.64,5.231-4.706,9.674-4.706,9.674,2.953-7.2-.5-11.421-6.354-7.515-6.354-7.515-2.905,5.06-3.506,9.137,3.763,11.353,3.763,11.353l-3.887-2.444Z" data-name="Path 8" transform="translate(-79.141 -111.465)"/><path id="Path_9" fill="#fff" d="M362.025,356.627s.9-3.529-5.373-7.732a80.669,80.669,0,0,0-7.773-4.9s1.476,5.288,4.715,8.1,4.62,4.089,4.62,4.089a18.443,18.443,0,0,0-8.373-2.547,11.372,11.372,0,0,0-7.4,2.513,71.661,71.661,0,0,0,8.431,4.568,28.625,28.625,0,0,0,10.7,2.284s-8.173-1.142-9.774.765a44.2,44.2,0,0,0-3.953,6.727,47.344,47.344,0,0,1,10.126.057c4.334.685,10.069-1.93,10.069-1.93l4.9,2.913,2.058-3.666s1.153-.126,5.049,2.284a76.479,76.479,0,0,0,11.1,5.117l-7.287-11.2,7.364,2.079c3.687,1.039,9.621-.171,9.621-.171s-.562-2.227-4.6-4.089-11.755-4.763-11.755-4.763,6.354,1.61,10.574-1.7a36.244,36.244,0,0,0,6.925-7.332s-6.02-4.249-11.7-2.764a27.626,27.626,0,0,0-10.612,6.293,19.671,19.671,0,0,0,4.906-8.269A51.087,51.087,0,0,0,386,335.452s-6.887,2.753-8.64,5.231-4.706,9.674-4.706,9.674,2.953-7.2-.5-11.421-6.354-7.515-6.354-7.515-2.905,5.06-3.506,9.137,3.763,11.353,3.763,11.353l-3.887-2.444Z" data-name="Path 9" opacity=".3" transform="translate(-79.141 -111.465)"/><path id="Path_10" fill="#92e3a9" d="M193.936,227.949s-6.144-5.9-7.726-9.708c-1.334-3.232-2.305-7.8-.953-11.239a5.72,5.72,0,0,1,3.183-3.488,4.478,4.478,0,0,1,4.286.564c3.81,2.867,4.191,12.643,3.229,17.349C195.9,221.839,194,228.018,193.936,227.949Z" data-name="Path 10" transform="translate(-71.66 -129.689)"/><path id="Path_11" fill="#92e3a9" d="M253.724,270.517c-.257.286-4.639,4.157-4.668,4.066s-2.448-9.068-2.039-13.294c.343-3.6,1.6-8.063,4.315-10.005a4.5,4.5,0,0,1,4.266-.753,5.613,5.613,0,0,1,3.288,3.346C260.745,258.833,256.658,267.262,253.724,270.517Z" data-name="Path 11" transform="translate(-74.616 -122.997)"/><path id="Path_12" fill="#92e3a9" d="M117.713,232.72s22.5,28.3,22.386,63.068-22.862,62.817-22.862,62.817-22.5-28.3-22.377-63.068S117.713,232.72,117.713,232.72Z" data-name="Path 12" transform="translate(-67.406 -125.494)"/><path id="Path_13" fill="#92e3a9" d="M151.333,321.639a9.748,9.748,0,0,1-.81-1.245c-1.638-3.027-3.039-7.424-1.981-11.044a6.085,6.085,0,0,1,2.829-3.907,4.463,4.463,0,0,1,4.315-.044c3.058,1.759,4.553,7.732,4.877,12.621,1.219-.343,2.315-.605,3.258-.8.41-1.142.81-2.216,1.219-3.346s.762-2.284,1.153-3.483c.533-1.736,1.019-3.563,1.505-5.379-1.781-.971-6.964-3.929-8.9-6.533s-3.915-6.784-3.325-10.542a6.568,6.568,0,0,1,2.307-4.385,4.557,4.557,0,0,1,4.266-.846c4.268,1.553,6.783,10.862,6.868,15.7,0,.16-.067,1.142-.152,2.4.429-1.793.867-3.575,1.248-5.414,1.105-5.208,2.086-10.553,3.1-15.9.21-1.142.429-2.227.648-3.335-1.505-.811-7.145-3.952-9.164-6.67s-3.925-6.784-3.334-10.553a6.564,6.564,0,0,1,2.31-4.378,4.557,4.557,0,0,1,4.263-.842c4.277,1.542,6.783,10.85,6.878,15.693,0,.183-.086,1.4-.191,2.775.581-2.9,1.191-5.779,1.905-8.612a131.827,131.827,0,0,1,4.2-14.288c-.533-.274-7.2-3.8-9.45-6.853-1.991-2.684-3.915-6.784-3.334-10.542a6.577,6.577,0,0,1,2.313-4.385,4.565,4.565,0,0,1,4.27-.845c4.268,1.553,6.782,10.862,6.868,15.7,0,.343-.324,4.774-.486,6.35l.057-.16a88.789,88.789,0,0,1,6.125-12.895,113.161,113.161,0,0,1,6.754-10.473c2.22-3.107,4.411-5.791,6.354-8.155,1.067-1.256,2.058-2.4,2.991-3.426h-.1c-.076,0,2.086-6.053,2.258-6.419,2-4.2,7.878-10.873,12.231-9.719a5.669,5.669,0,0,1,3.405,3.24,7.608,7.608,0,0,1,.291,5.2c-.953,3.643-4.287,6.1-7.087,7.275s-9.174.628-10.736.457c-.953,1.142-1.962,2.284-3.048,3.666-1.905,2.4-4.039,5.14-6.192,8.292-.572.845-1.162,1.782-1.743,2.673,1.238-1.256,2.963-2.947,3.144-3.084,3.363-2.6,11.107-5.231,14.537-1.759a7.394,7.394,0,0,1,.086,9.56c-2.239,2.7-6.106,3.015-9.05,2.49s-8.573-4.728-9.745-5.654c-1.267,1.987-2.534,4.077-3.753,6.35a89.1,89.1,0,0,0-5.82,12.895c-.1.263-.162.537-.248.8.524-.742,3.648-4.569,3.9-4.831,3.105-3.038,10.564-6.681,14.289-3.689a6.819,6.819,0,0,1,2.216,4.495,7.394,7.394,0,0,1-1.264,5c-1.981,2.97-5.8,3.8-8.773,3.678-3.42-.149-10.164-4.294-10.412-4.454a130.875,130.875,0,0,0-3.81,13.922c-.772,3.506-1.429,7.093-2.067,10.7.7-.959,3.61-4.569,3.81-4.763,3.105-3.038,10.564-6.681,14.289-3.689a6.819,6.819,0,0,1,2.216,4.494,7.394,7.394,0,0,1-1.264,5c-1.981,2.97-5.8,3.815-8.764,3.678-3.344-.149-9.821-4.089-10.364-4.42-.3,1.633-.581,3.278-.867,4.923-.953,5.368-1.8,10.747-2.858,15.99-.352,1.827-.753,3.609-1.153,5.414,1.1-1.393,3.115-3.883,3.315-4.066,3.1-3.038,10.564-6.682,14.289-3.7a6.832,6.832,0,0,1,2.217,4.5,7.408,7.408,0,0,1-1.264,5c-1.991,2.97-5.8,3.8-8.773,3.678s-8.488-3.3-10.031-4.226c-.676,2.981-1.4,5.916-2.229,8.772-.372,1.211-.7,2.49-1.115,3.632l-.629,1.827c.553-.08.867-.1.867-.1s.057,1.69-.076,4.454c3.277-2.844,7.992-5.288,11.069-3.575a6.374,6.374,0,0,1,2.747,4.051,7.607,7.607,0,0,1-.632,5.166,8.277,8.277,0,0,1-.686,1.142,27.8,27.8,0,0,1-4.23,11.478c-.172.24-2.391,2.741-3.553,3.986,1.124-.742,2.239-1.473,3.391-2.284,1.677-1.142,3.41-2.387,5.1-3.6l2.6-2.022c.886-.662,1.677-1.428,2.534-2.147,1.238-1.085,2.467-2.284,3.7-3.426-1.048-2-4.029-7.995-4.468-11.421s-.2-8.3,2-11.044a4.679,4.679,0,0,1,7.849.068c2.858,4.157.743,13.6-1.381,17.714-.067.126-.591.936-1.219,1.9,1.172-1.211,2.343-2.41,3.5-3.678,3.277-3.609,6.516-7.4,9.783-11.181l2.048-2.353c-.886-1.679-4.172-8.086-4.62-11.718s-.2-8.3,1.991-11.044a4.679,4.679,0,0,1,7.849.069c2.858,4.157.743,13.6-1.372,17.714-.076.148-.7,1.142-1.41,2.182,1.8-2.022,3.61-4.02,5.458-5.928a97.156,97.156,0,0,1,9.974-9.137c-.324-.594-4.3-7.995-4.763-12.049-.448-3.575-.2-8.292,1.991-11.033a4.679,4.679,0,0,1,7.849.057c2.858,4.169.743,13.614-1.372,17.714-.152.3-2.439,3.769-3.286,4.98l.124-.1a65.221,65.221,0,0,1,10.945-6.647,83.761,83.761,0,0,1,10.326-4.089,91.1,91.1,0,0,1,8.993-2.524c1.457-.343,2.8-.628,4.058-.868l-.076-.069c-.067-.068,4.477-3.655,4.763-3.838,3.572-2.159,11.5-3.78,14.6.114a7.326,7.326,0,0,1,1.381,4.951,6.881,6.881,0,0,1-2.114,4.563c-2.467,2.387-6.335,2.216-9.212,1.313s-7.935-5.642-9.164-6.853c-1.3.286-2.677.605-4.2,1.005-2.677.72-5.716,1.565-8.916,2.752-.857.32-1.772.7-2.667,1.051,1.61-.206,3.81-.457,4.03-.457,3.972.091,11.622,3.107,12.917,8.3a7.545,7.545,0,0,1-.665,5.118,5.438,5.438,0,0,1-3.593,2.876c-3.086.731-6.459-1.6-8.678-4.02s-4.992-9.685-5.563-11.261c-1.962.811-3.963,1.7-6.011,2.775a64.182,64.182,0,0,0-10.688,6.853c-.2.16-.381.343-.581.5.781-.263,5.134-1.382,5.449-1.416,3.963-.445,11.831,1.53,13.584,6.533a7.617,7.617,0,0,1-.175,5.207,5.748,5.748,0,0,1-3.331,3.348c-3,1.142-6.563-.72-8.983-2.832-2.782-2.421-6.535-10.416-6.668-10.725a100.015,100.015,0,0,0-9.478,9.068c-2.229,2.4-4.4,4.945-6.563,7.527,1.019-.32,5.068-1.348,5.363-1.382,3.963-.445,11.841,1.53,13.584,6.522a7.617,7.617,0,0,1-.175,5.207,5.749,5.749,0,0,1-3.331,3.348c-3,1.142-6.563-.72-8.974-2.821-2.724-2.376-6.344-10.016-6.668-10.656l-2.944,3.518c-3.182,3.872-6.373,7.767-9.612,11.49-1.115,1.291-2.258,2.513-3.4,3.735,1.534-.423,4.353-1.142,4.6-1.142,3.963-.445,11.831,1.53,13.584,6.533a7.617,7.617,0,0,1-.175,5.207,5.748,5.748,0,0,1-3.331,3.348c-3,1.142-6.563-.72-8.983-2.832s-5.582-8.452-6.459-10.279c-1.905,2.033-3.81,3.986-5.82,5.813-.867.754-1.715,1.6-2.582,2.284l-2.553,2.09c-1.791,1.348-3.448,2.6-5.144,3.815-.848.617-1.667,1.142-2.5,1.759,1.505-.719,3.906-1.8,4.134-1.873,3.868-1.142,11.888-.674,14.241,3.94a7.607,7.607,0,0,1,.489,5.206,6.229,6.229,0,0,1-2.889,3.931c-2.858,1.679-6.573.491-9.231-1.142-2.925-1.8-7.316-8.44-7.859-9.251-2.039,1.416-4.039,2.775-5.935,4.009-5.049,3.289-9.459,5.916-12.879,7.881-11.117,11.707-26.759,13-26.759,13s-.819-22.843,10.212-37.85a39.355,39.355,0,0,1,13.832-11.581Zm19.843,22.26c-.343-.937-3.01-8.189-3.191-12.278-.619-.137-1.238-.3-1.839-.468a59.643,59.643,0,0,1-6.906,20.1c2.02-1.142,4.211-2.467,6.535-3.906C167.5,346.286,169.318,345.121,171.176,343.9Z" data-name="Path 13" transform="translate(-68.942 -130.523)"/><path id="Path_14" fill="#92e3a9" d="M66.49,302.35s18.738.7,30.216,15.225,11.326,37.371,11.326,37.371-18.738-.7-30.216-15.225S66.49,302.35,66.49,302.35Z" data-name="Path 14" transform="translate(-66.061 -115.597)"/><g id="Group_2" data-name="Group 2" opacity=".5" transform="translate(0.429 66.812)"><path id="Path_15" fill="#fff" d="M193.936,227.949s-6.144-5.9-7.726-9.708c-1.334-3.232-2.305-7.8-.953-11.239a5.72,5.72,0,0,1,3.183-3.488,4.478,4.478,0,0,1,4.286.564c3.81,2.867,4.191,12.643,3.229,17.349C195.9,221.839,194,228.018,193.936,227.949Z" data-name="Path 15" transform="translate(-72.089 -196.5)"/><path id="Path_16" fill="#fff" d="M253.724,270.517c-.257.286-4.639,4.157-4.668,4.066s-2.448-9.068-2.039-13.294c.343-3.6,1.6-8.063,4.315-10.005a4.5,4.5,0,0,1,4.266-.753,5.613,5.613,0,0,1,3.288,3.346C260.745,258.833,256.658,267.262,253.724,270.517Z" data-name="Path 16" transform="translate(-75.045 -189.808)"/><path id="Path_17" fill="#fff" d="M117.713,232.72s22.5,28.3,22.386,63.068-22.862,62.817-22.862,62.817-22.5-28.3-22.377-63.068S117.713,232.72,117.713,232.72Z" data-name="Path 17" transform="translate(-67.835 -192.305)"/><path id="Path_18" fill="#fff" d="M151.333,321.639a9.748,9.748,0,0,1-.81-1.245c-1.638-3.027-3.039-7.424-1.981-11.044a6.085,6.085,0,0,1,2.829-3.907,4.463,4.463,0,0,1,4.315-.044c3.058,1.759,4.553,7.732,4.877,12.621,1.219-.343,2.315-.605,3.258-.8.41-1.142.81-2.216,1.219-3.346s.762-2.284,1.153-3.483c.533-1.736,1.019-3.563,1.505-5.379-1.781-.971-6.964-3.929-8.9-6.533s-3.915-6.784-3.325-10.542a6.568,6.568,0,0,1,2.307-4.385,4.557,4.557,0,0,1,4.266-.846c4.268,1.553,6.783,10.862,6.868,15.7,0,.16-.067,1.142-.152,2.4.429-1.793.867-3.575,1.248-5.414,1.105-5.208,2.086-10.553,3.1-15.9.21-1.142.429-2.227.648-3.335-1.505-.811-7.145-3.952-9.164-6.67s-3.925-6.784-3.334-10.553a6.564,6.564,0,0,1,2.31-4.378,4.557,4.557,0,0,1,4.263-.842c4.277,1.542,6.783,10.85,6.878,15.693,0,.183-.086,1.4-.191,2.775.581-2.9,1.191-5.779,1.905-8.612a131.827,131.827,0,0,1,4.2-14.288c-.533-.274-7.2-3.8-9.45-6.853-1.991-2.684-3.915-6.784-3.334-10.542a6.577,6.577,0,0,1,2.313-4.385,4.565,4.565,0,0,1,4.27-.845c4.268,1.553,6.782,10.862,6.868,15.7,0,.343-.324,4.774-.486,6.35l.057-.16a88.789,88.789,0,0,1,6.125-12.895,113.161,113.161,0,0,1,6.754-10.473c2.22-3.107,4.411-5.791,6.354-8.155,1.067-1.256,2.058-2.4,2.991-3.426h-.1c-.076,0,2.086-6.053,2.258-6.419,2-4.2,7.878-10.873,12.231-9.719a5.669,5.669,0,0,1,3.405,3.24,7.608,7.608,0,0,1,.291,5.2c-.953,3.643-4.287,6.1-7.087,7.275s-9.174.628-10.736.457c-.953,1.142-1.962,2.284-3.048,3.666-1.905,2.4-4.039,5.14-6.192,8.292-.572.845-1.162,1.782-1.743,2.673,1.238-1.256,2.963-2.947,3.144-3.084,3.363-2.6,11.107-5.231,14.537-1.759a7.394,7.394,0,0,1,.086,9.56c-2.239,2.7-6.106,3.015-9.05,2.49s-8.573-4.728-9.745-5.654c-1.267,1.987-2.534,4.077-3.753,6.35a89.1,89.1,0,0,0-5.82,12.895c-.1.263-.162.537-.248.8.524-.742,3.648-4.569,3.9-4.831,3.105-3.038,10.564-6.681,14.289-3.689a6.819,6.819,0,0,1,2.216,4.495,7.394,7.394,0,0,1-1.264,5c-1.981,2.97-5.8,3.8-8.773,3.678-3.42-.149-10.164-4.294-10.412-4.454a130.875,130.875,0,0,0-3.81,13.922c-.772,3.506-1.429,7.093-2.067,10.7.7-.959,3.61-4.569,3.81-4.763,3.105-3.038,10.564-6.681,14.289-3.689a6.819,6.819,0,0,1,2.216,4.494,7.394,7.394,0,0,1-1.264,5c-1.981,2.97-5.8,3.815-8.764,3.678-3.344-.149-9.821-4.089-10.364-4.42-.3,1.633-.581,3.278-.867,4.923-.953,5.368-1.8,10.747-2.858,15.99-.352,1.827-.753,3.609-1.153,5.414,1.1-1.393,3.115-3.883,3.315-4.066,3.1-3.038,10.564-6.682,14.289-3.7a6.832,6.832,0,0,1,2.217,4.5,7.408,7.408,0,0,1-1.264,5c-1.991,2.97-5.8,3.8-8.773,3.678s-8.488-3.3-10.031-4.226c-.676,2.981-1.4,5.916-2.229,8.772-.372,1.211-.7,2.49-1.115,3.632l-.629,1.827c.553-.08.867-.1.867-.1s.057,1.69-.076,4.454c3.277-2.844,7.992-5.288,11.069-3.575a6.374,6.374,0,0,1,2.747,4.051,7.607,7.607,0,0,1-.632,5.166,8.277,8.277,0,0,1-.686,1.142,27.8,27.8,0,0,1-4.23,11.478c-.172.24-2.391,2.741-3.553,3.986,1.124-.742,2.239-1.473,3.391-2.284,1.677-1.142,3.41-2.387,5.1-3.6l2.6-2.022c.886-.662,1.677-1.428,2.534-2.147,1.238-1.085,2.467-2.284,3.7-3.426-1.048-2-4.029-7.995-4.468-11.421s-.2-8.3,2-11.044a4.679,4.679,0,0,1,7.849.068c2.858,4.157.743,13.6-1.381,17.714-.067.126-.591.936-1.219,1.9,1.172-1.211,2.343-2.41,3.5-3.678,3.277-3.609,6.516-7.4,9.783-11.181l2.048-2.353c-.886-1.679-4.172-8.086-4.62-11.718s-.2-8.3,1.991-11.044a4.679,4.679,0,0,1,7.849.069c2.858,4.157.743,13.6-1.372,17.714-.076.148-.7,1.142-1.41,2.182,1.8-2.022,3.61-4.02,5.458-5.928a97.156,97.156,0,0,1,9.974-9.137c-.324-.594-4.3-7.995-4.763-12.049-.448-3.575-.2-8.292,1.991-11.033a4.679,4.679,0,0,1,7.849.057c2.858,4.169.743,13.614-1.372,17.714-.152.3-2.439,3.769-3.286,4.98l.124-.1a65.221,65.221,0,0,1,10.945-6.647,83.761,83.761,0,0,1,10.326-4.089,91.1,91.1,0,0,1,8.993-2.524c1.457-.343,2.8-.628,4.058-.868l-.076-.069c-.067-.068,4.477-3.655,4.763-3.838,3.572-2.159,11.5-3.78,14.6.114a7.326,7.326,0,0,1,1.381,4.951,6.881,6.881,0,0,1-2.114,4.563c-2.467,2.387-6.335,2.216-9.212,1.313s-7.935-5.642-9.164-6.853c-1.3.286-2.677.605-4.2,1.005-2.677.72-5.716,1.565-8.916,2.752-.857.32-1.772.7-2.667,1.051,1.61-.206,3.81-.457,4.03-.457,3.972.091,11.622,3.107,12.917,8.3a7.545,7.545,0,0,1-.665,5.118,5.438,5.438,0,0,1-3.593,2.876c-3.086.731-6.459-1.6-8.678-4.02s-4.992-9.685-5.563-11.261c-1.962.811-3.963,1.7-6.011,2.775a64.182,64.182,0,0,0-10.688,6.853c-.2.16-.381.343-.581.5.781-.263,5.134-1.382,5.449-1.416,3.963-.445,11.831,1.53,13.584,6.533a7.617,7.617,0,0,1-.175,5.207,5.748,5.748,0,0,1-3.331,3.348c-3,1.142-6.563-.72-8.983-2.832-2.782-2.421-6.535-10.416-6.668-10.725a100.015,100.015,0,0,0-9.478,9.068c-2.229,2.4-4.4,4.945-6.563,7.527,1.019-.32,5.068-1.348,5.363-1.382,3.963-.445,11.841,1.53,13.584,6.522a7.617,7.617,0,0,1-.175,5.207,5.749,5.749,0,0,1-3.331,3.348c-3,1.142-6.563-.72-8.974-2.821-2.724-2.376-6.344-10.016-6.668-10.656l-2.944,3.518c-3.182,3.872-6.373,7.767-9.612,11.49-1.115,1.291-2.258,2.513-3.4,3.735,1.534-.423,4.353-1.142,4.6-1.142,3.963-.445,11.831,1.53,13.584,6.533a7.617,7.617,0,0,1-.175,5.207,5.748,5.748,0,0,1-3.331,3.348c-3,1.142-6.563-.72-8.983-2.832s-5.582-8.452-6.459-10.279c-1.905,2.033-3.81,3.986-5.82,5.813-.867.754-1.715,1.6-2.582,2.284l-2.553,2.09c-1.791,1.348-3.448,2.6-5.144,3.815-.848.617-1.667,1.142-2.5,1.759,1.505-.719,3.906-1.8,4.134-1.873,3.868-1.142,11.888-.674,14.241,3.94a7.607,7.607,0,0,1,.489,5.206,6.229,6.229,0,0,1-2.889,3.931c-2.858,1.679-6.573.491-9.231-1.142-2.925-1.8-7.316-8.44-7.859-9.251-2.039,1.416-4.039,2.775-5.935,4.009-5.049,3.289-9.459,5.916-12.879,7.881-11.117,11.707-26.759,13-26.759,13s-.819-22.843,10.212-37.85a39.355,39.355,0,0,1,13.832-11.581Zm19.843,22.26c-.343-.937-3.01-8.189-3.191-12.278-.619-.137-1.238-.3-1.839-.468a59.643,59.643,0,0,1-6.906,20.1c2.02-1.142,4.211-2.467,6.535-3.906C167.5,346.286,169.318,345.121,171.176,343.9Z" data-name="Path 18" transform="translate(-69.371 -197.334)"/><path id="Path_19" fill="#fff" d="M66.49,302.35s18.738.7,30.216,15.225,11.326,37.371,11.326,37.371-18.738-.7-30.216-15.225S66.49,302.35,66.49,302.35Z" data-name="Path 19" transform="translate(-66.49 -182.409)"/></g><g id="Group_3" data-name="Group 3" opacity=".2" transform="translate(0 107.226)"><path id="Path_20" d="M116.964,326.957,98.55,306.787l.791-1.074,17.633,19.325.1-26.44-.1.08L101.4,270.936l.972-.811,14.708,26.189.219-63.594h1.181l-.152,43.172,11.717-12.358.781,1.085L118.316,277.8l-.1,30.872,17.766-19.154.781,1.074-18.557,20-.1,28.108,13.346-12.769.734,1.131L118.1,340.537l-.067,18.091-1.181-.011.114-31.66Z" data-name="Path 20" transform="translate(-67.581 -232.72)"/><path id="Path_21" d="M135.264,324.985l1.172-.171,1.486,15.978,7.907-10.77h-.01l2-19.336,1.172.183L147.2,328.16l19.643-26.76.886.959-13.336,18.16,8.44.126-.01,1.439-9.469-.148L144,334.67l13.2.023v1.439l-14.251-.023-8.507,11.581,9.316.685-.076,1.428-10.24-.742-5.658,7.709-.886-.959,9.974-13.58Z" data-name="Path 21" transform="translate(-68.925 -222.959)"/><path id="Path_22" d="M87.893,330.6l-15.67-3.872.238-1.416,14.022,3.472L66.04,302.915l.848-1.005,13.87,17.555.734-10.245,1.172.126-.819,11.5,9.726,12.3,1-16.035,1.181.114-1.086,17.315,8.84,11.193,1.257-11.261,1.162.194-1.372,12.392,5.887,7.447-.848,1.005L97.219,342.376l-14.232.674-.048-1.439,13.184-.617L87.9,330.578Z" data-name="Path 22" transform="translate(-66.04 -222.886)"/></g></g><g id="freepik--Ground--inject-2" transform="translate(0 302.003)"><path id="Path_23" fill="#92e3a9" d="M164.062,352.36,47.33,374.689l215.059,44.669,176.145-36.548Z" data-name="Path 23" transform="translate(-47.33 -352.36)"/></g><g id="freepik--Shadow--inject-2" transform="translate(131.583 319.808)"><ellipse id="Ellipse_1" cx="59.423" cy="8.486" data-name="Ellipse 1" opacity=".15" rx="59.423" ry="8.486"/></g><g id="freepik--Character--inject-2" transform="translate(89.995 15.694)"><path id="Path_24" fill="#263238" stroke="#263238" stroke-linecap="round" stroke-linejoin="round" stroke-width="1" d="M238.181,295.749s-4.954,1.7-20.157,1.279-37.151-8.909-45.63-8.909-17.7,3.815-21.224,12.3-6.725,19.085,13.794,28.839S201.04,341.983,230.4,350.88s41.029,9.331,56.2,4.671,25.463-16.538,24.053-33.122-4.6-26.714-12.022-29.261S238.181,295.749,238.181,295.749Z" data-name="Path 24" transform="translate(-142.124 -75.181)"/><path id="Path_25" fill="#fff" d="M264.774,179.091s.533,8.063-1.343,12.563-9.421,9.034-15.88,13.226-15.6,3.552-19.366,10.645-3.5,19.028-3.5,19.028-5.925,10.976-10.764,20.65-7.535,19.679-1.343,25.127,13.717-2.581,17.756-10.279,7.8-16.447,7.8-16.447,5.154,29.958,3.763,38.056-4.573,15.807-4.573,19.416,2.42,6.133,6.192,7.093,16.68,2.284,25.558,1.622,34.17-2.581,35.246-6.784,2.686-33.225,2.686-33.225,15.87,6.453,20.719-5.151,5.106-37.69,1.61-50.653-12.384-17.737-17.757-20.958-20.176-11.615-22.862-15.167-3.515-21.027-3.515-26.829-.533-.32-5.649,4.192S264.774,179.091,264.774,179.091Z" data-name="Path 25" transform="translate(-144.987 -93.602)"/><g id="Group_4" clip-path="url(#clip-path)" data-name="Group 4" transform="translate(63.995 64.912)"><path id="Path_26" fill="#92e3a9" d="M332.117,223.919c-3.5-12.895-12.384-17.737-17.756-20.958s-20.176-11.615-22.862-15.167-3.515-20.969-3.515-26.771-.533-.32-5.649,4.192-14.794,13.877-14.794,13.877a50.442,50.442,0,0,1,0,5.494c3.058,1.588,7.106,3.426,9.364,3.426,3.934,0,5.116,3.3,6.668,6.6s-1.181,7.07-1.181,7.07,12.584.948,16.909,2.353,15.727,3.3,22.805,10.382c5.592,5.574,9.459,15.841,12,22.477A72.775,72.775,0,0,0,332.117,223.919Z" data-name="Path 26" transform="translate(-211.758 -158.514)"/><path id="Path_27" fill="#fff" d="M332.117,223.919c-3.5-12.895-12.384-17.737-17.756-20.958s-20.176-11.615-22.862-15.167-3.515-20.969-3.515-26.771-.533-.32-5.649,4.192-14.794,13.877-14.794,13.877a50.442,50.442,0,0,1,0,5.494c3.058,1.588,7.106,3.426,9.364,3.426,3.934,0,5.116,3.3,6.668,6.6s-1.181,7.07-1.181,7.07,12.584.948,16.909,2.353,15.727,3.3,22.805,10.382c5.592,5.574,9.459,15.841,12,22.477A72.775,72.775,0,0,0,332.117,223.919Z" data-name="Path 27" opacity=".6" transform="translate(-211.758 -158.514)"/></g><path id="Path_29" fill="none" stroke="#263238" stroke-linecap="round" stroke-linejoin="round" stroke-width="1" d="M264.774,179.091s.533,8.063-1.343,12.563-9.421,9.034-15.88,13.226-15.6,3.552-19.366,10.645-3.5,19.028-3.5,19.028-5.925,10.976-10.764,20.65-7.535,19.679-1.343,25.127,13.717-2.581,17.756-10.279,7.8-16.447,7.8-16.447,5.154,29.958,3.763,38.056-4.573,15.807-4.573,19.416,2.42,6.133,6.192,7.093,16.68,2.284,25.558,1.622,34.17-2.581,35.246-6.784,2.686-33.225,2.686-33.225,15.87,6.453,20.719-5.151,5.106-37.69,1.61-50.653-12.384-17.737-17.757-20.958-20.176-11.615-22.862-15.167-3.515-21.027-3.515-26.829-.533-.32-5.649,4.192S264.774,179.091,264.774,179.091Z" data-name="Path 29" transform="translate(-144.987 -93.602)"/><path id="Path_30" fill="#263238" stroke="#263238" stroke-linecap="round" stroke-linejoin="round" stroke-width="1" d="M304.3,149.421c2.153-4.831,5.382-13.226,1.076-19.028s-6.992-2.284-7.535-8.063-1.61-11.935-6.459-11.935-8.335,2.284-11.3,0-5.382-8.714-12.917-8.714-7.526,13.877-8.878,15.487a6.52,6.52,0,0,1-2.2,1.268,2.086,2.086,0,0,1-1.3-1.268c-1.343-3.221,2.42-2.9,4.039-7.744s-2.963-8.063-6.192-5.162,3.5,2.581-.267,7.424-5.916,10.645-2.458,17.772,7.535,2.9,7.535,2.9c.8-.64,1.524,2.992,8.7,4.569,6.83,1.5,11.5-1.142,12.041,7.858s7.24,14.037,9.126,15.327-2.963,8.395-1.905,11.615,4.572,2.9,6.725,2.581.81-4.192,5.382-4.843,6.182-2.284,8.069-8.383S302.145,154.264,304.3,149.421Z" data-name="Path 30" transform="translate(-146.845 -101.68)"/><path id="Path_31" fill="none" stroke="#fff" stroke-linecap="round" stroke-linejoin="round" stroke-width="1" d="M306.12,135.958a2.943,2.943,0,0,0,2.324-.708" data-name="Path 31" transform="translate(-149.592 -96.909)"/><path id="Path_32" fill="none" stroke="#fff" stroke-linecap="round" stroke-linejoin="round" stroke-width="1" d="M288.77,124.585s4.763-4.569,7.545,1.142c1.705,3.426,3.925,7.995,6.344,10.439" data-name="Path 32" transform="translate(-148.769 -98.67)"/><path id="Path_33" fill="none" stroke="#fff" stroke-linecap="round" stroke-linejoin="round" stroke-width="1" d="M286.3,138.307a28.575,28.575,0,0,1,8.954-.571c4.239.571,3.81,4.568,8.478,4.568" data-name="Path 33" transform="translate(-148.652 -96.573)"/><path id="Path_34" fill="none" stroke="#fff" stroke-linecap="round" stroke-linejoin="round" stroke-width="1" d="M265.65,119.47a9.836,9.836,0,0,0,1.334,1.576" data-name="Path 34" transform="translate(-147.673 -99.152)"/><path id="Path_35" fill="none" stroke="#fff" stroke-linecap="round" stroke-linejoin="round" stroke-width="1" d="M285.051,121.046s-1.219,4.968-5.935-1.8-7.983-14.619-13.336-7.892a7.306,7.306,0,0,0-1.791,5.539" data-name="Path 35" transform="translate(-147.593 -100.671)"/><path id="Path_36" fill="none" stroke="#fff" stroke-linecap="round" stroke-linejoin="round" stroke-width="1" d="M253.113,121.583a14.972,14.972,0,0,1-.953-3.643" data-name="Path 36" transform="translate(-147.034 -99.369)"/><path id="Path_37" fill="none" stroke="#fff" stroke-linecap="round" stroke-linejoin="round" stroke-width="1" d="M261.693,126.269a8.136,8.136,0,0,1-7.373-3.369" data-name="Path 37" transform="translate(-147.136 -98.664)"/><path id="Path_38" fill="#92e3a9" d="M312.138,198.951c-4.191-2.524-14.118-8.178-19.557-12.221-1.791,6.442-7.049,21.244-17.566,21.244-9.7,0-12.546-10.873-13.336-16.961-3.22,3.426-8.678,6.716-13.536,9.868-6.449,4.192-15.6,3.552-19.366,10.645s-3.5,19.028-3.5,19.028-2,3.712-4.62,8.7c10.869-.651,18.1,10.336,18.1,10.336s5.087,29.958,3.7,38.056-4.572,15.807-4.572,19.416,2.42,6.133,6.192,7.093,16.68,2.284,25.558,1.622,34.17-2.581,35.246-6.784,2.686-33.224,2.686-33.224l-1.61-25.481c13.517-10.713,22.967-3.209,26.063,0,.667-10.953-.1-22.843-2.124-30.335C326.4,207.014,317.52,202.172,312.138,198.951Z" data-name="Path 38" transform="translate(-145.541 -89.592)"/><g id="Group_5" clip-path="url(#clip-path-2)" data-name="Group 5" transform="translate(75.119 97.138)"><path id="Path_39" d="M332.117,223.919c-3.5-12.895-12.384-17.737-17.756-20.958s-20.176-11.615-22.862-15.167-3.515-20.969-3.515-26.771-.533-.32-5.649,4.192-14.794,13.877-14.794,13.877a50.442,50.442,0,0,1,0,5.494c3.058,1.588,7.106,3.426,9.364,3.426,3.934,0,5.116,3.3,6.668,6.6s-1.181,7.07-1.181,7.07,12.584.948,16.909,2.353,15.727,3.3,22.805,10.382c5.592,5.574,9.459,15.841,12,22.477A72.775,72.775,0,0,0,332.117,223.919Z" data-name="Path 39" opacity=".15" transform="translate(-222.882 -190.74)"/><path id="Path_40" d="M295.538,198s-3.934,8.954-11.431,11.787a21.961,21.961,0,0,1-13.336.948s5.506,3.769,13.765,1.416S295.538,198,295.538,198Z" data-name="Path 40" opacity=".15" transform="translate(-223.035 -185.128)"/><path id="Path_41" d="M305.258,236.884s.391,15.088-4.325,18.857-19.662,7.07-25.558,5.185-11.431-11.787-16.909-9.9-14.946,14.151-14.946,14.151l.391,8.486,16.909-9.9s11.431,7.995,23.986,17.909.791,12.266.791,12.266L269.869,301s10.221-4.717,18.1-4.717,2.753,1.884,2.753,1.884h14.937l.314,3.746,2.858-23.071-.791-27.822S307.23,232.167,305.258,236.884Z" data-name="Path 41" opacity=".15" transform="translate(-221.743 -179.709)"/></g><path id="Path_43" fill="none" stroke="#263238" stroke-linecap="round" stroke-linejoin="round" stroke-width="1" d="M312.138,198.951c-4.191-2.524-14.118-8.178-19.557-12.221-1.791,6.442-7.049,21.244-17.566,21.244-9.7,0-12.546-10.873-13.336-16.961-3.22,3.426-8.678,6.716-13.536,9.868-6.449,4.192-15.6,3.552-19.366,10.645s-3.5,19.028-3.5,19.028-2,3.712-4.62,8.7c10.869-.651,18.1,10.336,18.1,10.336s5.087,29.958,3.7,38.056-4.572,15.807-4.572,19.416,2.42,6.133,6.192,7.093,16.68,2.284,25.558,1.622,34.17-2.581,35.246-6.784,2.686-33.224,2.686-33.224l-1.61-25.481c13.517-10.713,22.967-3.209,26.063,0,.667-10.953-.1-22.843-2.124-30.335C326.4,207.014,317.52,202.172,312.138,198.951Z" data-name="Path 43" transform="translate(-145.541 -89.592)"/><path id="Path_44" fill="none" stroke="#263238" stroke-linecap="round" stroke-linejoin="round" stroke-width="1" d="M239.449,244.682s-4.163-15.339-2.4-23.4" data-name="Path 44" transform="translate(-146.297 -84.681)"/><path id="Path_45" fill="none" stroke="#263238" stroke-linecap="round" stroke-linejoin="round" stroke-width="1" d="M310.17,244.583a44.943,44.943,0,0,1,.724-18.1" data-name="Path 45" transform="translate(-149.755 -83.942)"/><path id="Path_46" fill="none" stroke="#263238" stroke-linecap="round" stroke-linejoin="round" stroke-width="1" d="M245.24,298.846s13.089-2.284,21.91-4.786" data-name="Path 46" transform="translate(-146.706 -74.337)"/><path id="Path_47" fill="#fff" d="M211.982,254.425s-2.658,1.69-4.763,7.846-4.763,17.589-2.124,21.2,8.669.423,14.289-.423,29.178-17.383,33.065-20.147,7.078-3.815,8.316-6.362.886-11.661,1.057-16.115-.7-24.384-.7-24.384-1.238-4.877-3.363-4.454c0,0-2.477-1.69-3,0l-1.067,3.426s-2.3-.845-2.858.64a22.2,22.2,0,0,0-.7,4.454s-2.648,1.485-2.648,3.426.524,13.363.524,16.538-.352,8.063.533,10.176,1.772,4.032,1.772,4.032-12.917,2.124-18.395,2.124-15.032.206-16.8,1.268" data-name="Path 47" transform="translate(-144.751 -86.166)"/><g id="Group_6" clip-path="url(#clip-path-3)" data-name="Group 6" transform="translate(59.241 124.666)"><path id="Path_48" fill="#92e3a9" d="M260.8,251.722c.619-1.279.848-4.226.953-7.412l-8.5,2.216s.867,4.66-3.9,8.292-30.683,13.991-32.388,14.505,16.432-9.32,9.526-8.806-15.137,9.331-19.89,9.331a6.608,6.608,0,0,1-2.248-.377c-.524,3.906-.486,7.447.791,9.137,2.648,3.609,8.669.423,14.289-.423S248.612,260.8,252.5,258.038,259.557,254.235,260.8,251.722Z" data-name="Path 48" transform="translate(-203.994 -206.074)"/><path id="Path_49" fill="#fff" d="M260.8,251.722c.619-1.279.848-4.226.953-7.412l-8.5,2.216s.867,4.66-3.9,8.292-30.683,13.991-32.388,14.505,16.432-9.32,9.526-8.806-15.137,9.331-19.89,9.331a6.608,6.608,0,0,1-2.248-.377c-.524,3.906-.486,7.447.791,9.137,2.648,3.609,8.669.423,14.289-.423S248.612,260.8,252.5,258.038,259.557,254.235,260.8,251.722Z" data-name="Path 49" opacity=".6" transform="translate(-203.994 -206.074)"/></g><path id="Path_51" fill="none" stroke="#263238" stroke-linecap="round" stroke-linejoin="round" stroke-width="1" d="M211.982,254.425s-2.658,1.69-4.763,7.846-4.763,17.589-2.124,21.2,8.669.423,14.289-.423,29.178-17.383,33.065-20.147,7.078-3.815,8.316-6.362.886-11.661,1.057-16.115-.7-24.384-.7-24.384-1.238-4.877-3.363-4.454c0,0-2.477-1.69-3,0l-1.067,3.426s-2.3-.845-2.858.64a22.2,22.2,0,0,0-.7,4.454s-2.648,1.485-2.648,3.426.524,13.363.524,16.538-.352,8.063.533,10.176,1.772,4.032,1.772,4.032-12.917,2.124-18.395,2.124-15.032.206-16.8,1.268" data-name="Path 51" transform="translate(-144.751 -86.166)"/><path id="Path_52" fill="#fff" d="M321.795,264.628c-8.488-6.567-26.177-1.485-31.836-1.907s-21.4-10.816-21.4-10.816,3.182-3.815,3.353-6.145,0-8.692,0-12.3.886-7.207,1.067-9.959-2.858-.857-3.363,0-1.772,9.32-1.772,9.32-1.591-5.711-1.591-6.35-.352-8.486-1.238-11.673-3,0-3,0c-.181-1.907-.714-3.426-1.953-3.426s-2.3,5.311-2.3,5.311c0-3.187-.886-2.97-1.772-1.919s-.876,8.063-.876,8.063l-1.067-1.907c-1.238-.423-1.905,1.907-1.905,4.032s.7,8.475.7,13.774a47.416,47.416,0,0,0,.533,8.063,35.964,35.964,0,0,0,3.887,10.393c3.01,5.3,13.089,11.867,19.281,17.589s24.406,15.27,33.427,16.972,15.242,5.711,17.328,1.062,6.011-27.571,4.068-35.2" data-name="Path 52" transform="translate(-147.034 -86.09)"/><g id="Group_7" clip-path="url(#clip-path-4)" data-name="Group 7" transform="translate(105.117 125.28)"><path id="Path_53" fill="#92e3a9" d="M310.2,286.111c9.021,1.69,15.242,5.711,17.328,1.062,1.505-3.3,3.877-15.693,4.468-25.378-1.8,4.283-6.773,15.51-9.945,16.275-3.934.937-20.843-4.717-22.815-5.185s24.768-1.416,14.946-4.249-17.3-.948-29.531-5.185-22.138-7.31-27.2-11.9c3.01,5.3,13.089,11.867,19.281,17.589S301.174,284.409,310.2,286.111Z" data-name="Path 53" transform="translate(-252.401 -205.659)"/><path id="Path_54" fill="#fff" d="M310.2,286.111c9.021,1.69,15.242,5.711,17.328,1.062,1.505-3.3,3.877-15.693,4.468-25.378-1.8,4.283-6.773,15.51-9.945,16.275-3.934.937-20.843-4.717-22.815-5.185s24.768-1.416,14.946-4.249-17.3-.948-29.531-5.185-22.138-7.31-27.2-11.9c3.01,5.3,13.089,11.867,19.281,17.589S301.174,284.409,310.2,286.111Z" data-name="Path 54" opacity=".6" transform="translate(-252.401 -205.659)"/></g><path id="Path_56" fill="none" stroke="#263238" stroke-linecap="round" stroke-linejoin="round" stroke-width="1" d="M321.795,264.628c-8.488-6.567-26.177-1.485-31.836-1.907s-21.4-10.816-21.4-10.816,3.182-3.815,3.353-6.145,0-8.692,0-12.3.886-7.207,1.067-9.959-2.858-.857-3.363,0-1.772,9.32-1.772,9.32-1.591-5.711-1.591-6.35-.352-8.486-1.238-11.673-3,0-3,0c-.181-1.907-.714-3.426-1.953-3.426s-2.3,5.311-2.3,5.311c0-3.187-.886-2.97-1.772-1.919s-.876,8.063-.876,8.063l-1.067-1.907c-1.238-.423-1.905,1.907-1.905,4.032s.7,8.475.7,13.774a47.416,47.416,0,0,0,.533,8.063,35.964,35.964,0,0,0,3.887,10.393c3.01,5.3,13.089,11.867,19.281,17.589s24.406,15.27,33.427,16.972,15.242,5.711,17.328,1.062,6.011-27.571,4.068-35.2" data-name="Path 56" transform="translate(-147.034 -86.09)"/><path id="Path_57" fill="none" stroke="#263238" stroke-linecap="round" stroke-linejoin="round" stroke-width="1" d="M268.63,230.19a26.191,26.191,0,0,1,1.419,8.7" data-name="Path 57" transform="translate(-147.815 -83.415)"/><path id="Path_58" fill="none" stroke="#263238" stroke-linecap="round" stroke-linejoin="round" stroke-width="1" d="M262.51,214.41a62.481,62.481,0,0,1,1.057,8.269c0,2.764.352,9.137.352,9.137" data-name="Path 58" transform="translate(-147.525 -85.658)"/><path id="Path_59" fill="none" stroke="#263238" stroke-linecap="round" stroke-linejoin="round" stroke-width="1" d="M258.05,216.09s.7,4.877,1.057,7.995a67.933,67.933,0,0,1,.181,8.052" data-name="Path 59" transform="translate(-147.313 -85.419)"/><path id="Path_60" fill="none" stroke="#263238" stroke-linecap="round" stroke-linejoin="round" stroke-width="1" d="M255.27,221.47s.524,3.815.876,5.516a54.653,54.653,0,0,1,.362,6.784" data-name="Path 60" transform="translate(-147.181 -84.654)"/><path id="Path_61" fill="#fff" d="M241.69,331.219a20.5,20.5,0,0,1-5.306-4.237c-2.115-2.547,0-8.909-2.858-11.421s-8.488-3.426-9.526.434-1.772,6.362-3.9,7.207-4.592.845-8.488,2.97-3.887,9.754-3.887,9.754a93.155,93.155,0,0,1,21.91,6.362c10.26,4.66,14.851,2.113,14.851,2.113S244.881,335.845,241.69,331.219Z" data-name="Path 61" transform="translate(-144.928 -71.591)"/><g id="Group_8" clip-path="url(#clip-path-5)" data-name="Group 8" transform="translate(62.802 241.794)"><path id="Path_62" fill="#92e3a9" d="M237.787,334.275s-6.049-1.039-7.345-3.632.857-7.253-2.6-7.253-3.02,3.107-6.049,4.146-7.783-.525-5.62,2.593,10.812,9.32,15.994,10.359S241.245,337.9,237.787,334.275Z" data-name="Path 62" transform="translate(-208.104 -311.963)"/><path id="Path_63" fill="#fff" d="M237.787,334.275s-6.049-1.039-7.345-3.632.857-7.253-2.6-7.253-3.02,3.107-6.049,4.146-7.783-.525-5.62,2.593,10.812,9.32,15.994,10.359S241.245,337.9,237.787,334.275Z" data-name="Path 63" opacity=".6" transform="translate(-208.104 -311.963)"/></g><path id="Path_65" fill="none" stroke="#263238" stroke-linecap="round" stroke-linejoin="round" stroke-width="1" d="M241.69,331.219a20.5,20.5,0,0,1-5.306-4.237c-2.115-2.547,0-8.909-2.858-11.421s-8.488-3.426-9.526.434-1.772,6.362-3.9,7.207-4.592.845-8.488,2.97-3.887,9.754-3.887,9.754a93.155,93.155,0,0,1,21.91,6.362c10.26,4.66,14.851,2.113,14.851,2.113S244.881,335.845,241.69,331.219Z" data-name="Path 65" transform="translate(-144.928 -71.591)"/><path id="Path_66" fill="#263238" stroke="#263238" stroke-linecap="round" stroke-linejoin="round" stroke-width="1" d="M269.333,347.3a104.993,104.993,0,0,0,15.785-6.327c6.763-3.289,13.6-6.522,20.128-10.439,9.907-5.939,13.441-14.848,10.964-25.869s-6.716-19.508-24.768-15.693-23.767,16.835-31.436,26.714c-9.478,12.164-17.29,18.423-20.871,17.817-4.087-.685-4.954,8.475.7,11.878C248.986,350.867,259.417,350.228,269.333,347.3Z" data-name="Path 66" transform="translate(-146.26 -75.192)"/><path id="Path_67" fill="none" stroke="#fff" stroke-linecap="round" stroke-linejoin="round" stroke-width="1" d="M242.52,331.082s8.64-2.067,17.718-14.505S270.6,302.06,270.6,302.06" data-name="Path 67" transform="translate(-146.577 -73.2)"/><path id="Path_68" fill="none" stroke="#fff" stroke-linecap="round" stroke-linejoin="round" stroke-width="1" d="M310.66,325.167a37.5,37.5,0,0,0,4.249-4.957" data-name="Path 68" transform="translate(-149.807 -70.621)"/><path id="Path_69" fill="none" stroke="#fff" stroke-linecap="round" stroke-linejoin="round" stroke-width="1" d="M281.09,340.91s13.394-4.637,24.082-13.18" data-name="Path 69" transform="translate(-148.405 -69.552)"/><path id="Path_70" fill="#263238" stroke="#263238" stroke-linecap="round" stroke-linejoin="round" stroke-width="1" d="M167.12,289.089a28.149,28.149,0,0,0-9.526-.525,18.022,18.022,0,0,0-15.556,12.723c-1.41,5.517,3.534,19.508,14.5,28.839s22.281,11.421,37.494,16.538c13.479,4.511,27.625,9.822,26.673,9.525a13.267,13.267,0,0,1-3-8.68,14.069,14.069,0,0,1,4.22-8.851c-2.858-1.576-7.554-5.14-14.832-13.2-11.717-12.952-23.682-25.915-30.7-31.877" data-name="Path 70" transform="translate(-141.803 -75.145)"/><path id="Path_71" fill="none" stroke="#fff" stroke-linecap="round" stroke-linejoin="round" stroke-width="1" d="M173.993,293.816c-1.962-1.142-3.163-1.736-3.163-1.736" data-name="Path 71" transform="translate(-143.179 -74.619)"/><path id="Path_72" fill="none" stroke="#fff" stroke-linecap="round" stroke-linejoin="round" stroke-width="1" d="M210.92,324.763s-18.585-17.623-25.93-23.836a77.805,77.805,0,0,0-7.23-5.437" data-name="Path 72" transform="translate(-143.508 -74.134)"/><path id="Path_73" fill="#fff" d="M268.167,339.089c-4.6-1.279-4.954,0-15.918-.434s-22.986-5.083-22.986-5.083-1.029.183-3.563-1.222a14.069,14.069,0,0,0-4.22,8.851,13.267,13.267,0,0,0,3,8.68,53.961,53.961,0,0,0,5.487,1.5c7.783,1.7,17.328,5.939,22.281,8.486a26.685,26.685,0,0,0,12.736,3.426c3.887,0,2.372.7,5.211-.16s1.858-3.232,1.858-3.232a10.667,10.667,0,0,0,3.544-.845c2.115-.857,1.41-4.249,1.41-4.249a9.033,9.033,0,0,0,4.077-.788c2.162-1.359,2.162-4.215,1.229-6.853C280.9,343.166,272.768,340.356,268.167,339.089Z" data-name="Path 73" transform="translate(-145.58 -68.895)"/><g id="Group_9" clip-path="url(#clip-path-6)" data-name="Group 9" transform="translate(75.9 263.455)"><path id="Path_74" fill="#92e3a9" d="M270.3,361.069a2.371,2.371,0,0,0,2.02-2.433,19,19,0,0,1-3.029.32c-5.62,0-12.1-5.711-22.91-7.778-5.916-1.142-15.327-3.038-22.634-4.569.276.434.553.845.838,1.222a53.939,53.939,0,0,0,5.487,1.5c7.783,1.7,17.328,5.939,22.281,8.486a26.685,26.685,0,0,0,12.736,3.426C268.979,361.229,267.465,361.9,270.3,361.069Z" data-name="Path 74" transform="translate(-221.587 -330.323)"/><path id="Path_75" fill="#fff" d="M270.3,361.069a2.371,2.371,0,0,0,2.02-2.433,19,19,0,0,1-3.029.32c-5.62,0-12.1-5.711-22.91-7.778-5.916-1.142-15.327-3.038-22.634-4.569.276.434.553.845.838,1.222a53.939,53.939,0,0,0,5.487,1.5c7.783,1.7,17.328,5.939,22.281,8.486a26.685,26.685,0,0,0,12.736,3.426C268.979,361.229,267.465,361.9,270.3,361.069Z" data-name="Path 75" opacity=".6" transform="translate(-221.587 -330.323)"/></g><path id="Path_77" fill="none" stroke="#263238" stroke-linecap="round" stroke-linejoin="round" stroke-width="1" d="M268.167,339.089c-4.6-1.279-4.954,0-15.918-.434s-22.986-5.083-22.986-5.083-1.029.183-3.563-1.222a14.069,14.069,0,0,0-4.22,8.851,13.267,13.267,0,0,0,3,8.68,53.961,53.961,0,0,0,5.487,1.5c7.783,1.7,17.328,5.939,22.281,8.486a26.685,26.685,0,0,0,12.736,3.426c3.887,0,2.372.7,5.211-.16s1.858-3.232,1.858-3.232a10.667,10.667,0,0,0,3.544-.845c2.115-.857,1.41-4.249,1.41-4.249a9.033,9.033,0,0,0,4.077-.788c2.162-1.359,2.162-4.215,1.229-6.853C280.9,343.166,272.768,340.356,268.167,339.089Z" data-name="Path 77" transform="translate(-145.58 -68.895)"/><path id="Path_78" fill="none" stroke="#263238" stroke-linecap="round" stroke-linejoin="round" stroke-width="1" d="M279.5,352.556a27.784,27.784,0,0,0-5.344-4.466" data-name="Path 78" transform="translate(-148.077 -66.658)"/><path id="Path_79" fill="none" stroke="#263238" stroke-linecap="round" stroke-linejoin="round" stroke-width="1" d="M274.377,356.967s-3.182-2.547-3.887-4.237" data-name="Path 79" transform="translate(-147.903 -65.999)"/><path id="Path_80" fill="none" stroke="#263238" stroke-linecap="round" stroke-linejoin="round" stroke-width="1" d="M269.22,359.469A8.911,8.911,0,0,1,266,355.7" data-name="Path 80" transform="translate(-147.69 -65.576)"/><path id="Path_81" fill="none" stroke="#263238" stroke-linecap="round" stroke-linejoin="round" stroke-width="1" d="M264.709,359.78a7.3,7.3,0,0,1-4.249-2.97" data-name="Path 81" transform="translate(-147.427 -65.419)"/><path id="Path_82" fill="#fff" d="M260.693,124.091s-6.725,7.412-6.182,15.476-1.619,12.563-.81,18.388,1.905,17.132,3.81,20,2.153,6.133,4.039,7.744,8.345,1.61,9.688-.971,15.6-12.563,16.68-16.127.81-4.511.81-4.511,9.412-6.773,8.068-12.563-5.115-8.063-7.268-6.122-2.42,2.9-2.42,2.9-5.63-4.443-4.553-8.635,4.439-5.631,3.363-10.473-9.126-2.421-17.69-1.633C261.474,128.157,263.694,121.122,260.693,124.091Z" data-name="Path 82" transform="translate(-147.098 -98.599)"/><g id="Group_10" clip-path="url(#clip-path-7)" data-name="Group 10" transform="translate(106.419 24.758)"><path id="Path_83" fill="#92e3a9" d="M297.39,151.944c-1.343-5.8-5.115-8.063-7.268-6.122s-2.42,2.9-2.42,2.9-5.63-4.443-4.553-8.635,4.439-5.631,3.363-10.473-6.382-10.074-14.946-9.286a39.821,39.821,0,0,0-4.515.605c3.572-.343,9.745-.32,12.974,3.221,4.763,5.185.4,10.371-.781,15.567s1.572,12.255.781,17.44-4.715,8.954-4.715,15.556.391,8.966-4.763,13.2l-1.01.868a3.759,3.759,0,0,0,2.258-1.622c1.343-2.581,15.6-12.563,16.68-16.127s.81-4.511.81-4.511S298.733,157.757,297.39,151.944Z" data-name="Path 83" transform="translate(-254.159 -123.799)"/><path id="Path_84" fill="#fff" d="M297.39,151.944c-1.343-5.8-5.115-8.063-7.268-6.122s-2.42,2.9-2.42,2.9-5.63-4.443-4.553-8.635,4.439-5.631,3.363-10.473-6.382-10.074-14.946-9.286a39.821,39.821,0,0,0-4.515.605c3.572-.343,9.745-.32,12.974,3.221,4.763,5.185.4,10.371-.781,15.567s1.572,12.255.781,17.44-4.715,8.954-4.715,15.556.391,8.966-4.763,13.2l-1.01.868a3.759,3.759,0,0,0,2.258-1.622c1.343-2.581,15.6-12.563,16.68-16.127s.81-4.511.81-4.511S298.733,157.757,297.39,151.944Z" data-name="Path 84" opacity=".6" transform="translate(-254.159 -123.799)"/></g><path id="Path_86" fill="none" stroke="#263238" stroke-linecap="round" stroke-linejoin="round" stroke-width="1" d="M260.693,124.091s-6.725,7.412-6.182,15.476-1.619,12.563-.81,18.388,1.905,17.132,3.81,20,2.153,6.133,4.039,7.744,8.345,1.61,9.688-.971,15.6-12.563,16.68-16.127.81-4.511.81-4.511,9.412-6.773,8.068-12.563-5.115-8.063-7.268-6.122-2.42,2.9-2.42,2.9-5.63-4.443-4.553-8.635,4.439-5.631,3.363-10.473-9.126-2.421-17.69-1.633C261.474,128.157,263.694,121.122,260.693,124.091Z" data-name="Path 86" transform="translate(-147.098 -98.599)"/><path id="Path_87" fill="none" stroke="#263238" stroke-linecap="round" stroke-linejoin="round" stroke-width="1" d="M268,148.87s2.944,4.831,7.773,0" data-name="Path 87" transform="translate(-147.785 -94.973)"/><path id="Path_88" fill="none" stroke="#263238" stroke-linecap="round" stroke-linejoin="round" stroke-width="1" d="M255.4,148.28a2.762,2.762,0,0,0,2.09,1.342,2.616,2.616,0,0,0,2.216-1.011" data-name="Path 88" transform="translate(-147.188 -95.057)"/><path id="Path_89" fill="none" stroke="#263238" stroke-linecap="round" stroke-linejoin="round" stroke-width="1" d="M265.085,163.532c-2.153.651-5.106-.32-5.382-1.291s1.353-13.557,1.353-13.557l-1.905-3.872s-1.619-2.9-3.81-.959" data-name="Path 89" transform="translate(-147.185 -95.781)"/><line id="Line_1" x2="6.363" y1=".034" fill="none" stroke="#263238" stroke-linecap="round" stroke-linejoin="round" stroke-width="1" data-name="Line 1" transform="translate(113.061 73.519)"/><path id="Path_90" fill="none" stroke="#263238" stroke-linecap="round" stroke-linejoin="round" stroke-width="1" d="M277.4,144.6a10,10,0,0,0-12.108-.32" data-name="Path 90" transform="translate(-147.656 -95.893)"/><path id="Path_91" fill="none" stroke="#263238" stroke-linecap="round" stroke-linejoin="round" stroke-width="1" d="M296.4,149.327s-1.124-3.495-3.372-2.421-2.7,4.569-2.7,4.569,1.8-.811,1.8,1.885-2.019,1.61-2.019,1.61" data-name="Path 91" transform="translate(-148.833 -95.281)"/></g></svg>