<svg xmlns="http://www.w3.org/2000/svg" id="Chakras-bro_1_" width="337.497" height="369.399" data-name="Chakras-bro (1)" viewBox="0 0 337.497 369.399"><g id="freepik--background-simple--inject-2" transform="translate(0 0)"><path id="Path_349" fill="#92e3a9" d="M381.063,209.125a193.421,193.421,0,0,0-2.276-46.845,157.792,157.792,0,0,0-12.919-40.065C335.27,58.327,262.7,17.35,192.18,31.559,153.274,39.4,105.632,66.635,93.3,106.831c-8.72,28.427-5.038,59.534-18.9,86.531C60.143,221.174,45.687,245.8,49.468,278.579c4.035,35.109,27.811,65.747,57.43,85.027,36.769,23.907,85.266,37.163,129.028,34.1C321.948,391.672,375.5,293.627,381.063,209.125Z" data-name="Path 349" transform="translate(-48.858 -28.742)"/><path id="Path_350" fill="#fff" d="M381.063,209.125a193.421,193.421,0,0,0-2.276-46.845,157.792,157.792,0,0,0-12.919-40.065C335.27,58.327,262.7,17.35,192.18,31.559,153.274,39.4,105.632,66.635,93.3,106.831c-8.72,28.427-5.038,59.534-18.9,86.531C60.143,221.174,45.687,245.8,49.468,278.579c4.035,35.109,27.811,65.747,57.43,85.027,36.769,23.907,85.266,37.163,129.028,34.1C321.948,391.672,375.5,293.627,381.063,209.125Z" data-name="Path 350" opacity=".8" transform="translate(-48.858 -28.742)"/></g><g id="freepik--Shadow--inject-2" transform="translate(99.559 337.987)"><ellipse id="Ellipse_12" cx="69.445" cy="8.629" fill="#92e3a9" data-name="Ellipse 12" rx="69.445" ry="8.629"/></g><g id="freepik--Stars--inject-2" transform="translate(47.611 69.6)"><path id="Path_351" fill="#92e3a9" d="M432.532,117.646c-3.287.493-3.723.9-4.216,4.216-.493-3.287-.9-3.723-4.216-4.216,3.287-.493,3.723-.9,4.216-4.216C428.809,116.75,429.212,117.186,432.532,117.646Z" data-name="Path 351" transform="translate(-163.323 -113.43)"/><path id="Path_352" fill="#92e3a9" d="M376.6,387.575c-3.542.526-3.969.953-4.5,4.487-.526-3.534-.953-3.961-4.5-4.487,3.542-.526,3.969-.953,4.5-4.5C372.631,386.622,373.059,387.049,376.6,387.575Z" data-name="Path 352" transform="translate(-153.258 -161.472)"/><path id="Path_353" fill="#92e3a9" d="M115.781,371.525c-3.542.526-3.969.953-4.5,4.487-.526-3.534-.953-3.961-4.5-4.487,3.542-.526,3.969-.953,4.5-4.5C111.811,370.572,112.239,371,115.781,371.525Z" data-name="Path 353" transform="translate(-106.79 -158.612)"/></g><g id="freepik--Chakras--inject-2" transform="translate(3.684 18.456)"><path id="Path_354" fill="none" stroke="#92e3a9" stroke-linecap="round" stroke-linejoin="round" stroke-width="2" d="M269.252,153.387c.625-3.139,1.586-14.6-14.579-24.655,0,0-6.525-7.183-6.525-11.752,0,2.466-3.09,6.8-4.537,8.835-2.137,3.024-4.841,4.758-7.651,7.043-5.293,4.3-9.722,11.8-7.4,18.738" data-name="Path 354" transform="translate(-84.446 -62.919)"/><path id="Path_355" fill="none" stroke="#92e3a9" stroke-linecap="round" stroke-linejoin="round" stroke-width="2" d="M218.277,157.047c-1.027-3.033-5.925-13.437-24.935-14.045,0,0-9.254-2.959-11.506-6.912,1.233,2.129.723,7.4.493,9.911-.337,3.69-1.816,6.575-3.107,9.92-2.466,6.377-2.515,15.089,2.95,19.938" data-name="Path 355" transform="translate(-75.483 -66.323)"/><path id="Path_356" fill="none" stroke="#92e3a9" stroke-linecap="round" stroke-linejoin="round" stroke-width="2" d="M173.88,186.488c-2.408-2.112-11.851-8.679-28.625.3,0,0-9.484,2.063-13.445-.222,2.137,1.233,4.339,6.073,5.383,8.342,1.553,3.37,1.709,6.575,2.276,10.141,1.077,6.747,5.358,14.325,12.525,15.8" data-name="Path 356" transform="translate(-67.321 -74.537)"/><path id="Path_357" fill="none" stroke="#92e3a9" stroke-linecap="round" stroke-linejoin="round" stroke-width="2" d="M149.807,231.78c-3.148-.625-14.6-1.586-24.655,14.579,0,0-7.183,6.525-11.752,6.525,2.466,0,6.788,3.09,8.827,4.537,3.033,2.137,4.767,4.841,7.043,7.651,4.306,5.293,11.8,9.722,18.738,7.4" data-name="Path 357" transform="translate(-64.041 -83.322)"/><path id="Path_358" fill="none" stroke="#92e3a9" stroke-linecap="round" stroke-linejoin="round" stroke-width="2" d="M153.455,283c-3.033,1.027-13.445,5.925-14.045,24.935,0,0-2.959,9.254-6.92,11.506,2.137-1.233,7.4-.723,9.911-.493,3.7.337,6.575,1.816,9.928,3.107,6.377,2.466,15.081,2.515,19.938-2.95" data-name="Path 358" transform="translate(-67.442 -92.497)"/><path id="Path_359" fill="none" stroke="#92e3a9" stroke-linecap="round" stroke-linejoin="round" stroke-width="2" d="M182.908,327.07c-2.12,2.408-8.679,11.851.3,28.616,0,0,2.063,9.492-.222,13.453,1.233-2.137,6.073-4.339,8.333-5.391,3.37-1.545,6.575-1.7,10.15-2.268,6.739-1.077,14.325-5.358,15.787-12.525" data-name="Path 359" transform="translate(-75.659 -100.349)"/><path id="Path_360" fill="none" stroke="#92e3a9" stroke-linecap="round" stroke-linejoin="round" stroke-width="2" d="M228.2,352.35c-.633,3.148-1.594,14.6,14.571,24.655,0,0,6.534,7.183,6.534,11.752,0-2.466,3.09-6.788,4.528-8.827,2.137-3.033,4.849-4.767,7.651-7.043,5.3-4.306,9.722-11.8,7.4-18.738" data-name="Path 360" transform="translate(-84.444 -104.853)"/><path id="Path_361" fill="none" stroke="#92e3a9" stroke-linecap="round" stroke-linejoin="round" stroke-width="2" d="M279.37,347.922c1.027,3.033,5.925,13.445,24.943,14.045,0,0,9.246,2.959,11.506,6.92-1.233-2.137-.715-7.4-.493-9.911.345-3.7,1.816-6.575,3.107-9.928,2.466-6.378,2.523-15.081-2.95-19.938" data-name="Path 361" transform="translate(-93.611 -100.712)"/><path id="Path_362" fill="none" stroke="#92e3a9" stroke-linecap="round" stroke-linejoin="round" stroke-width="2" d="M323.48,318.763c2.408,2.12,11.851,8.679,28.625-.3,0,0,9.484-2.063,13.445.222-2.137-1.233-4.339-6.073-5.383-8.333-1.553-3.37-1.7-6.575-2.276-10.15-1.077-6.739-5.358-14.325-12.517-15.787" data-name="Path 362" transform="translate(-101.469 -92.748)"/><path id="Path_363" fill="none" stroke="#92e3a9" stroke-linecap="round" stroke-linejoin="round" stroke-width="2" d="M348.77,272.833c3.139.633,14.6,1.594,24.655-14.571,0,0,7.183-6.534,11.752-6.534-2.466,0-6.8-3.09-8.835-4.528-3.024-2.145-4.758-4.849-7.043-7.651-4.3-5.3-11.8-9.722-18.738-7.4" data-name="Path 363" transform="translate(-105.975 -83.325)"/><path id="Path_364" fill="none" stroke="#92e3a9" stroke-linecap="round" stroke-linejoin="round" stroke-width="2" d="M344.374,221.864c3.041-1.027,13.445-5.925,14.053-24.943,0,0,2.959-9.246,6.912-11.506-2.129,1.233-7.4.715-9.911.493-3.69-.345-6.575-1.816-9.92-3.107-6.378-2.465-15.089-2.523-19.938,2.95" data-name="Path 364" transform="translate(-101.842 -74.36)"/><path id="Path_365" fill="none" stroke="#92e3a9" stroke-linecap="round" stroke-linejoin="round" stroke-width="2" d="M315.181,177.45c2.112-2.408,8.679-11.851-.3-28.625,0,0-2.063-9.484.222-13.445-1.233,2.137-6.073,4.339-8.342,5.383-3.37,1.553-6.575,1.7-10.141,2.277-6.747,1.077-14.325,5.358-15.8,12.517" data-name="Path 365" transform="translate(-93.869 -66.197)"/><circle id="Ellipse_25" cx="81.682" cy="81.682" r="81.682" fill="none" stroke="#92e3a9" stroke-linecap="round" stroke-linejoin="round" stroke-width="2" data-name="Ellipse 25" transform="translate(82.594 87.305)"/><circle id="Ellipse_26" cx="20.694" cy="20.694" r="20.694" fill="#92e3a9" data-name="Ellipse 26" transform="matrix(0.974, -0.227, 0.227, 0.974, 0, 157.029)"/><path id="Path_366" fill="none" stroke="#263238" stroke-linecap="round" stroke-linejoin="round" stroke-width="1" d="M95.361,250.954a11.11,11.11,0,0,0-2.531-.288,21.369,21.369,0,0,0,3.55,1.249l.205.049a.066.066,0,0,1,.049.074l-.452,2.046a21,21,0,0,0-.46,3.189,7.808,7.808,0,0,0,1.644-3.123,9.632,9.632,0,0,0,1.241,2.663,28.461,28.461,0,0,1,.575-3.978l.575-2.6a.074.074,0,0,0-.058-.1l-.263-.066a26.981,26.981,0,0,1-6-2.285,7.5,7.5,0,0,0,1.923,3.164Z" data-name="Path 366" transform="translate(-60.376 -86.224)"/><path id="Path_367" fill="none" stroke="#263238" stroke-linecap="round" stroke-linejoin="round" stroke-width="1" d="M80.294,244.789a13.857,13.857,0,0,0-1.282,1.644,21.1,21.1,0,0,0,3.057-2.942l.082-.09a.058.058,0,0,1,.1,0,21.368,21.368,0,0,0,3.222,3.107,11.374,11.374,0,0,0-1.405-1.866,7.249,7.249,0,0,0,3.8.058,26.734,26.734,0,0,1-5.6-5.046h0a.074.074,0,0,0-.123,0l-.107.123a26.865,26.865,0,0,1-5.646,5.087,7.027,7.027,0,0,0,3.9-.074Z" data-name="Path 367" transform="translate(-57.447 -84.768)"/><path id="Path_368" fill="none" stroke="#263238" stroke-linecap="round" stroke-linejoin="round" stroke-width="1" d="M89.152,259.658l.378-.132v-.14a7.8,7.8,0,0,0-3.517-6.525c-.205.164-.411.337-.633.534.058-.3.107-.567.148-.822a7.783,7.783,0,0,0-7.627,0c.049.3.107.616.173.962-.263-.23-.5-.427-.731-.616A7.808,7.808,0,0,0,73.89,259.4v.3l.625.222-.534.214a7.816,7.816,0,0,0,4.191,6.2c.058-.049.115-.09.173-.148a.4.4,0,0,1-.041.214,7.766,7.766,0,0,0,7.4-.238v-.1l.074.066a7.8,7.8,0,0,0,3.83-6.328Z" data-name="Path 368" transform="translate(-57.002 -86.898)"/><path id="Path_369" fill="none" stroke="#263238" stroke-linecap="round" stroke-linejoin="round" stroke-width="1" d="M66.746,257.355a8.489,8.489,0,0,0,1.463-2.942,8.949,8.949,0,0,0,1.372,2.827,19.626,19.626,0,0,0-.452-3.148l-.436-2.014a.066.066,0,0,1,.049-.074l.288-.074a21.163,21.163,0,0,0,3.238-1.1,12.452,12.452,0,0,0-2.268.288,7.183,7.183,0,0,0,1.964-3.287,26.768,26.768,0,0,1-5.958,2.268l-.37.09a.082.082,0,0,0-.058.1l.575,2.6a27.942,27.942,0,0,1,.592,4.471Z" data-name="Path 369" transform="translate(-55.521 -86.231)"/><path id="Path_370" fill="none" stroke="#263238" stroke-linecap="round" stroke-linejoin="round" stroke-width="1" d="M70.223,270.147a7.906,7.906,0,0,0,3.476.156,21.441,21.441,0,0,0-4.7-1.767l-.255-.058a.066.066,0,0,1-.049-.074l.518-2.466c.115-.551.2-1.1.263-1.644a9.8,9.8,0,0,0-1.249,2.671,8.07,8.07,0,0,0-1.537-3.016,25.743,25.743,0,0,1-.46,3.164l-.649,3.139a.082.082,0,0,0,.058.1l.329.082a26.912,26.912,0,0,1,5.983,2.252,9.041,9.041,0,0,0-1.726-2.54Z" data-name="Path 370" transform="translate(-55.521 -89.103)"/><path id="Path_371" fill="none" stroke="#263238" stroke-linecap="round" stroke-linejoin="round" stroke-width="1" d="M98.45,263.923a9.508,9.508,0,0,0-1.282,2.712,8.021,8.021,0,0,0-1.586-3.065,21.9,21.9,0,0,0,.345,2.3l.518,2.466a.066.066,0,0,1-.049.074l-.255.058a21.311,21.311,0,0,0-4.38,1.644A7.569,7.569,0,0,0,95.393,270a9.862,9.862,0,0,0-1.644,2.367,26.965,26.965,0,0,1,5.449-1.972l.329-.082a.074.074,0,0,0,.058-.1l-.649-3.139A28.453,28.453,0,0,1,98.45,263.923Z" data-name="Path 371" transform="translate(-60.186 -89.035)"/><path id="Path_372" fill="none" stroke="#263238" stroke-linecap="round" stroke-linejoin="round" stroke-width="1" d="M84.484,276.563a7.726,7.726,0,0,0,1.9-3.033,21.813,21.813,0,0,0-3.411,2.992l-.567.616a.066.066,0,0,1-.09,0l-.567-.616a21.553,21.553,0,0,0-2.844-2.564,8.44,8.44,0,0,0,1.808,2.729,8.563,8.563,0,0,0-3.222-.205A26.646,26.646,0,0,1,81.6,280.1l.715.822a.09.09,0,0,0,.123,0l.715-.822a26.9,26.9,0,0,1,4.315-3.78A9.493,9.493,0,0,0,84.484,276.563Z" data-name="Path 372" transform="translate(-57.643 -90.81)"/><path id="Path_373" fill="none" stroke="#263238" stroke-linecap="round" stroke-linejoin="round" stroke-width="1" d="M77.894,245.493c-2.087,2.375-2.392,3.5-1.767,6.575-2.375-2.087-3.493-2.392-6.575-1.767,2.1-2.375,2.392-3.493,1.767-6.575C73.67,245.822,74.8,246.118,77.894,245.493ZM62.92,258.486c3,1.011,3.822,1.833,4.832,4.832.986-2.959,1.808-3.78,4.832-4.832-3-1.011-3.822-1.833-4.832-4.832C66.742,256.654,65.92,257.475,62.92,258.486Zm8.6,14.629c2.375-2.087,3.493-2.392,6.575-1.767-2.087-2.375-2.392-3.493-1.767-6.575-2.375,2.1-3.5,2.392-6.575,1.767C71.837,268.891,72.141,270.017,71.516,273.115Zm16.946-.123c-.625-3.107-.321-4.224,1.767-6.575-3.107.625-4.224.321-6.575-1.767.625,3.1.321,4.224-1.767,6.575C84.986,270.6,86.112,270.9,88.463,272.992ZM96.837,258.2c-3-1.011-3.822-1.833-4.832-4.832-1.011,3-1.833,3.822-4.832,4.832,3,1.011,3.822,1.833,4.832,4.832,1.035-2.967,1.857-3.789,4.857-4.8Zm-8.6-14.629c-2.375,2.087-3.493,2.392-6.575,1.767,2.087,2.375,2.392,3.493,1.767,6.575,2.375-2.1,3.5-2.392,6.575-1.767-2.063-2.318-2.367-3.443-1.742-6.542Z" data-name="Path 373" transform="translate(-55.047 -85.472)"/><circle id="Ellipse_27" cx="20.694" cy="20.694" r="20.694" fill="#92e3a9" data-name="Ellipse 27" transform="translate(14.168 86.631)"/><circle id="Ellipse_28" cx="7.898" cy="7.898" r="7.898" fill="none" stroke="#263238" stroke-linecap="round" stroke-linejoin="round" stroke-width="1" data-name="Ellipse 28" transform="matrix(0.716, -0.698, 0.698, 0.716, 23.728, 107.169)"/><path id="Path_374" fill="none" stroke="#263238" stroke-linecap="round" stroke-linejoin="round" stroke-width="1" d="M94.4,188.861l6.468-11.711H87.93Z" data-name="Path 374" transform="translate(-59.503 -73.639)"/><path id="Path_375" fill="none" stroke="#263238" stroke-linecap="round" stroke-linejoin="round" stroke-width="1" d="M86.905,174.63s-3.9-1.3-7.24,4.109c0,0-2.046,1.857-3.345,1.857a6.444,6.444,0,0,1,2.515,1.29,10.479,10.479,0,0,1,2,2.178c1.225,1.5,3.361,2.77,5.334,2.112" data-name="Path 375" transform="translate(-57.435 -73.165)"/><path id="Path_376" fill="none" stroke="#263238" stroke-linecap="round" stroke-linejoin="round" stroke-width="1" d="M102.31,174.63s3.9-1.3,7.249,4.109c0,0,2.038,1.857,3.337,1.857a5.944,5.944,0,0,0-2.466,1.29,10.3,10.3,0,0,0-2.005,2.178c-1.225,1.5-3.361,2.77-5.334,2.112" data-name="Path 376" transform="translate(-62.065 -73.165)"/><circle id="Ellipse_29" cx="20.694" cy="20.694" r="20.694" fill="#92e3a9" data-name="Ellipse 29" transform="translate(62.837 28.979)"/><path id="Path_377" fill="none" stroke="#263238" stroke-linecap="round" stroke-linejoin="round" stroke-width="1" d="M157.212,97.261c.09-.436.222-2.03-2.022-3.427,0,0-.912-.994-.912-1.644a3.1,3.1,0,0,1-.633,1.233,5.21,5.21,0,0,1-1.06.978,2.531,2.531,0,0,0-1.027,2.605" data-name="Path 377" transform="translate(-70.829 -58.502)"/><path id="Path_378" fill="none" stroke="#263238" stroke-linecap="round" stroke-linejoin="round" stroke-width="1" d="M150.12,97.768c-.148-.419-.822-1.866-3.468-1.956,0,0-1.29-.411-1.6-.962a3.238,3.238,0,0,1,.066,1.381,5.005,5.005,0,0,1-.436,1.381,2.556,2.556,0,0,0,.411,2.77" data-name="Path 378" transform="translate(-69.572 -58.976)"/><path id="Path_379" fill="none" stroke="#263238" stroke-linecap="round" stroke-linejoin="round" stroke-width="1" d="M143.943,101.87c-.329-.3-1.644-1.208-3.978.041a3.682,3.682,0,0,1-1.866,0,3.074,3.074,0,0,1,.748,1.159,4.84,4.84,0,0,1,.312,1.405,2.564,2.564,0,0,0,1.742,2.194" data-name="Path 379" transform="translate(-68.442 -60.12)"/><path id="Path_380" fill="none" stroke="#263238" stroke-linecap="round" stroke-linejoin="round" stroke-width="1" d="M140.6,108.161c-.436-.09-2.03-.222-3.427,2.022,0,0-.994.912-1.644.912a3.189,3.189,0,0,1,1.233.625,5.046,5.046,0,0,1,.978,1.068,2.556,2.556,0,0,0,2.605,1.027" data-name="Path 380" transform="translate(-67.984 -61.34)"/><path id="Path_381" fill="none" stroke="#263238" stroke-linecap="round" stroke-linejoin="round" stroke-width="1" d="M141.109,115.27c-.419.14-1.866.822-1.948,3.468a3.968,3.968,0,0,1-.962,1.644,3.066,3.066,0,0,1,1.372-.066,4.734,4.734,0,0,1,1.381.427,2.539,2.539,0,0,0,2.77-.411" data-name="Path 381" transform="translate(-68.459 -62.614)"/><path id="Path_382" fill="none" stroke="#263238" stroke-linecap="round" stroke-linejoin="round" stroke-width="1" d="M145.2,121.4c-.3.337-1.208,1.644,0,3.978a3.715,3.715,0,0,1,0,1.874,2.975,2.975,0,0,1,1.159-.748,5.2,5.2,0,0,1,1.405-.321,2.531,2.531,0,0,0,2.194-1.734" data-name="Path 382" transform="translate(-69.598 -63.706)"/><path id="Path_383" fill="none" stroke="#263238" stroke-linecap="round" stroke-linejoin="round" stroke-width="1" d="M151.5,124.92c-.09.436-.222,2.03,2.022,3.427,0,0,.912.994.912,1.644a3.156,3.156,0,0,1,.625-1.225,5.03,5.03,0,0,1,1.068-.978,2.564,2.564,0,0,0,1.027-2.605" data-name="Path 383" transform="translate(-70.822 -64.333)"/><path id="Path_384" fill="none" stroke="#263238" stroke-linecap="round" stroke-linejoin="round" stroke-width="1" d="M158.61,124.3c.148.427.822,1.874,3.468,1.956,0,0,1.29.411,1.6.962a3.107,3.107,0,0,1-.066-1.381,5.491,5.491,0,0,1,.427-1.381,2.531,2.531,0,0,0-.411-2.77" data-name="Path 384" transform="translate(-72.096 -63.758)"/><path id="Path_385" fill="none" stroke="#263238" stroke-linecap="round" stroke-linejoin="round" stroke-width="1" d="M164.74,120.247c.337.3,1.644,1.208,3.986,0a3.608,3.608,0,0,1,1.866,0,3.205,3.205,0,0,1-.748-1.159,5.193,5.193,0,0,1-.321-1.414,2.539,2.539,0,0,0-1.734-2.194" data-name="Path 385" transform="translate(-73.188 -62.651)"/><path id="Path_386" fill="none" stroke="#263238" stroke-linecap="round" stroke-linejoin="round" stroke-width="1" d="M168.26,113.872c.436.09,2.03.222,3.427-2.03,0,0,.994-.9,1.644-.9a3.124,3.124,0,0,1-1.225-.633,4.989,4.989,0,0,1-.978-1.06,2.531,2.531,0,0,0-2.605-1.027" data-name="Path 386" transform="translate(-73.815 -61.347)"/><path id="Path_387" fill="none" stroke="#263238" stroke-linecap="round" stroke-linejoin="round" stroke-width="1" d="M167.652,106.764c.419-.14,1.866-.822,1.948-3.46a3.919,3.919,0,0,1,.962-1.644,3.1,3.1,0,0,1-1.381.074,5.046,5.046,0,0,1-1.372-.436,2.572,2.572,0,0,0-2.778.411" data-name="Path 387" transform="translate(-73.24 -60.083)"/><path id="Path_388" fill="none" stroke="#263238" stroke-linecap="round" stroke-linejoin="round" stroke-width="1" d="M163.586,100.6c.288-.329,1.2-1.644-.049-3.978a3.706,3.706,0,0,1,0-1.866,3.205,3.205,0,0,1-1.159.748,4.931,4.931,0,0,1-1.414.312,2.548,2.548,0,0,0-2.194,1.742" data-name="Path 388" transform="translate(-72.124 -58.96)"/><circle id="Ellipse_30" cx="10.93" cy="10.93" r="10.93" fill="none" stroke="#263238" stroke-linecap="round" stroke-linejoin="round" stroke-width="1" data-name="Ellipse 30" transform="translate(72.601 38.742)"/><circle id="Ellipse_31" cx="5.054" cy="5.054" r="5.054" fill="none" stroke="#263238" stroke-linecap="round" stroke-linejoin="round" stroke-width="1" data-name="Ellipse 31" transform="translate(78.477 44.619)"/><path id="Path_389" fill="none" stroke="#263238" stroke-linecap="round" stroke-linejoin="round" stroke-width="1" d="M153.04,121.417l8.95-16.207h-17.9Z" data-name="Path 389" transform="translate(-69.509 -60.822)"/><circle id="Ellipse_32" cx="20.694" cy="20.694" r="20.694" fill="#92e3a9" data-name="Ellipse 32" transform="translate(221.657 28.963)"/><circle id="Ellipse_33" cx="10.93" cy="10.93" r="10.93" fill="none" stroke="#263238" stroke-linecap="round" stroke-linejoin="round" stroke-width="1" data-name="Ellipse 33" transform="translate(231.421 38.726)"/><path id="Path_390" fill="none" stroke="#263238" stroke-linecap="round" stroke-linejoin="round" stroke-width="1" d="M347.815,97.09c-.148-.822-.822-2.523-3.756-3.419,0,0-1.512-.97-1.734-1.792a4.281,4.281,0,0,1-.386,1.8,6.573,6.573,0,0,1-1.036,1.644,3.409,3.409,0,0,0-.427,3.715" data-name="Path 390" transform="translate(-104.428 -58.447)"/><path id="Path_391" fill="none" stroke="#263238" stroke-linecap="round" stroke-linejoin="round" stroke-width="1" d="M341.041,99.007c-.534-.633-1.972-1.783-4.931-1.085a4.859,4.859,0,0,1-2.4-.682,4.232,4.232,0,0,1,.567,1.751,6.929,6.929,0,0,1-.082,1.931,3.392,3.392,0,0,0,1.488,3.427" data-name="Path 391" transform="translate(-103.292 -59.402)"/><path id="Path_392" fill="none" stroke="#263238" stroke-linecap="round" stroke-linejoin="round" stroke-width="1" d="M335.687,103.789c-.781-.279-2.589-.559-4.832,1.545a4.943,4.943,0,0,1-2.424.608c.444.115,1.068.879,1.364,1.233a6.409,6.409,0,0,1,.9,1.709,3.39,3.39,0,0,0,3,2.227" data-name="Path 392" transform="translate(-102.351 -60.534)"/><path id="Path_393" fill="none" stroke="#263238" stroke-linecap="round" stroke-linejoin="round" stroke-width="1" d="M333.71,110.36c-.822.14-2.531.822-3.419,3.756,0,0-.97,1.512-1.792,1.734a4.282,4.282,0,0,1,1.8.386,6.747,6.747,0,0,1,1.644,1.035,3.407,3.407,0,0,0,3.715.427" data-name="Path 393" transform="translate(-102.364 -61.739)"/><path id="Path_394" fill="none" stroke="#263238" stroke-linecap="round" stroke-linejoin="round" stroke-width="1" d="M335.617,117.22c-.633.534-1.783,1.964-1.077,4.931a4.894,4.894,0,0,1-.69,2.4,4.307,4.307,0,0,1,1.759-.567,6.854,6.854,0,0,1,1.923.082,3.4,3.4,0,0,0,3.435-1.488" data-name="Path 394" transform="translate(-103.317 -62.961)"/><path id="Path_395" fill="none" stroke="#263238" stroke-linecap="round" stroke-linejoin="round" stroke-width="1" d="M340.407,122.58c-.288.822-.567,2.6,1.545,4.841a4.871,4.871,0,0,1,.6,2.424c.123-.444.879-1.068,1.241-1.364a6.409,6.409,0,0,1,1.709-.9,3.4,3.4,0,0,0,2.227-3.008" data-name="Path 395" transform="translate(-104.45 -63.916)"/><path id="Path_396" fill="none" stroke="#263238" stroke-linecap="round" stroke-linejoin="round" stroke-width="1" d="M347,124.578c.148.822.822,2.523,3.764,3.419,0,0,1.512.97,1.734,1.792a4.044,4.044,0,0,1,.386-1.8,6.573,6.573,0,0,1,1.036-1.644,3.409,3.409,0,0,0,.427-3.715" data-name="Path 396" transform="translate(-105.66 -63.925)"/><path id="Path_397" fill="none" stroke="#263238" stroke-linecap="round" stroke-linejoin="round" stroke-width="1" d="M353.84,122.682c.534.641,1.964,1.783,4.931,1.085a4.859,4.859,0,0,1,2.4.682,4.109,4.109,0,0,1-.567-1.751,6.575,6.575,0,0,1,.082-1.923,3.4,3.4,0,0,0-1.488-3.435" data-name="Path 397" transform="translate(-106.878 -62.983)"/><path id="Path_398" fill="none" stroke="#263238" stroke-linecap="round" stroke-linejoin="round" stroke-width="1" d="M359.2,117.812c.781.288,2.6.567,4.841-1.545a5.066,5.066,0,0,1,2.466-.6c-.444-.123-1.077-.879-1.372-1.241a6.633,6.633,0,0,1-.888-1.709,3.4,3.4,0,0,0-3.008-2.227" data-name="Path 398" transform="translate(-107.833 -61.761)"/><path id="Path_399" fill="none" stroke="#263238" stroke-linecap="round" stroke-linejoin="round" stroke-width="1" d="M361.208,111.2c.822-.148,2.523-.822,3.419-3.764,0,0,.97-1.512,1.792-1.734a4.043,4.043,0,0,1-1.8-.386,6.64,6.64,0,0,1-1.644-1.036,3.405,3.405,0,0,0-3.715-.427" data-name="Path 399" transform="translate(-107.844 -60.511)"/><path id="Path_400" fill="none" stroke="#263238" stroke-linecap="round" stroke-linejoin="round" stroke-width="1" d="M359.3,104.411c.633-.534,1.783-1.964,1.085-4.931a4.859,4.859,0,0,1,.682-2.4,4.151,4.151,0,0,1-1.75.567,6.575,6.575,0,0,1-1.931-.082,3.392,3.392,0,0,0-3.427,1.488" data-name="Path 400" transform="translate(-106.9 -59.373)"/><path id="Path_401" fill="none" stroke="#263238" stroke-linecap="round" stroke-linejoin="round" stroke-width="1" d="M354.412,99.066c.279-.822.559-2.6-1.545-4.841a5.142,5.142,0,0,1-.608-2.466c-.115.444-.879,1.068-1.233,1.364a6.574,6.574,0,0,1-1.709.9,3.392,3.392,0,0,0-2.227,3.008" data-name="Path 401" transform="translate(-105.675 -58.425)"/><path id="Path_402" fill="none" stroke="#263238" stroke-linecap="round" stroke-linejoin="round" stroke-width="1" d="M346.29,121.4l8.958-16.207H337.34Z" data-name="Path 402" transform="translate(-103.939 -60.818)"/><circle id="Ellipse_34" cx="20.694" cy="20.694" r="20.694" fill="#92e3a9" data-name="Ellipse 34" transform="translate(138.348 38.134) rotate(-67.13)"/><path id="Path_403" fill="none" stroke="#263238" stroke-linecap="round" stroke-linejoin="round" stroke-width="1" d="M256.9,69.8c.09-.436.222-2.03-2.022-3.427,0,0-.912-.994-.912-1.644a3.1,3.1,0,0,1-.633,1.233,5.211,5.211,0,0,1-1.06.978,2.548,2.548,0,0,0-1.027,2.605" data-name="Path 403" transform="translate(-88.591 -53.61)"/><path id="Path_404" fill="none" stroke="#263238" stroke-linecap="round" stroke-linejoin="round" stroke-width="1" d="M249.77,70.309c-.148-.419-.822-1.866-3.468-1.948,0,0-1.29-.411-1.6-.962a3.189,3.189,0,0,1,.066,1.372,5,5,0,0,1-.436,1.381,2.572,2.572,0,0,0,.411,2.778" data-name="Path 404" transform="translate(-87.326 -54.085)"/><path id="Path_405" fill="none" stroke="#263238" stroke-linecap="round" stroke-linejoin="round" stroke-width="1" d="M243.633,74.4c-.329-.288-1.644-1.2-3.978.049a3.706,3.706,0,0,1-1.866,0,3.14,3.14,0,0,1,.748,1.159,4.931,4.931,0,0,1,.312,1.405,2.572,2.572,0,0,0,1.742,2.2" data-name="Path 405" transform="translate(-86.203 -55.227)"/><path id="Path_406" fill="none" stroke="#263238" stroke-linecap="round" stroke-linejoin="round" stroke-width="1" d="M240.291,80.7c-.436-.09-2.03-.222-3.427,2.022,0,0-.994.912-1.644.912a3.1,3.1,0,0,1,1.233.633,5.005,5.005,0,0,1,.978,1.06,2.539,2.539,0,0,0,2.605,1.027" data-name="Path 406" transform="translate(-85.745 -56.448)"/><path id="Path_407" fill="none" stroke="#263238" stroke-linecap="round" stroke-linejoin="round" stroke-width="1" d="M240.8,87.81c-.419.148-1.866.822-1.948,3.468a3.919,3.919,0,0,1-.962,1.644,3.065,3.065,0,0,1,1.372-.066,5.006,5.006,0,0,1,1.381.436,2.556,2.556,0,0,0,2.77-.411" data-name="Path 407" transform="translate(-86.221 -57.722)"/><path id="Path_408" fill="none" stroke="#263238" stroke-linecap="round" stroke-linejoin="round" stroke-width="1" d="M244.868,94c-.3.329-1.208,1.644,0,3.978a3.682,3.682,0,0,1,0,1.866,3.074,3.074,0,0,1,1.159-.748,4.931,4.931,0,0,1,1.405-.312,2.556,2.556,0,0,0,2.194-1.742" data-name="Path 408" transform="translate(-87.355 -58.824)"/><path id="Path_409" fill="none" stroke="#263238" stroke-linecap="round" stroke-linejoin="round" stroke-width="1" d="M251.191,97.46c-.09.436-.222,2.03,2.022,3.427,0,0,.912.994.912,1.644a3.189,3.189,0,0,1,.625-1.233,5.251,5.251,0,0,1,1.068-.978,2.564,2.564,0,0,0,1.027-2.605" data-name="Path 409" transform="translate(-88.583 -59.441)"/><path id="Path_410" fill="none" stroke="#263238" stroke-linecap="round" stroke-linejoin="round" stroke-width="1" d="M258.3,96.853c.148.419.822,1.866,3.468,1.948a3.919,3.919,0,0,1,1.644.962,3.065,3.065,0,0,1-.066-1.372,5.286,5.286,0,0,1,.427-1.381,2.523,2.523,0,0,0-.411-2.77" data-name="Path 410" transform="translate(-89.857 -58.867)"/><path id="Path_411" fill="none" stroke="#263238" stroke-linecap="round" stroke-linejoin="round" stroke-width="1" d="M264.43,92.791c.337.3,1.644,1.208,3.986,0a3.682,3.682,0,0,1,1.866,0,3.139,3.139,0,0,1-.748-1.159,5.2,5.2,0,0,1-.321-1.405A2.531,2.531,0,0,0,267.479,88" data-name="Path 411" transform="translate(-90.949 -57.755)"/><path id="Path_412" fill="none" stroke="#263238" stroke-linecap="round" stroke-linejoin="round" stroke-width="1" d="M268,86.413c.436.09,2.03.222,3.427-2.022,0,0,.994-.912,1.644-.912a3.213,3.213,0,0,1-1.225-.625,5.03,5.03,0,0,1-.978-1.068,2.564,2.564,0,0,0-2.605-1.027" data-name="Path 412" transform="translate(-91.585 -56.456)"/><path id="Path_413" fill="none" stroke="#263238" stroke-linecap="round" stroke-linejoin="round" stroke-width="1" d="M267.342,79.311c.419-.148,1.866-.822,1.948-3.468a3.919,3.919,0,0,1,.962-1.644,3.107,3.107,0,0,1-1.381.066,5.326,5.326,0,0,1-1.372-.427,2.539,2.539,0,0,0-2.778.411" data-name="Path 413" transform="translate(-91.001 -55.189)"/><path id="Path_414" fill="none" stroke="#263238" stroke-linecap="round" stroke-linejoin="round" stroke-width="1" d="M263.276,73.151c.288-.337,1.2-1.644-.049-3.986a3.607,3.607,0,0,1,0-1.866,3.205,3.205,0,0,1-1.159.748,4.931,4.931,0,0,1-1.414.312A2.564,2.564,0,0,0,258.46,70.1" data-name="Path 414" transform="translate(-89.885 -54.067)"/><circle id="Ellipse_35" cx="10.93" cy="10.93" r="10.93" fill="none" stroke="#263238" stroke-linecap="round" stroke-linejoin="round" stroke-width="1" data-name="Ellipse 35" transform="translate(154.529 16.175)"/><path id="Path_415" fill="none" stroke="#263238" stroke-linecap="round" stroke-linejoin="round" stroke-width="1" d="M252.73,93.7l8.95-16.207h-17.9Z" data-name="Path 415" transform="translate(-87.27 -55.883)"/><path id="Path_416" fill="none" stroke="#263238" stroke-linecap="round" stroke-linejoin="round" stroke-width="1" d="M252.73,71.09,243.78,87.3h17.9Z" data-name="Path 416" transform="translate(-87.27 -54.743)"/><circle id="Ellipse_36" cx="20.694" cy="20.694" r="20.694" fill="#92e3a9" data-name="Ellipse 36" transform="translate(268.537 117.157) rotate(-67.13)"/><circle id="Ellipse_37" cx="9.763" cy="9.763" r="9.763" fill="none" stroke="#263238" stroke-linecap="round" stroke-linejoin="round" stroke-width="1" data-name="Ellipse 37" transform="translate(285.876 96.279)"/><circle id="Ellipse_38" cx="8.087" cy="8.087" r="8.087" fill="none" stroke="#263238" stroke-linecap="round" stroke-linejoin="round" stroke-width="1" data-name="Ellipse 38" transform="matrix(0.229, -0.973, 0.973, 0.229, 285.934, 112.081)"/><circle id="Ellipse_39" cx="6.205" cy="6.205" r="6.205" fill="none" stroke="#263238" stroke-linecap="round" stroke-linejoin="round" stroke-width="1" data-name="Ellipse 39" transform="translate(288.178 108.951) rotate(-76.76)"/><path id="Path_417" fill="none" stroke="#263238" stroke-linecap="round" stroke-linejoin="round" stroke-width="1" d="M410.787,167.278c-.419-.912-1.718-2.72-5.441-2.868,0,0-2.071-.682-2.572-1.57a5.054,5.054,0,0,1,.09,2.227,8.143,8.143,0,0,1-.715,2.219c-.559,1.43-.592,3.378.625,4.479" data-name="Path 417" transform="translate(-115.419 -71.089)"/><path id="Path_418" fill="none" stroke="#263238" stroke-linecap="round" stroke-linejoin="round" stroke-width="1" d="M410.787,191.465c-.419.912-1.718,2.712-5.441,2.86,0,0-2.071.682-2.572,1.578a5.054,5.054,0,0,0,.09-2.227,8.11,8.11,0,0,0-.715-2.227c-.559-1.422-.592-3.378.625-4.479" data-name="Path 418" transform="translate(-115.419 -75.388)"/><path id="Path_419" fill="none" stroke="#263238" stroke-linecap="round" stroke-linejoin="round" stroke-width="1" d="M400.536,174.138c-.994-.074-3.205.181-5.136,3.37,0,0-1.644,1.479-2.63,1.488a5.071,5.071,0,0,1,2,.994,8.278,8.278,0,0,1,1.594,1.709c.978,1.175,2.671,2.153,4.224,1.644" data-name="Path 419" transform="translate(-113.814 -73.1)"/><path id="Path_420" fill="none" stroke="#263238" stroke-linecap="round" stroke-linejoin="round" stroke-width="1" d="M413.4,167.278c.419-.912,1.718-2.72,5.432-2.868,0,0,2.071-.682,2.581-1.57a5.053,5.053,0,0,0-.09,2.227,8.144,8.144,0,0,0,.715,2.219c.559,1.43.592,3.378-.625,4.479" data-name="Path 420" transform="translate(-117.49 -71.089)"/><path id="Path_421" fill="none" stroke="#263238" stroke-linecap="round" stroke-linejoin="round" stroke-width="1" d="M413.4,191.465c.419.912,1.718,2.712,5.432,2.86,0,0,2.071.682,2.581,1.578a5.054,5.054,0,0,1-.09-2.227,8.112,8.112,0,0,1,.715-2.227c.559-1.422.592-3.378-.625-4.479" data-name="Path 421" transform="translate(-117.49 -75.388)"/><path id="Path_422" fill="none" stroke="#263238" stroke-linecap="round" stroke-linejoin="round" stroke-width="1" d="M423.9,174.138c1-.074,3.213.181,5.145,3.37,0,0,1.6,1.479,2.63,1.488a5.071,5.071,0,0,0-2,.994,8.278,8.278,0,0,0-1.594,1.709c-.978,1.175-2.671,2.153-4.224,1.644" data-name="Path 422" transform="translate(-119.353 -73.1)"/><circle id="Ellipse_40" cx="20.694" cy="20.694" r="20.694" fill="#92e3a9" data-name="Ellipse 40" transform="translate(275.282 177.014) rotate(-45)"/><circle id="Ellipse_41" cx="9.763" cy="9.763" r="9.763" fill="none" stroke="#263238" stroke-linecap="round" stroke-linejoin="round" stroke-width="1" data-name="Ellipse 41" transform="matrix(0.883, -0.469, 0.469, 0.883, 291.378, 172.743)"/><path id="Path_423" fill="none" stroke="#263238" stroke-linecap="round" stroke-linejoin="round" stroke-width="1" d="M422.713,270.246l4.191-7.586H418.53Z" data-name="Path 423" transform="translate(-118.404 -88.873)"/><path id="Path_424" fill="none" stroke="#263238" stroke-linecap="round" stroke-linejoin="round" stroke-width="1" d="M420.318,253.921a6.23,6.23,0,0,0-2.408-1.5,8.868,8.868,0,0,0-2.655-.452c-2.153-.041-5.21.9-6.986-.953a7.065,7.065,0,0,1,.888,2.991,11.432,11.432,0,0,1-.214,3.287c-.271,2.12.345,4.791,2.375,5.868" data-name="Path 424" transform="translate(-116.576 -86.799)"/><path id="Path_425" fill="none" stroke="#263238" stroke-linecap="round" stroke-linejoin="round" stroke-width="1" d="M420.318,276.626a6.311,6.311,0,0,1-2.408,1.488,8.374,8.374,0,0,1-2.655.452c-2.153.049-5.21-.9-6.986.962a7.136,7.136,0,0,0,.888-2.991,11.415,11.415,0,0,0-.214-3.287c-.271-2.129.345-4.791,2.375-5.868" data-name="Path 425" transform="translate(-116.576 -89.714)"/><path id="Path_426" fill="none" stroke="#263238" stroke-linecap="round" stroke-linejoin="round" stroke-width="1" d="M424.89,253.921a6.229,6.229,0,0,1,2.408-1.5,8.818,8.818,0,0,1,2.655-.452c2.153-.041,5.21.9,6.986-.953a7.065,7.065,0,0,0-.888,2.991,11.143,11.143,0,0,0,.214,3.287c.271,2.12-.345,4.791-2.375,5.868" data-name="Path 426" transform="translate(-119.537 -86.799)"/><path id="Path_427" fill="none" stroke="#263238" stroke-linecap="round" stroke-linejoin="round" stroke-width="1" d="M424.89,276.626a6.312,6.312,0,0,0,2.408,1.488,8.334,8.334,0,0,0,2.655.452c2.153.049,5.21-.9,6.986.962a7.136,7.136,0,0,1-.888-2.991,11.127,11.127,0,0,1,.214-3.287c.271-2.129-.345-4.791-2.375-5.868" data-name="Path 427" transform="translate(-119.537 -89.714)"/><rect id="Rectangle_17" width="13.881" height="13.881" fill="none" stroke="#263238" stroke-linecap="round" stroke-linejoin="round" stroke-width="1" data-name="Rectangle 17" transform="translate(297.644 169.875)"/></g><g id="freepik--Character--inject-2" transform="translate(44.975 95.907)"><path id="Path_428" fill="#92e3a9" d="M184.564,247.6c1.192-4.027,3.041-7.594,5.884-9.2,4.931-2.761,15.377-3.665,19.354-3.92l.51-.214.436-.2.633-.321a10.939,10.939,0,0,0,4.183-3.608,17.258,17.258,0,0,0,1.644-3.953,20.76,20.76,0,0,1-6.78-8.687,5.588,5.588,0,0,1-2.556-.879,5.753,5.753,0,0,1-2.1-2.523,5.753,5.753,0,0,1-2.959-1.422,5.654,5.654,0,0,1-1.644-2.835,5.564,5.564,0,0,1-3.854-4.931,5.621,5.621,0,0,1-2.992-5.523,5.588,5.588,0,0,1-2.038-5.942,5.6,5.6,0,0,1-1.027-6.188,5.6,5.6,0,0,1,0-6.279,5.6,5.6,0,0,1,1.027-6.188,5.6,5.6,0,0,1,2.038-5.942,5.6,5.6,0,0,1,2.991-5.515,5.588,5.588,0,0,1,3.854-4.931,5.6,5.6,0,0,1,4.611-4.249,5.613,5.613,0,0,1,5.251-3.435,5.679,5.679,0,0,1,2.466-2.145,5.465,5.465,0,0,1,2.244-.468,5.756,5.756,0,0,1,1.019.09,5.646,5.646,0,0,1,2.811-1.709,5.572,5.572,0,0,1,1.331-.164,6.016,6.016,0,0,1,1.94.329,5.811,5.811,0,0,1,3.057-1.216h.444a5.81,5.81,0,0,1,2.753.723,5.843,5.843,0,0,1,2.761-.723h.444a5.843,5.843,0,0,1,3.057,1.216,6.015,6.015,0,0,1,1.94-.329,5.456,5.456,0,0,1,1.323.164,5.67,5.67,0,0,1,2.819,1.709,5.8,5.8,0,0,1,1.019-.09,5.531,5.531,0,0,1,2.252.468,5.7,5.7,0,0,1,2.466,2.145,5.613,5.613,0,0,1,5.252,3.435,5.7,5.7,0,0,1,2.959,1.414,5.753,5.753,0,0,1,1.644,2.835,5.588,5.588,0,0,1,3.854,4.931,5.6,5.6,0,0,1,2.992,5.515,5.753,5.753,0,0,1,1.931,2.663,5.638,5.638,0,0,1,.107,3.287,5.6,5.6,0,0,1,1.027,6.188,5.6,5.6,0,0,1,0,6.279,5.638,5.638,0,0,1,.436,3.287,5.753,5.753,0,0,1-1.463,2.95,5.589,5.589,0,0,1-2.038,5.934,5.6,5.6,0,0,1-2.991,5.523,5.7,5.7,0,0,1-1.167,3.065,5.794,5.794,0,0,1-2.687,1.882,5.63,5.63,0,0,1-4.611,4.249,5.753,5.753,0,0,1-2.1,2.523,5.292,5.292,0,0,1-1.5.682,20.932,20.932,0,0,1-8.457,9.936,9.041,9.041,0,0,0,1.553,3.945c2.276,2.786,6.443,3.139,6.484,3.148l2.991.14.074.222c7.092.822,12.081,2.087,14.851,3.649,5.7,3.205,7.4,14.275,7.857,21.121l11.563,24.811c10.314-7.158,24.4-17.012,26.471-18.705a26.654,26.654,0,0,0,2.827-2.745,23.512,23.512,0,0,1,5.046-4.4c4.364-2.778,6.575-2.778,11-2.778,3,0,6.082.2,7.89,2.515a5.523,5.523,0,0,1,.929,4.874,4.1,4.1,0,0,1-.156.518l.353.14a6.468,6.468,0,0,1,5.465-3.024,6.123,6.123,0,0,1,5.794,4.422c1.455,4.446-.871,10.635-5.186,13.8a16.608,16.608,0,0,1-5.909,2.86,9.3,9.3,0,0,1-3.427.6,14.239,14.239,0,0,1-3.172-.378h-.205l-1.274-.123c-2.466-.205-7.06-.822-9.821-1.192-3.649,3.69-12.87,12.927-19.428,18.787-3.509,3.131-15.615,13.338-24.228,13.338a8.531,8.531,0,0,1-5.054-1.5c-1-.715-3.805-2.72-14.933-22.255l-2.326,8.7c1.109,2.392,3.509,7.5,6.082,12.262l.468.822-3.55,2.071,3.6-1.981.682,1.216.51.9.526.888.649,1.068.493.773.468.707c.14.214.288.419.419.616a35.069,35.069,0,0,1,2.967,4.98c4.356-.921,10.906-3.468,18.22-7.117l1.783-1.068a17.587,17.587,0,0,1,8.835-2.466A15.788,15.788,0,0,1,307.092,314a17.587,17.587,0,0,1,7.873,16.486c-1.34,12.722-12.549,18.335-24.918,23.414-3.18,1.307-6.986,2.786-11.037,4.3a6.677,6.677,0,0,1,.542,1.29,8.062,8.062,0,0,1,0,5.013,11.6,11.6,0,0,1,.419,3.09c0,5.547-7.4,10.043-14.037,10.355h-.674c-3.887,0-7.4-1.553-10.52-2.934a27.828,27.828,0,0,0-4.791-1.8c-1.43-.3-3.674-.5-7.06-.822-1.915-.173-4.109-.37-6.854-.633l-.74-.082h-.362c-6.476,1.142-13.971,1.931-20.48,2.539l-7.618,2.022c-.51.132-1.085.3-1.718.493h-.082a40.271,40.271,0,0,1-11.662,2.112,22.412,22.412,0,0,1-6.3-.871c-6.575-1.931-9.944-3.731-12.541-6.657a8.02,8.02,0,0,1-1.422-2.276,4.191,4.191,0,0,1-.386-1.118,12.039,12.039,0,0,1-.427-3.542,7.2,7.2,0,0,1-.888-3.8,6.139,6.139,0,0,1,1.644-3.9c-5.145-1.89-10-3.756-13.971-5.375-12.328-5.079-23.57-10.684-24.91-23.414a17.6,17.6,0,0,1,7.873-16.494,15.8,15.8,0,0,1,8.555-2.548,17.6,17.6,0,0,1,8.67,2.408h0c4.66,2.548,18.286,9.418,25.378,10.594l1.644.3c.107-.255.5-1.118.5-1.118.156-.337.312-.674.477-1.011l.164-.345.584-1.175.657-1.307.764-1.446.148-.279c1.052-1.972,2.227-4.109,3.517-6.3l1.3-2.252h0c2.4-4.06,4.635-7.6,5.909-9.6l-2.17-8.539c-7.462,13.149-12.517,20.669-15.064,22.494a8.531,8.531,0,0,1-5.054,1.5c-8.621,0-20.727-10.207-24.228-13.338-6.575-5.893-16.815-15.615-20.694-19.354-2.86.394-7.4.994-9.9,1.2l-1.249.123a30.025,30.025,0,0,1-3.287.23,14.686,14.686,0,0,1-7.528-2.022,4.715,4.715,0,0,1-1.3-.731c-.049,0-.2-.164-.419-.37l-.23-.156c-4.306-3.164-6.632-9.353-5.178-13.8a6.115,6.115,0,0,1,5.753-4.413,6.46,6.46,0,0,1,5.465,3.016l.353-.14c-.058-.173-.115-.345-.156-.518a5.523,5.523,0,0,1,.937-4.874c1.808-2.318,4.931-2.515,7.881-2.515,4.422,0,6.64,0,11,2.778a23.975,23.975,0,0,1,5,4.364,26.024,26.024,0,0,0,2.835,2.745c1.849,1.52,15.015,10.6,27.786,19.3l11.58-24.852a58.475,58.475,0,0,1,1.972-11.925" data-name="Path 428" opacity="0" transform="translate(-103.583 -145.44)"/><path id="Path_429" fill="#fff" d="M184.564,247.6c1.192-4.027,3.041-7.594,5.884-9.2,4.931-2.761,15.377-3.665,19.354-3.92l.51-.214.436-.2.633-.321a10.939,10.939,0,0,0,4.183-3.608,17.258,17.258,0,0,0,1.644-3.953,20.76,20.76,0,0,1-6.78-8.687,5.588,5.588,0,0,1-2.556-.879,5.753,5.753,0,0,1-2.1-2.523,5.753,5.753,0,0,1-2.959-1.422,5.654,5.654,0,0,1-1.644-2.835,5.564,5.564,0,0,1-3.854-4.931,5.621,5.621,0,0,1-2.992-5.523,5.588,5.588,0,0,1-2.038-5.942,5.6,5.6,0,0,1-1.027-6.188,5.6,5.6,0,0,1,0-6.279,5.6,5.6,0,0,1,1.027-6.188,5.6,5.6,0,0,1,2.038-5.942,5.6,5.6,0,0,1,2.991-5.515,5.588,5.588,0,0,1,3.854-4.931,5.6,5.6,0,0,1,4.611-4.249,5.613,5.613,0,0,1,5.251-3.435,5.679,5.679,0,0,1,2.466-2.145,5.465,5.465,0,0,1,2.244-.468,5.756,5.756,0,0,1,1.019.09,5.646,5.646,0,0,1,2.811-1.709,5.572,5.572,0,0,1,1.331-.164,6.016,6.016,0,0,1,1.94.329,5.811,5.811,0,0,1,3.057-1.216h.444a5.81,5.81,0,0,1,2.753.723,5.843,5.843,0,0,1,2.761-.723h.444a5.843,5.843,0,0,1,3.057,1.216,6.015,6.015,0,0,1,1.94-.329,5.456,5.456,0,0,1,1.323.164,5.67,5.67,0,0,1,2.819,1.709,5.8,5.8,0,0,1,1.019-.09,5.531,5.531,0,0,1,2.252.468,5.7,5.7,0,0,1,2.466,2.145,5.613,5.613,0,0,1,5.252,3.435,5.7,5.7,0,0,1,2.959,1.414,5.753,5.753,0,0,1,1.644,2.835,5.588,5.588,0,0,1,3.854,4.931,5.6,5.6,0,0,1,2.992,5.515,5.753,5.753,0,0,1,1.931,2.663,5.638,5.638,0,0,1,.107,3.287,5.6,5.6,0,0,1,1.027,6.188,5.6,5.6,0,0,1,0,6.279,5.638,5.638,0,0,1,.436,3.287,5.753,5.753,0,0,1-1.463,2.95,5.589,5.589,0,0,1-2.038,5.934,5.6,5.6,0,0,1-2.991,5.523,5.7,5.7,0,0,1-1.167,3.065,5.794,5.794,0,0,1-2.687,1.882,5.63,5.63,0,0,1-4.611,4.249,5.753,5.753,0,0,1-2.1,2.523,5.292,5.292,0,0,1-1.5.682,20.932,20.932,0,0,1-8.457,9.936,9.041,9.041,0,0,0,1.553,3.945c2.276,2.786,6.443,3.139,6.484,3.148l2.991.14.074.222c7.092.822,12.081,2.087,14.851,3.649,5.7,3.205,7.4,14.275,7.857,21.121l11.563,24.811c10.314-7.158,24.4-17.012,26.471-18.705a26.654,26.654,0,0,0,2.827-2.745,23.512,23.512,0,0,1,5.046-4.4c4.364-2.778,6.575-2.778,11-2.778,3,0,6.082.2,7.89,2.515a5.523,5.523,0,0,1,.929,4.874,4.1,4.1,0,0,1-.156.518l.353.14a6.468,6.468,0,0,1,5.465-3.024,6.123,6.123,0,0,1,5.794,4.422c1.455,4.446-.871,10.635-5.186,13.8a16.608,16.608,0,0,1-5.909,2.86,9.3,9.3,0,0,1-3.427.6,14.239,14.239,0,0,1-3.172-.378h-.205l-1.274-.123c-2.466-.205-7.06-.822-9.821-1.192-3.649,3.69-12.87,12.927-19.428,18.787-3.509,3.131-15.615,13.338-24.228,13.338a8.531,8.531,0,0,1-5.054-1.5c-1-.715-3.805-2.72-14.933-22.255l-2.326,8.7c1.109,2.392,3.509,7.5,6.082,12.262l.468.822-3.55,2.071,3.6-1.981.682,1.216.51.9.526.888.649,1.068.493.773.468.707c.14.214.288.419.419.616a35.069,35.069,0,0,1,2.967,4.98c4.356-.921,10.906-3.468,18.22-7.117l1.783-1.068a17.587,17.587,0,0,1,8.835-2.466A15.788,15.788,0,0,1,307.092,314a17.587,17.587,0,0,1,7.873,16.486c-1.34,12.722-12.549,18.335-24.918,23.414-3.18,1.307-6.986,2.786-11.037,4.3a6.677,6.677,0,0,1,.542,1.29,8.062,8.062,0,0,1,0,5.013,11.6,11.6,0,0,1,.419,3.09c0,5.547-7.4,10.043-14.037,10.355h-.674c-3.887,0-7.4-1.553-10.52-2.934a27.828,27.828,0,0,0-4.791-1.8c-1.43-.3-3.674-.5-7.06-.822-1.915-.173-4.109-.37-6.854-.633l-.74-.082h-.362c-6.476,1.142-13.971,1.931-20.48,2.539l-7.618,2.022c-.51.132-1.085.3-1.718.493h-.082a40.271,40.271,0,0,1-11.662,2.112,22.412,22.412,0,0,1-6.3-.871c-6.575-1.931-9.944-3.731-12.541-6.657a8.02,8.02,0,0,1-1.422-2.276,4.191,4.191,0,0,1-.386-1.118,12.039,12.039,0,0,1-.427-3.542,7.2,7.2,0,0,1-.888-3.8,6.139,6.139,0,0,1,1.644-3.9c-5.145-1.89-10-3.756-13.971-5.375-12.328-5.079-23.57-10.684-24.91-23.414a17.6,17.6,0,0,1,7.873-16.494,15.8,15.8,0,0,1,8.555-2.548,17.6,17.6,0,0,1,8.67,2.408h0c4.66,2.548,18.286,9.418,25.378,10.594l1.644.3c.107-.255.5-1.118.5-1.118.156-.337.312-.674.477-1.011l.164-.345.584-1.175.657-1.307.764-1.446.148-.279c1.052-1.972,2.227-4.109,3.517-6.3l1.3-2.252h0c2.4-4.06,4.635-7.6,5.909-9.6l-2.17-8.539c-7.462,13.149-12.517,20.669-15.064,22.494a8.531,8.531,0,0,1-5.054,1.5c-8.621,0-20.727-10.207-24.228-13.338-6.575-5.893-16.815-15.615-20.694-19.354-2.86.394-7.4.994-9.9,1.2l-1.249.123a30.025,30.025,0,0,1-3.287.23,14.686,14.686,0,0,1-7.528-2.022,4.715,4.715,0,0,1-1.3-.731c-.049,0-.2-.164-.419-.37l-.23-.156c-4.306-3.164-6.632-9.353-5.178-13.8a6.115,6.115,0,0,1,5.753-4.413,6.46,6.46,0,0,1,5.465,3.016l.353-.14c-.058-.173-.115-.345-.156-.518a5.523,5.523,0,0,1,.937-4.874c1.808-2.318,4.931-2.515,7.881-2.515,4.422,0,6.64,0,11,2.778a23.975,23.975,0,0,1,5,4.364,26.024,26.024,0,0,0,2.835,2.745c1.849,1.52,15.015,10.6,27.786,19.3l11.58-24.852a58.475,58.475,0,0,1,1.972-11.925" data-name="Path 429" opacity="0" transform="translate(-103.583 -145.44)"/><path id="Path_430" fill="#263238" d="M283.215,185.084c0,.937-1.52,1.8-1.594,2.712s1.282,2.03,1.134,2.934-1.8,1.529-2.022,2.416.929,2.211.633,3.082-2.022,1.2-2.392,2.046.551,2.334.115,3.148-2.194.822-2.7,1.644.164,2.392-.4,3.123-2.3.468-2.926,1.151-.23,2.383-.912,3.016-2.35.09-3.082.658-.616,2.318-1.389,2.827-2.326-.3-3.139.14-.994,2.186-1.841,2.556-2.244-.674-3.123-.37-1.34,1.981-2.235,2.211-2.1-1.035-3.024-.888-1.644,1.742-2.572,1.816-1.9-1.372-2.835-1.372-1.915,1.446-2.827,1.372-1.644-1.644-2.572-1.816-2.129,1.109-3.024.888-1.364-1.915-2.235-2.211-2.277.74-3.123.37-1.027-2.112-1.841-2.556-2.367.362-3.139-.148-.666-2.252-1.4-2.819-2.392,0-3.074-.658-.288-2.334-.912-3.016-2.359-.427-2.926-1.159.1-2.342-.411-3.115-2.252-.822-2.7-1.644.485-2.293.115-3.139-2.087-1.167-2.392-2.046.863-2.178.633-3.082-1.866-1.5-2.022-2.416,1.208-2.005,1.134-2.934-1.594-1.775-1.594-2.712,1.52-1.8,1.594-2.712-1.282-2.03-1.134-2.934,1.8-1.52,2.022-2.416-.929-2.211-.633-3.082,2.022-1.2,2.392-2.046-.551-2.334-.115-3.139,2.194-.822,2.7-1.644-.164-2.4.4-3.123,2.3-.477,2.926-1.159.23-2.383.912-3.008,2.35-.1,3.074-.666.625-2.309,1.4-2.819,2.326.3,3.139-.148.994-2.178,1.841-2.556,2.244.674,3.123.378,1.34-1.989,2.235-2.219,2.1,1.044,3.024.888,1.644-1.734,2.572-1.808,1.9,1.364,2.827,1.364,1.923-1.446,2.835-1.364,1.644,1.644,2.572,1.808,2.129-1.109,3.024-.888,1.364,1.915,2.235,2.219,2.276-.748,3.123-.378,1.027,2.12,1.841,2.556,2.367-.362,3.139.148.666,2.252,1.4,2.819,2.392.041,3.074.666.288,2.334.912,3.008,2.359.427,2.926,1.159-.1,2.342.4,3.123,2.26.822,2.7,1.644-.493,2.293-.115,3.148,2.088,1.159,2.392,2.038-.822,2.186-.633,3.082,1.866,1.5,2.022,2.416-1.208,2.005-1.134,2.934S283.215,184.155,283.215,185.084Z" data-name="Path 430" transform="translate(-123.362 -146.408)"/><path id="Path_431" fill="none" stroke="#263238" stroke-linecap="round" stroke-miterlimit="10" stroke-width="1" d="M283.215,185.084c0,.937-1.52,1.8-1.594,2.712s1.282,2.03,1.134,2.934-1.8,1.529-2.022,2.416.929,2.211.633,3.082-2.022,1.2-2.392,2.046.551,2.334.115,3.148-2.194.822-2.7,1.644.164,2.392-.4,3.123-2.3.468-2.926,1.151-.23,2.383-.912,3.016-2.35.09-3.082.658-.616,2.318-1.389,2.827-2.326-.3-3.139.14-.994,2.186-1.841,2.556-2.244-.674-3.123-.37-1.34,1.981-2.235,2.211-2.1-1.035-3.024-.888-1.644,1.742-2.572,1.816-1.9-1.372-2.835-1.372-1.915,1.446-2.827,1.372-1.644-1.644-2.572-1.816-2.129,1.109-3.024.888-1.364-1.915-2.235-2.211-2.277.74-3.123.37-1.027-2.112-1.841-2.556-2.367.362-3.139-.148-.666-2.252-1.4-2.819-2.392,0-3.074-.658-.288-2.334-.912-3.016-2.359-.427-2.926-1.159.1-2.342-.411-3.115-2.252-.822-2.7-1.644.485-2.293.115-3.139-2.087-1.167-2.392-2.046.863-2.178.633-3.082-1.866-1.5-2.022-2.416,1.208-2.005,1.134-2.934-1.594-1.775-1.594-2.712,1.52-1.8,1.594-2.712-1.282-2.03-1.134-2.934,1.8-1.52,2.022-2.416-.929-2.211-.633-3.082,2.022-1.2,2.392-2.046-.551-2.334-.115-3.139,2.194-.822,2.7-1.644-.164-2.4.4-3.123,2.3-.477,2.926-1.159.23-2.383.912-3.008,2.35-.1,3.074-.666.625-2.309,1.4-2.819,2.326.3,3.139-.148.994-2.178,1.841-2.556,2.244.674,3.123.378,1.34-1.989,2.235-2.219,2.1,1.044,3.024.888,1.644-1.734,2.572-1.808,1.9,1.364,2.827,1.364,1.923-1.446,2.835-1.364,1.644,1.644,2.572,1.808,2.129-1.109,3.024-.888,1.364,1.915,2.235,2.219,2.276-.748,3.123-.378,1.027,2.12,1.841,2.556,2.367-.362,3.139.148.666,2.252,1.4,2.819,2.392.041,3.074.666.288,2.334.912,3.008,2.359.427,2.926,1.159-.1,2.342.4,3.123,2.26.822,2.7,1.644-.493,2.293-.115,3.148,2.088,1.159,2.392,2.038-.822,2.186-.633,3.082,1.866,1.5,2.022,2.416-1.208,2.005-1.134,2.934S283.215,184.155,283.215,185.084Z" data-name="Path 431" transform="translate(-123.362 -146.408)"/><path id="Path_432" fill="#263238" d="M228.3,214.955l.822-.1v-.107Z" data-name="Path 432" transform="translate(-125.803 -157.788)"/><path id="Path_433" fill="#fff" d="M211.771,259.24s-13.338.723-18.08,3.378-5.613,18.327-5.613,18.327l-14.193,30.408s-29.249-19.872-32.5-22.535-4.109-4.726-7.4-6.8-4.43-2.071-8.572-2.071-4.726.592-4.43,1.775,1.775,1.479,2.95,1.479a26.657,26.657,0,0,1,3.846.592l-11.826,4.726c-2.95,1.183-2.359-3.542-5.021-3.542s-2.367,6.8,2.071,10.043,7.4,2.367,10.93,2.071,11.826-1.479,11.826-1.479,13.881,13.38,22.19,20.768,19.51,14.481,23.644,11.506,19.765-31.863,19.765-31.863l10.051-26.6S214.137,263.834,211.771,259.24Z" data-name="Path 433" transform="translate(-104.589 -165.715)"/><path id="Path_434" fill="none" stroke="#263238" stroke-linecap="round" stroke-miterlimit="10" stroke-width="1" d="M211.771,259.24s-13.338.723-18.08,3.378-5.613,18.327-5.613,18.327l-14.193,30.408s-29.249-19.872-32.5-22.535-4.109-4.726-7.4-6.8-4.43-2.071-8.572-2.071-4.726.592-4.43,1.775,1.775,1.479,2.95,1.479a26.657,26.657,0,0,1,3.846.592l-11.826,4.726c-2.95,1.183-2.359-3.542-5.021-3.542s-2.367,6.8,2.071,10.043,7.4,2.367,10.93,2.071,11.826-1.479,11.826-1.479,13.881,13.38,22.19,20.768,19.51,14.481,23.644,11.506,19.765-31.863,19.765-31.863l10.051-26.6S214.137,263.834,211.771,259.24Z" data-name="Path 434" transform="translate(-104.589 -165.715)"/><path id="Path_435" fill="#c8f1d4" d="M114.026,301.549s-5.753-4.676-2.655-9.246c.773-1.134,2.515.575,2.967,3.657s2.055,4.331,2.852,4.561" data-name="Path 435" transform="translate(-104.807 -171.543)"/><path id="Path_436" fill="none" stroke="#263238" stroke-linecap="round" stroke-miterlimit="10" stroke-width="1" d="M114.026,301.549s-5.753-4.676-2.655-9.246c.773-1.134,2.515.575,2.967,3.657s2.055,4.331,2.852,4.561" data-name="Path 436" transform="translate(-104.807 -171.543)"/><path id="Path_437" fill="#c8f1d4" d="M118.8,301.107c-1.364,0-1.3-3.657-3.879-5.473-2.055-1.455-1.783,1.389-1.307,3.682a4.8,4.8,0,0,0,3.863,3.78h.058a7.026,7.026,0,0,0,2.72.107" data-name="Path 437" transform="translate(-105.31 -172.128)"/><path id="Path_438" fill="none" stroke="#263238" stroke-linecap="round" stroke-miterlimit="10" stroke-width="1" d="M118.8,301.107c-1.364,0-1.3-3.657-3.879-5.473-2.055-1.455-1.783,1.389-1.307,3.682a4.8,4.8,0,0,0,3.863,3.78h.058a7.026,7.026,0,0,0,2.72.107" data-name="Path 438" transform="translate(-105.31 -172.128)"/><path id="Path_439" fill="#c8f1d4" d="M136.839,294.861s-1.94-1.364-5.7-.115-8.218,6.731-9.237,6.279a4.6,4.6,0,0,1-2.055-2.515c-.567-1.142-1.7-2.778-2.466-1.463-1.718,2.9,2.934,6.188,2.934,6.188s.649.542,4.232.107,11.728-1.52,11.728-1.52" data-name="Path 439" transform="translate(-105.972 -171.947)"/><path id="Path_440" fill="none" stroke="#263238" stroke-linecap="round" stroke-miterlimit="10" stroke-width="1" d="M136.839,294.861s-1.94-1.364-5.7-.115-8.218,6.731-9.237,6.279a4.6,4.6,0,0,1-2.055-2.515c-.567-1.142-1.7-2.778-2.466-1.463-1.718,2.9,2.934,6.188,2.934,6.188s.649.542,4.232.107,11.728-1.52,11.728-1.52" data-name="Path 440" transform="translate(-105.972 -171.947)"/><line id="Line_5" x1="4.306" y1="12.344" fill="none" stroke="#263238" stroke-linecap="round" stroke-miterlimit="10" stroke-width="1" data-name="Line 5" transform="translate(92.619 111.63)"/><path id="Path_441" fill="#fff" d="M275.876,258.91s14.045.994,18.779,3.649,5.613,18.327,5.613,18.327l14.185,30.408s27.942-19.313,31.164-21.976,4.109-4.734,7.4-6.8,4.438-2.071,8.572-2.071,4.726.592,4.438,1.775-1.775,1.479-2.959,1.479a27,27,0,0,0-3.846.583l11.826,4.734c2.959,1.183,2.367-3.55,5.021-3.55s2.367,6.8-2.063,10.051-7.4,2.367-10.939,2.071-11.826-1.479-11.826-1.479-12.541,12.821-20.817,20.209-19.5,14.481-23.644,11.506-19.806-31.863-19.806-31.863l-10.051-26.6S273.476,263.5,275.876,258.91Z" data-name="Path 441" transform="translate(-134.127 -165.656)"/><path id="Path_442" fill="none" stroke="#263238" stroke-linecap="round" stroke-miterlimit="10" stroke-width="1" d="M275.876,258.91s14.045.994,18.779,3.649,5.613,18.327,5.613,18.327l14.185,30.408s27.942-19.313,31.164-21.976,4.109-4.734,7.4-6.8,4.438-2.071,8.572-2.071,4.726.592,4.438,1.775-1.775,1.479-2.959,1.479a27,27,0,0,0-3.846.583l11.826,4.734c2.959,1.183,2.367-3.55,5.021-3.55s2.367,6.8-2.063,10.051-7.4,2.367-10.939,2.071-11.826-1.479-11.826-1.479-12.541,12.821-20.817,20.209-19.5,14.481-23.644,11.506-19.806-31.863-19.806-31.863l-10.051-26.6S273.476,263.5,275.876,258.91Z" data-name="Path 442" transform="translate(-134.127 -165.656)"/><line id="Line_6" x2="3.452" y1="10.043" fill="none" stroke="#263238" stroke-linecap="round" stroke-miterlimit="10" stroke-width="1" data-name="Line 6" transform="translate(152.893 111.343)"/><path id="Path_443" fill="#787878" d="M395.506,300.43s2.991-4.479.912-7.446c-.822-1.126-2.507.567-2.967,3.649s-2.055,4.339-2.852,4.569" data-name="Path 443" transform="translate(-154.718 -171.665)"/><path id="Path_444" fill="#c8f1d4" stroke="#263238" stroke-linecap="round" stroke-miterlimit="10" stroke-width="1" d="M395.506,300.43s2.991-4.479.912-7.446c-.822-1.126-2.507.567-2.967,3.649s-2.055,4.339-2.852,4.569" data-name="Path 444" transform="translate(-154.718 -171.665)"/><path id="Path_445" fill="#787878" d="M392.573,302.928s3.6-9.443,0-7.109c-2.655,1.709-1.981,5.884-3.353,5.884" data-name="Path 445" transform="translate(-154.472 -172.166)"/><path id="Path_446" fill="#c8f1d4" stroke="#263238" stroke-linecap="round" stroke-miterlimit="10" stroke-width="1" d="M392.573,302.928s3.6-9.443,0-7.109c-2.655,1.709-1.981,5.884-3.353,5.884" data-name="Path 446" transform="translate(-154.472 -172.166)"/><path id="Path_447" fill="#c8f1d4" d="M368.11,295.56s1.94-1.372,5.7-.115,8.218,6.731,9.246,6.271a4.611,4.611,0,0,0,2.055-2.507c.575-1.142,1.594-1.824,2.276-.452s-1.364,5.358-1.364,5.358-1.233.879-4.265.181a73.664,73.664,0,0,0-10.4-1.718" data-name="Path 447" transform="translate(-150.711 -172.071)"/><path id="Path_448" fill="none" stroke="#263238" stroke-linecap="round" stroke-miterlimit="10" stroke-width="1" d="M368.11,295.56s1.94-1.372,5.7-.115,8.218,6.731,9.246,6.271a4.611,4.611,0,0,0,2.055-2.507c.575-1.142,1.594-1.824,2.276-.452s-1.364,5.358-1.364,5.358-1.233.879-4.265.181a73.664,73.664,0,0,0-10.4-1.718" data-name="Path 448" transform="translate(-150.711 -172.071)"/><path id="Path_449" fill="#fff" stroke="#263238" stroke-linecap="round" stroke-miterlimit="10" stroke-width="1" d="M241.327,237.35s-.608,6.871-3.435,11.506-8.662,6.484-8.662,6.484l-11.506,35.339,6.065,23.833s-10.684,16.371-14.957,26.3.822,21.113,5.3,25.765,10.347,10.939,25.419,10.347c20.982-.822,35.89,1.085,42.563-6.8s7.4-22.765-.592-33.991c-4.849-6.829-11.448-21.6-11.448-21.6l6.575-24.589-10.035-34.7s-6.032-.345-9.665-4.791-2.835-12.533-2.835-12.533Z" data-name="Path 449" transform="translate(-122.047 -161.815)"/><path id="Path_450" fill="#c8f1d4" d="M254.567,246.085a15.337,15.337,0,0,0,6.05-1.247,24.063,24.063,0,0,1-.482-6.93l-11.848-.558a34.177,34.177,0,0,1-1.407,6.67A15.421,15.421,0,0,0,254.567,246.085Z" data-name="Path 450" transform="translate(-128.57 -161.49)"/><path id="Path_451" fill="#92e3a9" stroke="#263238" stroke-linecap="round" stroke-miterlimit="10" stroke-width="1" d="M278.87,293.584l-10.035-34.7a15.224,15.224,0,0,1-2.967-.493c1.151,8.054-.23,12.073-.23,12.073a11.127,11.127,0,0,1-5.662,8.49c-5.457,3.238-15.763,3.846-22.19-1.414-4.882-3.961-4.011-14.793-3.287-19.921a18.33,18.33,0,0,1-2.983,1.331L220.01,294.29l6.065,23.833h46.286Z" data-name="Path 451" transform="translate(-124.326 -165.426)"/><path id="Path_452" fill="#fff" d="M235.678,217.252s-3.764-4.832-5.013-1.249,5.194,6.8,5.194,6.8Z" data-name="Path 452" transform="translate(-126.195 -157.776)"/><path id="Path_453" fill="none" stroke="#263238" stroke-linecap="round" stroke-miterlimit="10" stroke-width="1" d="M235.678,217.252s-3.764-4.832-5.013-1.249,5.194,6.8,5.194,6.8Z" data-name="Path 453" transform="translate(-126.195 -157.776)"/><path id="Path_454" fill="#fff" d="M276.641,217.252s3.756-4.832,5.013-1.249-5.194,6.8-5.194,6.8Z" data-name="Path 454" transform="translate(-134.383 -157.776)"/><path id="Path_455" fill="none" stroke="#263238" stroke-linecap="round" stroke-miterlimit="10" stroke-width="1" d="M276.641,217.252s3.756-4.832,5.013-1.249-5.194,6.8-5.194,6.8Z" data-name="Path 455" transform="translate(-134.383 -157.776)"/><path id="Path_456" fill="#fff" stroke="#263238" stroke-linecap="round" stroke-miterlimit="10" stroke-width="1" d="M253.406,232.951h0A16.256,16.256,0,0,1,237.15,216.7V191.687a6.057,6.057,0,0,1,6.065-6.057H263.6a6.057,6.057,0,0,1,6.057,6.057v24.976a16.248,16.248,0,0,1-16.256,16.289Z" data-name="Path 456" transform="translate(-127.379 -152.6)"/><path id="Path_457" fill="none" stroke="#263238" stroke-linecap="round" stroke-miterlimit="10" stroke-width="1" d="M242.24,210a6.8,6.8,0,0,0,7.52,0" data-name="Path 457" transform="translate(-128.286 -156.942)"/><path id="Path_458" fill="none" stroke="#263238" stroke-linecap="round" stroke-miterlimit="10" stroke-width="1" d="M262.72,210a6.8,6.8,0,0,0,7.52,0" data-name="Path 458" transform="translate(-131.935 -156.942)"/><path id="Path_459" fill="none" stroke="#263238" stroke-linecap="round" stroke-miterlimit="10" stroke-width="1" d="M258.1,206.7l1.077,10.388h-4.3" data-name="Path 459" transform="translate(-130.538 -156.354)"/><line id="Line_7" x2="4.29" fill="none" stroke="#263238" stroke-linecap="round" stroke-miterlimit="10" stroke-width="1" data-name="Line 7" transform="translate(124.523 66.635)"/><path id="Path_460" fill="none" stroke="#263238" stroke-linecap="round" stroke-miterlimit="10" stroke-width="2" d="M241.37,203.456s1.972-3.4,8.054-2.868" data-name="Path 460" transform="translate(-128.131 -155.255)"/><path id="Path_461" fill="none" stroke="#263238" stroke-linecap="round" stroke-miterlimit="10" stroke-width="2" d="M261.19,200.473a7.627,7.627,0,0,1,9.311,2.868" data-name="Path 461" transform="translate(-131.662 -155.141)"/><path id="Path_462" fill="#b2b2b2" stroke="#263238" stroke-linecap="round" stroke-miterlimit="10" stroke-width="1" d="M208.774,360.462c-4.241,9.9.822,21.113,5.3,25.765s10.347,10.939,25.419,10.347c20.982-.822,35.89,1.085,42.563-6.8s7.4-22.765-.592-33.991a82.8,82.8,0,0,1-4.931-8.276h-61a131.161,131.161,0,0,0-6.764,12.952Z" data-name="Path 462" transform="translate(-122.039 -181.441)"/><path id="Path_463" fill="#b2b2b2" stroke="#263238" stroke-linecap="round" stroke-miterlimit="10" stroke-width="1" d="M232.967,381.336c-10.643-11.037-29.948-16.552-39.407-18.13s-26.8-11.087-26.8-11.087S156.512,351.775,157.3,364s30.35,26.406,41.774,32.709a36.934,36.934,0,0,0,33.893,1.183" data-name="Path 463" transform="translate(-113.145 -182.262)"/><path id="Path_464" fill="#b2b2b2" stroke="#263238" stroke-linecap="round" stroke-miterlimit="10" stroke-width="1" d="M257.48,382.11c10.643-11.037,29.948-16.552,39.407-18.13s24.178-9.64,24.178-9.64,12.862-1.792,12.081,10.429-30.35,26.4-41.774,32.709a36.933,36.933,0,0,1-33.893,1.183" data-name="Path 464" transform="translate(-131.001 -182.642)"/><path id="Path_465" fill="#c8f1d4" d="M303.017,410.393s1.455-.978.731-3.411-4.627-.485-7.3-.485-12.895-.97-17.76-1.455c-4.159-.419-10.963-.3-12.862-.263a15.3,15.3,0,0,1-1.759,8.621c-.912-.082,1.89.189.945.1,8.276.822,11.876.978,14.407,1.512,4.619.978,9.731,4.865,14.793,4.627s9.731-3.649,9.731-5.843a5.752,5.752,0,0,0-.929-3.4Z" data-name="Path 465" transform="translate(-132.142 -191.637)"/><path id="Path_466" fill="none" stroke="#263238" stroke-linecap="round" stroke-miterlimit="10" stroke-width="1" d="M303.017,410.393s1.455-.978.731-3.411-4.627-.485-7.3-.485-12.895-.97-17.76-1.455c-4.159-.419-10.963-.3-12.862-.263a15.3,15.3,0,0,1-1.759,8.621c-.912-.082,1.89.189.945.1,8.276.822,11.876.978,14.407,1.512,4.619.978,9.731,4.865,14.793,4.627s9.731-3.649,9.731-5.843a5.752,5.752,0,0,0-.929-3.4Z" data-name="Path 466" transform="translate(-132.142 -191.637)"/><path id="Path_467" fill="#fff" stroke="#263238" stroke-linecap="round" stroke-miterlimit="10" stroke-width="1" d="M265.9,404.8Z" data-name="Path 467" transform="translate(-132.501 -191.648)"/><path id="Path_468" fill="#fff" stroke="#263238" stroke-linecap="round" stroke-miterlimit="10" stroke-width="1" d="M265.62,404.81Z" data-name="Path 468" transform="translate(-132.452 -191.65)"/><path id="Path_469" fill="none" stroke="#263238" stroke-linecap="round" stroke-miterlimit="10" stroke-width="1" d="M310.57,411.62a12.961,12.961,0,0,1-4.29,0" data-name="Path 469" transform="translate(-139.696 -192.863)"/><path id="Path_470" fill="none" stroke="#263238" stroke-linecap="round" stroke-miterlimit="10" stroke-width="1" d="M311.454,415.76a36.124,36.124,0,0,1-5.654.041" data-name="Path 470" transform="translate(-139.61 -193.601)"/><path id="Path_471" fill="none" stroke="#263238" stroke-linecap="round" stroke-miterlimit="10" stroke-width="1" d="M304.64,418.41a6.525,6.525,0,0,0,4.364.715" data-name="Path 471" transform="translate(-139.403 -194.073)"/><path id="Path_472" fill="none" stroke="#263238" stroke-linecap="round" stroke-miterlimit="10" stroke-width="1" d="M302.32,420.34a6.8,6.8,0,0,0,4.043.641" data-name="Path 472" transform="translate(-138.99 -194.417)"/><path id="Path_473" fill="#b2b2b2" stroke="#263238" stroke-linecap="round" stroke-miterlimit="10" stroke-width="1" d="M243.111,403.619A15.3,15.3,0,0,0,244.87,395h-.518s-18.738-3.9-34.3-13.379-35.24-24.072-45.25-29.907-19.461,2.918-18.483,12.163,8.514,14.111,22.132,19.724,38.413,14.333,51.562,17.012C226.8,401.992,235.566,402.912,243.111,403.619Z" data-name="Path 473" transform="translate(-111.183 -181.854)"/><path id="Path_474" fill="#b2b2b2" stroke="#263238" stroke-linecap="round" stroke-miterlimit="10" stroke-width="1" d="M237.1,406.735a15.3,15.3,0,0,1-1.759-8.621h.518s18.738-3.9,34.3-13.379,35.273-24.088,45.25-29.923,19.461,2.918,18.491,12.163-8.514,14.111-22.14,19.724-38.437,14.358-51.57,17.037C253.417,405.1,244.64,406.029,237.1,406.735Z" data-name="Path 474" transform="translate(-127.045 -182.407)"/><path id="Path_475" fill="#c8f1d4" d="M227.551,407.51s-18.023.707-23.743.312-10.043-3.156-11.621-1.775.394,3.542.394,3.542-.592,3.353.986,5.128,3.739,3.345,10.437,5.317,13.593-.822,17.333-1.792l7.972-2.112S227.452,413.337,227.551,407.51Z" data-name="Path 475" transform="translate(-119.26 -191.802)"/><path id="Path_476" fill="none" stroke="#263238" stroke-linecap="round" stroke-miterlimit="10" stroke-width="1" d="M227.551,407.51s-18.023.707-23.743.312-10.043-3.156-11.621-1.775.394,3.542.394,3.542-.592,3.353.986,5.128,3.739,3.345,10.437,5.317,13.593-.822,17.333-1.792l7.972-2.112S227.452,413.337,227.551,407.51Z" data-name="Path 476" transform="translate(-119.26 -191.802)"/><path id="Path_477" fill="none" stroke="#263238" stroke-linecap="round" stroke-miterlimit="10" stroke-width="1" d="M192.8,410.349a2.466,2.466,0,0,1,2.753,0,7.594,7.594,0,0,0,3.156,1.183" data-name="Path 477" transform="translate(-119.478 -192.562)"/><path id="Path_478" fill="none" stroke="#263238" stroke-linecap="round" stroke-miterlimit="10" stroke-width="1" d="M193.07,414.956a2.556,2.556,0,0,1,2.359-.584,11.235,11.235,0,0,0,2.893.411" data-name="Path 478" transform="translate(-119.526 -193.339)"/><path id="Path_479" fill="none" stroke="#263238" stroke-linecap="round" stroke-miterlimit="10" stroke-width="1" d="M196.73,418.693s.353-1,1-1,3.37.353,4.109.3" data-name="Path 479" transform="translate(-120.178 -193.945)"/><path id="Path_480" fill="none" stroke="#263238" stroke-linecap="round" stroke-miterlimit="10" stroke-width="1" d="M201.4,421.036s.649-.888,1.3-.945a22.5,22.5,0,0,1,2.244-.181" data-name="Path 480" transform="translate(-121.01 -194.34)"/><path id="Path_481" fill="#263238" d="M232.992,192.174c.994.214.7,1.364,1.981,1.151.567-.1.97-1.685,1.734-1.833.608-.115,1.57,1.208,2.285,1.052s.97-1.726,1.644-1.89,1.644,1.142,2.326.97.92-1.767,1.594-1.948,1.693,1.077,2.359.879.822-1.8,1.52-2.005,1.742,1,2.392.781.822-1.841,1.43-2.071,1.8.92,2.466.674.707-1.882,1.331-2.145,1.849.822,2.466.542.6-1.915,1.208-2.211,1.89.707,2.466.386.468-1.948,1.052-2.293,1.948.567,2.523.205.3-1.981.822-2.375,2.129.247,2.655-.173c.222-.288-1.348-.641-1.389-1.093,0-.205,1.43-.608,1.4-.879s-1.537-.263-1.57-.526,1.4-.69,1.356-.937-1.545-.205-1.586-.452,1.364-.756,1.315-1-1.553-.14-1.644-.386,1.331-.822,1.274-1.052-1.561-.074-1.644-.312,1.282-.9,1.208-1.126-1.553,0-1.644-.205,1.225-.986,1.134-1.208-1.553.132-1.644-.082,1.134-1.085,1.027-1.3-1.537.279-1.644.074,1-1.208.871-1.405-1.479.468-1.644.288.822-1.348.657-1.52-1.372.723-1.553.567c-.4-.345-.23-1.915-.97-2.194-.551-.205-1.644,1.027-2.318.863s-.962-1.718-1.644-1.824-1.446,1.307-2.129,1.241-1.192-1.586-1.866-1.644-1.331,1.438-2.005,1.43-1.323-1.479-1.989-1.455-1.233,1.545-1.89,1.586-1.438-1.372-2.1-1.307-1.118,1.644-1.767,1.726-1.545-1.266-2.194-1.142-.986,1.718-1.644,1.866-1.644-1.126-2.285-.945-.822,1.8-1.43,2.014-1.775-.929-2.375-.674-.575,1.882-1.151,2.178-1.907-.649-2.465-.3-.23,1.948-.731,2.35-2.014-.214-2.466.255c-.3.312.567,1.594.321,1.915s-1.726-.14-1.931.205.912,1.414.756,1.792-1.709.279-1.824.674,1.241,1.134,1.183,1.537-1.578.7-1.594,1.109,1.479.822,1.512,1.216-1.381,1.019-1.307,1.43,1.644.493,1.726.9-1.183,1.249-1.044,1.644,1.644.247,1.841.625-1,1.4-.822,1.767,1.7.041,1.907.4-.822,1.5-.633,1.833,1.7-.107,1.931.222-.707,1.57-.468,1.89,1.7-.238,1.948.058-.559,1.644-.321,1.915C231.948,193.07,232.4,192.042,232.992,192.174Z" data-name="Path 481" transform="translate(-125.218 -148.699)"/><path id="Path_482" fill="none" stroke="#263238" stroke-miterlimit="10" stroke-width="1" d="M232.992,192.174c.994.214.7,1.364,1.981,1.151.567-.1.97-1.685,1.734-1.833.608-.115,1.57,1.208,2.285,1.052s.97-1.726,1.644-1.89,1.644,1.142,2.326.97.92-1.767,1.594-1.948,1.693,1.077,2.359.879.822-1.8,1.52-2.005,1.742,1,2.392.781.822-1.841,1.43-2.071,1.8.92,2.466.674.707-1.882,1.331-2.145,1.849.822,2.466.542.6-1.915,1.208-2.211,1.89.707,2.466.386.468-1.948,1.052-2.293,1.948.567,2.523.205.3-1.981.822-2.375,2.129.247,2.655-.173c.222-.288-1.348-.641-1.389-1.093,0-.205,1.43-.608,1.4-.879s-1.537-.263-1.57-.526,1.4-.69,1.356-.937-1.545-.205-1.586-.452,1.364-.756,1.315-1-1.553-.14-1.644-.386,1.331-.822,1.274-1.052-1.561-.074-1.644-.312,1.282-.9,1.208-1.126-1.553,0-1.644-.205,1.225-.986,1.134-1.208-1.553.132-1.644-.082,1.134-1.085,1.027-1.3-1.537.279-1.644.074,1-1.208.871-1.405-1.479.468-1.644.288.822-1.348.657-1.52-1.372.723-1.553.567c-.4-.345-.23-1.915-.97-2.194-.551-.205-1.644,1.027-2.318.863s-.962-1.718-1.644-1.824-1.446,1.307-2.129,1.241-1.192-1.586-1.866-1.644-1.331,1.438-2.005,1.43-1.323-1.479-1.989-1.455-1.233,1.545-1.89,1.586-1.438-1.372-2.1-1.307-1.118,1.644-1.767,1.726-1.545-1.266-2.194-1.142-.986,1.718-1.644,1.866-1.644-1.126-2.285-.945-.822,1.8-1.43,2.014-1.775-.929-2.375-.674-.575,1.882-1.151,2.178-1.907-.649-2.465-.3-.23,1.948-.731,2.35-2.014-.214-2.466.255c-.3.312.567,1.594.321,1.915s-1.726-.14-1.931.205.912,1.414.756,1.792-1.709.279-1.824.674,1.241,1.134,1.183,1.537-1.578.7-1.594,1.109,1.479.822,1.512,1.216-1.381,1.019-1.307,1.43,1.644.493,1.726.9-1.183,1.249-1.044,1.644,1.644.247,1.841.625-1,1.4-.822,1.767,1.7.041,1.907.4-.822,1.5-.633,1.833,1.7-.107,1.931.222-.707,1.57-.468,1.89,1.7-.238,1.948.058-.559,1.644-.321,1.915C231.948,193.07,232.4,192.042,232.992,192.174Z" data-name="Path 482" transform="translate(-125.218 -148.699)"/></g></svg>