<svg width="141" height="101" viewBox="0 0 141 101" fill="none" xmlns="http://www.w3.org/2000/svg">
<path d="M35.168 8.54688L30.8086 8.89844L20.6836 33.5781L20.543 45.1797L25.4648 45.0391L25.1133 51.3672L10.6289 51.7188L10.418 45.1797H14.5664L14.4961 33.4375L5.07422 8.89844L0.714844 9.03906L1.06641 2.21875H15.3398L15.9023 8.54688L11.8242 8.89844L17.8008 27.8828L24.4102 8.89844L20.0508 9.03906L20.4023 2.21875L34.6758 1.86719L35.168 8.54688ZM67.7227 24.6484C67.7227 26.5469 67.6641 28.5742 67.5469 30.7305C67.4297 32.8867 67.1719 35.0195 66.7734 37.1289C66.3984 39.2383 65.8359 41.2773 65.0859 43.2461C64.3594 45.1914 63.375 46.9023 62.1328 48.3789C60.9141 49.8555 59.4023 51.0391 57.5977 51.9297C55.793 52.8203 53.6367 53.2656 51.1289 53.2656C49.1602 53.2656 47.4492 52.9023 45.9961 52.1758C44.543 51.4727 43.2891 50.5234 42.2344 49.3281C41.2031 48.1328 40.3477 46.75 39.668 45.1797C38.9883 43.6094 38.4492 41.9805 38.0508 40.293C37.6523 38.582 37.3711 36.8594 37.207 35.125C37.0664 33.3906 36.9961 31.7734 36.9961 30.2734C36.9961 28.375 37.0664 26.3242 37.207 24.1211C37.3477 21.918 37.6289 19.7266 38.0508 17.5469C38.4727 15.3672 39.0586 13.2695 39.8086 11.2539C40.582 9.23828 41.5898 7.45703 42.832 5.91016C44.0977 4.36328 45.6328 3.13281 47.4375 2.21875C49.2422 1.28125 51.3867 0.8125 53.8711 0.8125C55.8398 0.8125 57.5508 1.19922 59.0039 1.97266C60.4805 2.72266 61.7227 3.74219 62.7305 5.03125C63.7617 6.29688 64.5938 7.75 65.2266 9.39062C65.8828 11.0313 66.3984 12.7422 66.7734 14.5234C67.1484 16.2812 67.3945 18.0391 67.5117 19.7969C67.6523 21.5312 67.7227 23.1484 67.7227 24.6484ZM60.832 25.0703C60.832 24.2734 60.8086 23.2891 60.7617 22.1172C60.7148 20.9219 60.6094 19.6797 60.4453 18.3906C60.2812 17.0781 60.0352 15.7656 59.707 14.4531C59.3789 13.1406 58.9219 11.9687 58.3359 10.9375C57.7734 9.88281 57.0586 9.03906 56.1914 8.40625C55.3477 7.75 54.3164 7.42188 53.0977 7.42188C51.5508 7.42188 50.2383 7.84375 49.1602 8.6875C48.1055 9.50781 47.2266 10.5977 46.5234 11.957C45.8203 13.3164 45.2695 14.8516 44.8711 16.5625C44.4727 18.25 44.1797 19.9609 43.9922 21.6953C43.8047 23.4297 43.6875 25.1055 43.6406 26.7227C43.6172 28.3164 43.6055 29.6875 43.6055 30.8359C43.6055 31.7031 43.6289 32.6992 43.6758 33.8242C43.7227 34.9258 43.8281 36.0625 43.9922 37.2344C44.1797 38.3828 44.4492 39.5195 44.8008 40.6445C45.1523 41.7461 45.6094 42.7305 46.1719 43.5977C46.7578 44.4648 47.4844 45.168 48.3516 45.707C49.2188 46.2461 50.2617 46.5156 51.4805 46.5156C53.0039 46.5156 54.293 46.1289 55.3477 45.3555C56.4023 44.582 57.2695 43.5742 57.9492 42.332C58.6523 41.0664 59.1914 39.6484 59.5664 38.0781C59.9648 36.5078 60.2578 34.9375 60.4453 33.3672C60.6328 31.7734 60.7383 30.25 60.7617 28.7969C60.8086 27.3438 60.832 26.1016 60.832 25.0703ZM103.793 33.3672C103.793 35.6641 103.465 37.9492 102.809 40.2227C102.176 42.4727 101.215 44.5117 99.9258 46.3398C98.6367 48.1445 97.0312 49.6094 95.1094 50.7344C93.2109 51.8594 90.9961 52.4219 88.4648 52.4219C86.4492 52.4219 84.6445 52.0117 83.0508 51.1914C81.457 50.3711 80.0508 49.2812 78.832 47.9219C77.6367 46.5391 76.6172 44.9688 75.7734 43.2109C74.9297 41.4297 74.2383 39.5898 73.6992 37.6914C73.1602 35.793 72.7617 33.9062 72.5039 32.0312C72.2695 30.1328 72.1523 28.3984 72.1523 26.8281C72.1523 25.1172 72.2461 23.2891 72.4336 21.3438C72.6211 19.3984 72.9375 17.4766 73.3828 15.5781C73.8516 13.6562 74.4727 11.8281 75.2461 10.0938C76.043 8.33594 77.0273 6.78906 78.1992 5.45312C79.3945 4.09375 80.8125 3.01563 82.4531 2.21875C84.0938 1.42187 86.0039 1.02344 88.1836 1.02344C89.3086 1.02344 90.293 1.16406 91.1367 1.44531C91.9805 1.70312 92.7422 2.08984 93.4219 2.60547C94.1016 3.09766 94.7227 3.70703 95.2852 4.43359C95.8477 5.16016 96.4102 5.96875 96.9727 6.85938L97.043 1.09375L103.23 1.23438L102.457 19.1641L96.9023 18.9531C96.7148 17.8047 96.4336 16.5625 96.0586 15.2266C95.707 13.8672 95.2148 12.625 94.582 11.5C93.9492 10.3516 93.1289 9.40234 92.1211 8.65234C91.1367 7.87891 89.918 7.49219 88.4648 7.49219C87.0117 7.49219 85.7578 7.82031 84.7031 8.47656C83.6719 9.10938 82.793 9.96484 82.0664 11.043C81.3633 12.0977 80.7891 13.3047 80.3438 14.6641C79.8984 16 79.5586 17.3828 79.3242 18.8125C79.0898 20.2188 78.9375 21.6016 78.8672 22.9609C78.7969 24.2969 78.7617 25.4922 78.7617 26.5469C78.7617 27.5547 78.8086 28.7383 78.9023 30.0977C78.9961 31.4336 79.1719 32.8164 79.4297 34.2461C79.7109 35.6758 80.0859 37.0938 80.5547 38.5C81.0234 39.8828 81.6211 41.125 82.3477 42.2266C83.0977 43.3047 83.9883 44.1836 85.0195 44.8633C86.0508 45.543 87.2695 45.8828 88.6758 45.8828C89.8008 45.8828 90.8086 45.6602 91.6992 45.2148C92.5898 44.7695 93.3633 44.1836 94.0195 43.457C94.6992 42.707 95.2617 41.8516 95.707 40.8906C96.1758 39.9297 96.5508 38.9336 96.832 37.9023C97.1133 36.8711 97.3125 35.8398 97.4297 34.8086C97.5703 33.7539 97.6289 32.7812 97.6055 31.8906V31.1875L87.6914 30.9062V26.0547L103.371 25.7031C103.488 26.9688 103.582 28.2461 103.652 29.5352C103.746 30.8242 103.793 32.1016 103.793 33.3672ZM140.391 46.3047L139.898 52.9844L125.625 52.6328L125.273 45.8125L129.633 45.9531L127.805 35.6875L118.523 36.1094L117.047 45.25L121.125 45.6016L120.562 51.9297H106.289L105.938 45.1094L110.297 45.25L117.961 7.70312L114.375 7.84375L114.023 1.86719L131.953 1.51562L131.602 7.14062L128.086 7.28125L136.031 45.9531L140.391 46.3047ZM126.82 30.2031L123.023 8.61719L119.508 30.2031H126.82ZM33.2812 76.5156L29.6719 76.9844L29.4375 70.6562L25.5469 70.7969L25.3125 95.4531L28.5938 95.3594L28.3594 99.5781L18.7031 99.8125L18.5625 95.4531H21.3281L21.2812 71.0312L17.0625 71.3125L17.2969 77.2188H13.4062L13.6406 67.0469L32.8125 66.3438L33.2812 76.5156ZM56.4844 95.125L56.25 99.5781L47.7656 100.281L47.2031 95.9688H48.9844L45.7969 85H42.6094L42.5156 95.9688L45.3281 95.8281L45.0938 100.281H36.1406L35.7656 95.9688H38.5312L38.4844 70.8906L35.8125 70.9844L35.5781 66.4375C37.3281 66.3594 39.0703 66.3125 40.8047 66.2969C42.5547 66.2656 44.3125 66.25 46.0781 66.25C47.4688 66.25 48.7812 66.4453 50.0156 66.8359C51.25 67.2109 52.3203 67.7812 53.2266 68.5469C54.1484 69.3125 54.875 70.2656 55.4062 71.4062C55.9375 72.5469 56.2031 73.875 56.2031 75.3906C56.2031 76.3906 56.0625 77.3828 55.7812 78.3672C55.5 79.3516 55.0859 80.2656 54.5391 81.1094C53.9922 81.9375 53.3203 82.6562 52.5234 83.2656C51.7266 83.875 50.8125 84.2969 49.7812 84.5312L53.2031 95.2188L56.4844 95.125ZM51.8906 75.5781C51.8906 74.7812 51.75 74.0781 51.4688 73.4688C51.2031 72.8594 50.8281 72.3438 50.3438 71.9219C49.8594 71.5 49.2891 71.1875 48.6328 70.9844C47.9766 70.7656 47.2656 70.6562 46.5 70.6562H44.7656H42.75L42.6562 81.0156H43.7812C44.8125 81.0156 45.8125 80.9766 46.7812 80.8984C47.7656 80.8047 48.6328 80.5781 49.3828 80.2188C50.1328 79.8594 50.7344 79.3203 51.1875 78.6016C51.6562 77.8672 51.8906 76.8594 51.8906 75.5781ZM69.2578 95.3594L69.0234 99.5781L59.3672 99.8125L59.2266 95.4531H61.9922L61.9453 71.5L59.0391 71.5938L59.2734 67.0469H68.5547L68.9297 71.2656L66.2109 71.5L65.9766 95.4531L69.2578 95.3594ZM93.2812 70.5625L90.375 70.7969L84.3281 100.422L79.0312 100.141L73.2188 71.2656L70.3125 71.3594L70.5469 66.8125H80.0625L80.4375 71.0312L77.7188 71.2656L81.7031 95.2188L86.1094 70.7969L83.2031 70.8906L83.4375 66.3438L92.9531 66.1094L93.2812 70.5625ZM104.695 95.3594L104.461 99.5781L94.8047 99.8125L94.6641 95.4531H97.4297L97.3828 71.5L94.4766 71.5938L94.7109 67.0469H103.992L104.367 71.2656L101.648 71.5L101.414 95.4531L104.695 95.3594ZM128.789 96.2031L128.461 100.656L118.945 100.422L118.711 95.875L121.617 95.9688L120.398 89.125L114.211 89.4062L113.227 95.5L115.945 95.7344L115.57 99.9531H106.055L105.82 95.4062L108.727 95.5L113.836 70.4688L111.445 70.5625L111.211 66.5781L123.164 66.3438L122.93 70.0938L120.586 70.1875L125.883 95.9688L128.789 96.2031ZM119.742 85.4688L117.211 71.0781L114.867 85.4688H119.742Z" fill="#378065"/>
</svg>
