<svg xmlns="http://www.w3.org/2000/svg" xmlns:xlink="http://www.w3.org/1999/xlink" id="Mindfulness-bro_1_" width="388.32" height="327.537" data-name="Mindfulness-bro (1)" viewBox="0 0 388.32 327.537"><defs><clipPath id="clip-path"><path id="Path_269" fill="#fff" stroke="#263238" stroke-linecap="round" stroke-linejoin="round" stroke-width="1" d="M238.516,259.7s.937,14.174-.375,16.6-9.509,4.291-14.362,5.041-11.748,1.114-13.612,4.478-1.5,11.008.927,16.788,13.81,35.816,13.81,35.816l-14.58,35.066s20.34,24.631,32.837,28.172,29.286-8.769,33.014-13.81a21.3,21.3,0,0,0,3.916-10.821L265.75,336.56s13.029-31.015,13.966-37.357,1.521-13.706-3.124-15.757-14.58-3.416-17.538-4.905-4.1-2.239-4.291-6.155.187-12.5.187-12.5S243.181,262.314,238.516,259.7Z" data-name="Path 269" transform="translate(-208.985 -259.7)"/></clipPath><clipPath id="clip-path-2"><path id="Path_273" fill="#92e3a9" stroke="#263238" stroke-linecap="round" stroke-linejoin="round" stroke-width="1" d="M273.369,316.8c-3.5-3.937-7.915-10.675-7.832-18.663a160.012,160.012,0,0,1,.875-18.3c-1.229-.281-2.416-.552-3.489-.823-1.041,6.363-4.416,19.788-15.382,19.954-11.456.219-14.3-14.351-15.007-20.4-.625.2-1.281.385-1.937.562h0c-.656.177-1.323.333-1.989.489,5.988,12.654-6.4,32.837-10.821,39.367.2.542.406,1.041.614,1.614.052.125.094.26.146.385.187.479.365.948.542,1.416l.052.125c.635,1.687,1.271,3.333,1.864,4.884h0c.177.469.354.927.531,1.364l.073.219,1.041,2.614a1.26,1.26,0,0,0,.167.437l1.479,3.9.323.864.24.625.073.177L210.35,372.676s20.34,24.631,32.837,28.172,29.286-8.769,33.014-13.81a21.3,21.3,0,0,0,3.916-10.821l-14.424-40.44S269.661,326.331,273.369,316.8Z" data-name="Path 273" transform="translate(-210.35 -278.57)"/></clipPath><clipPath id="clip-path-3"><path id="Path_285" fill="#fff" stroke="#263238" stroke-linecap="round" stroke-linejoin="round" stroke-width="1" d="M243.89,222.62s-3.728,1.312-7.457,8.394a34.191,34.191,0,0,0-3.406,23.131c1.677,8.03,7.655,12.685,13.435,13.06s11.56-7.29,12.685-13.424-1.864-20.152-5.416-25.932a11.081,11.081,0,0,0-9.842-5.228Z" data-name="Path 285" transform="translate(-232.327 -222.612)"/></clipPath><clipPath id="clip-path-4"><path id="Path_296" fill="#fff" stroke="#263238" stroke-linecap="round" stroke-linejoin="round" stroke-width="1" d="M220.952,281.943s-7.748-1.1-11.071,5.541-6.926,39.867-6.926,39.867-4.166,2.77-8.852,5.541-13.851,8.582-18.548,10.248-8.863,3.041-8.863,3.041a39.409,39.409,0,0,1-2.77-5.811c-.281-1.385-3.322-1.937-4.707-3.322s-3.322-3.6-3.322-1.385-.281,3.593,1.937,4.426,3.874,3.874,3.874,3.874-12.175-.135-11.352.969a20.5,20.5,0,0,0,6.093,5.405,31.245,31.245,0,0,0,14.122,3.593c4.989,0,36.545-10.238,39.034-13.008S220.13,308.8,220.13,308.8" data-name="Path 296" transform="translate(-150.312 -281.874)"/></clipPath><clipPath id="clip-path-5"><path id="Path_305" fill="#fff" stroke="#263238" stroke-linecap="round" stroke-linejoin="round" stroke-width="1" d="M268.34,281.943s7.748-1.1,11.071,5.541,6.926,39.867,6.926,39.867,4.166,2.77,8.852,5.541,13.841,8.582,18.548,10.248,8.863,3.041,8.863,3.041a39.412,39.412,0,0,0,2.77-5.853c.281-1.385,3.322-1.937,4.707-3.322s3.322-3.6,3.322-1.385.281,3.593-1.937,4.426-3.874,3.874-3.874,3.874,12.175-.135,11.352.969a20.5,20.5,0,0,1-6.093,5.405,31.243,31.243,0,0,1-14.122,3.593c-4.989,0-36.545-10.238-39.034-13.008s-10.529-32.119-10.529-32.119" data-name="Path 305" transform="translate(-268.34 -281.874)"/></clipPath><clipPath id="clip-path-6"><path id="Path_313" fill="#fff" stroke="#263238" stroke-linecap="round" stroke-linejoin="round" stroke-width="1" d="M276.142,383.55a21.3,21.3,0,0,0,3.916-10.821l-3.124-8.842c-25.557,4.478-54.343,1.042-64.248-.437l-2.4,5.78s20.34,24.631,32.837,28.172S272.413,388.591,276.142,383.55Z" data-name="Path 313" transform="translate(-210.29 -363.45)"/></clipPath><clipPath id="clip-path-7"><path id="Path_318" fill="#fff" stroke="#263238" stroke-linecap="round" stroke-linejoin="round" stroke-width="1" d="M258.18,383.073S280,364.525,298.047,357.391c0,0,18.267-8.811,22.037-1.885s-14.06,27.7-19.725,31.244-19.1,10.29-28.328,12.175-19.788,2.385-25.4-.635" data-name="Path 318" transform="translate(-246.63 -352.85)"/></clipPath><clipPath id="clip-path-8"><path id="Path_323" fill="#fff" stroke="#263238" stroke-linecap="round" stroke-linejoin="round" stroke-width="1" d="M242.839,395.36s19.871-7.03,31.744-19.142,34.879-26.162,42.637-24.714,9.686,4.6,6.78,13.539-15.507,20.829-27.37,24.714-34.16,7.988-43.127,9.686-13.331,3.874-24.224,3.874S206.742,402.6,203.6,396.3s1.937-6.061,13.081-3.874a221.961,221.961,0,0,0,26.162,2.937Z" data-name="Path 323" transform="translate(-202.679 -351.401)"/></clipPath><clipPath id="clip-path-9"><path id="Path_328" fill="#fff" stroke="#263238" stroke-linecap="round" stroke-linejoin="round" stroke-width="1" d="M242.764,393.771a218.408,218.408,0,0,1-26.037-2.9c-11.144-2.187-16.236-2.427-13.081,3.874s14.778,7.019,25.682,7.019a60.406,60.406,0,0,0,15.268-1.843,11.279,11.279,0,0,1-1.833-6.155Z" data-name="Path 328" transform="translate(-202.725 -389.478)"/></clipPath><clipPath id="clip-path-10"><path id="Path_332" fill="#fff" stroke="#263238" stroke-linecap="round" stroke-linejoin="round" stroke-width="1" d="M238.082,382.53c-14.3-11.873-49.511-35.41-58.239-35.41s-12.112,9.936-12.112,9.936-.969,3.635,6.3,10.654,29.557,25.932,47,30.536,21.808,2.416,21.808,2.416" data-name="Path 332" transform="translate(-167.689 -347.12)"/></clipPath><clipPath id="clip-path-11"><path id="Path_337" fill="#fff" stroke="#263238" stroke-linecap="round" stroke-linejoin="round" stroke-width="1" d="M187.512,356.843s18.278,8.175,24.578,12.758,20.611,17.913,28.359,22.037,14.778,7.019,20.111,7.019,31-3.385,35.129-1.208-2.177,7.29-7.749,9.207-26.162-2.427-33.452-2.906-31.733-3.874-48.688-9.7-36.107-27.859-38.284-31.973,1.823-8.592,1.823-8.592" data-name="Path 337" transform="translate(-166.867 -353.49)"/></clipPath><clipPath id="clip-path-12"><path id="Path_342" fill="#fff" stroke="#263238" stroke-linecap="round" stroke-linejoin="round" stroke-width="1" d="M292.12,395.729c-4.166-2.177-29.8,1.208-35.129,1.208a17.94,17.94,0,0,1-2.52-.2,10.477,10.477,0,0,1-1.541,5.478c8.488.958,26.307,4.5,31.442,2.718C289.944,403,296.234,397.906,292.12,395.729Z" data-name="Path 342" transform="translate(-252.93 -394.999)"/></clipPath></defs><g id="freepik--background-simple--inject-2" transform="translate(0 1.681)"><path id="Path_133" fill="#92e3a9" d="M443.455,249.544c-3.8-30.6-12.987-59.884-23.954-80.578-26.266-49.74-98.678-79.693-153.095-67.518-46.335,10.415-68.309,57.395-110.03,75.787-38.367,16.913-72.9,30.265-90.815,69.778-37.722,83.629,56.864,166.769,137.327,154.959,25.391-3.728,48.022-15.622,74.131-12.279,52.979,6.832,70.674,16.559,117.289-6.363C440.257,360.73,450.11,303.137,443.455,249.544Z" data-name="Path 133" transform="translate(-57.01 -98.737)"/><path id="Path_134" fill="#fff" d="M443.455,249.544c-3.8-30.6-12.987-59.884-23.954-80.578-26.266-49.74-98.678-79.693-153.095-67.518-46.335,10.415-68.309,57.395-110.03,75.787-38.367,16.913-72.9,30.265-90.815,69.778-37.722,83.629,56.864,166.769,137.327,154.959,25.391-3.728,48.022-15.622,74.131-12.279,52.979,6.832,70.674,16.559,117.289-6.363C440.257,360.73,450.11,303.137,443.455,249.544Z" data-name="Path 134" opacity=".8" transform="translate(-57.01 -98.737)"/></g><g id="freepik--Clouds--inject-2" transform="translate(114.706 30.789)"><path id="Path_135" fill="#92e3a9" d="M303.842,163.527c-6.145-3.343-8.925-.552-11.164-3.343s6.145-10.05-10.6-17.3c0,0-1.114-15.622-23.954-16.184s-16.736,15.622-22.912,19.527S227.4,144,221.264,147.9s-3.354,11.716-8.332,12.831-11.716-5.02-17.851-1.114-6.134,7.29-8.925,7.29-8.332-2.239-11.716,0-7.29,5.02-7.29,5.02H308.3S309.976,166.88,303.842,163.527Z" data-name="Path 135" transform="translate(-167.15 -126.686)"/><path id="Path_136" fill="#92e3a9" d="M421.462,236.491c-3.468-1.9-5.051-.323-6.311-1.9s3.468-5.7-6.009-9.8c0,0-.635-8.852-13.591-9.165s-9.477,8.852-12.956,11.06-4.426-1.26-7.894.948-1.906,6.634-4.749,7.29-6.634-2.843-10.113-.635-3.468,4.114-5.051,4.114-4.739-1.271-6.634,0-4.114,2.843-4.114,2.843h79.953S424.941,238.386,421.462,236.491Z" data-name="Path 136" transform="translate(-159.816 -122.999)"/><path id="Path_137" fill="#fff" d="M303.842,163.527c-6.145-3.343-8.925-.552-11.164-3.343s6.145-10.05-10.6-17.3c0,0-1.114-15.622-23.954-16.184s-16.736,15.622-22.912,19.527S227.4,144,221.264,147.9s-3.354,11.716-8.332,12.831-11.716-5.02-17.851-1.114-6.134,7.29-8.925,7.29-8.332-2.239-11.716,0-7.29,5.02-7.29,5.02H308.3S309.976,166.88,303.842,163.527Z" data-name="Path 137" opacity=".5" transform="translate(-167.15 -126.686)"/><path id="Path_138" fill="#fff" d="M421.462,236.491c-3.468-1.9-5.051-.323-6.311-1.9s3.468-5.7-6.009-9.8c0,0-.635-8.852-13.591-9.165s-9.477,8.852-12.956,11.06-4.426-1.26-7.894.948-1.906,6.634-4.749,7.29-6.634-2.843-10.113-.635-3.468,4.114-5.051,4.114-4.739-1.271-6.634,0-4.114,2.843-4.114,2.843h79.953S424.941,238.386,421.462,236.491Z" data-name="Path 138" opacity=".5" transform="translate(-159.816 -122.999)"/></g><g id="freepik--Trees--inject-2" transform="translate(224.893 93.843)"><path id="Path_139" fill="#92e3a9" d="M306.053,397.366H359.3c-1.041-6.509-5.207-5.363-5.759-15.455-.281-5.082,4.426-11.373,4.02-18.048-.344-5.5-5.759-11.144-6.186-17.434-.375-5.676,4.249-11.977,3.8-18.09-.427-5.791-5.916-11.342-6.4-17.351s4.051-12.227,3.52-18.153-6.124-11.383-6.717-17.226c-.614-6.009,3.77-12.5,3.124-18.236-.719-6.1-6.478-11.373-7.29-17-.864-6.249,3.218-12.956,2.26-18.361-1.177-6.624-7.29-11.456-8.634-16.309-2.416-9.1-2.083-17.882-4.968-18.444-3.051-.614-3.739,7.988-6.051,17.6-1.166,4.832-7.2,9.727-8.186,16.361-.8,5.364,3.458,11.893,2.76,18.132-.625,5.582-6.249,10.946-6.78,17.017-.521,5.718,4.041,12.008,3.593,17.986-.437,5.8-5.884,11.331-6.249,17.226s4.322,12.071,4,17.892-5.676,11.6-5.947,17.34c-.292,6.072,4.5,12.2,4.26,17.83-.25,6.249-5.53,11.956-5.728,17.413-.229,6.624,4.635,12.727,4.478,17.767-.323,10.946-5.332,8.686-5.509,17.486Z" data-name="Path 139" transform="translate(-271.633 -187.23)"/><path id="Path_140" fill="#fff" d="M306.053,397.366H359.3c-1.041-6.509-5.207-5.363-5.759-15.455-.281-5.082,4.426-11.373,4.02-18.048-.344-5.5-5.759-11.144-6.186-17.434-.375-5.676,4.249-11.977,3.8-18.09-.427-5.791-5.916-11.342-6.4-17.351s4.051-12.227,3.52-18.153-6.124-11.383-6.717-17.226c-.614-6.009,3.77-12.5,3.124-18.236-.719-6.1-6.478-11.373-7.29-17-.864-6.249,3.218-12.956,2.26-18.361-1.177-6.624-7.29-11.456-8.634-16.309-2.416-9.1-2.083-17.882-4.968-18.444-3.051-.614-3.739,7.988-6.051,17.6-1.166,4.832-7.2,9.727-8.186,16.361-.8,5.364,3.458,11.893,2.76,18.132-.625,5.582-6.249,10.946-6.78,17.017-.521,5.718,4.041,12.008,3.593,17.986-.437,5.8-5.884,11.331-6.249,17.226s4.322,12.071,4,17.892-5.676,11.6-5.947,17.34c-.292,6.072,4.5,12.2,4.26,17.83-.25,6.249-5.53,11.956-5.728,17.413-.229,6.624,4.635,12.727,4.478,17.767-.323,10.946-5.332,8.686-5.509,17.486Z" data-name="Path 140" opacity=".4" transform="translate(-271.633 -187.23)"/><line id="Line_2" y2="190.15" fill="none" stroke="#263238" stroke-linecap="round" stroke-linejoin="round" stroke-width="1" data-name="Line 2" transform="translate(57.301 17.569)"/><path id="Path_141" fill="none" stroke="#263238" stroke-linecap="round" stroke-linejoin="round" stroke-width="1" d="M336.577,223.318l-8.665,7.488-7.092-9.456" data-name="Path 141" transform="translate(-270.965 -185.816)"/><path id="Path_142" fill="none" stroke="#263238" stroke-linecap="round" stroke-linejoin="round" stroke-width="1" d="M336.577,255.1l-8.665,7.488-7.092-9.456" data-name="Path 142" transform="translate(-270.965 -184.498)"/><path id="Path_143" fill="none" stroke="#263238" stroke-linecap="round" stroke-linejoin="round" stroke-width="1" d="M336.577,284.989l-8.665,7.488-7.092-9.467" data-name="Path 143" transform="translate(-270.965 -183.259)"/><path id="Path_144" fill="none" stroke="#263238" stroke-linecap="round" stroke-linejoin="round" stroke-width="1" d="M336.577,320.548l-8.665,7.488-7.092-9.456" data-name="Path 144" transform="translate(-270.965 -181.784)"/><path id="Path_145" fill="none" stroke="#263238" stroke-linecap="round" stroke-linejoin="round" stroke-width="1" d="M336.577,356.488l-8.665,7.488-7.092-9.456" data-name="Path 145" transform="translate(-270.965 -180.294)"/><path id="Path_146" fill="#92e3a9" d="M273.866,394.663h36.055c-.7-4.405-3.52-3.635-3.905-10.467-.187-3.437,3-7.7,2.729-12.216-.229-3.728-3.905-7.54-4.166-11.8-.26-3.853,2.874-8.113,2.572-12.258-.292-3.916-4.01-7.676-4.343-11.748s2.75-8.28,2.385-12.289-4.166-7.707-4.551-11.664,2.562-8.457,2.083-12.352c-.479-4.166-4.385-7.7-4.905-11.456-.594-4.239,2.166-8.769,1.521-12.435-.792-4.478-4.968-7.728-5.843-11.04-1.635-6.165-1.437-12.1-3.364-12.5s-2.531,5.405-4.093,11.925c-.792,3.27-4.874,6.582-5.541,11.071-.552,3.635,2.343,8.05,1.864,12.279-.417,3.781-4.218,7.415-4.593,11.529-.344,3.864,2.739,8.123,2.437,12.164s-3.989,7.686-4.239,11.675,2.927,8.176,2.708,12.112-3.843,7.853-4.03,11.737c-.2,4.114,3.041,8.259,2.885,12.071-.167,4.228-3.749,8.1-3.874,11.789-.156,4.489,3.124,8.623,3.031,12.039-.219,7.415-3.614,5.874-3.739,11.841Z" data-name="Path 146" transform="translate(-272.95 -184.527)"/><path id="Path_147" fill="#fff" d="M273.866,394.663h36.055c-.7-4.405-3.52-3.635-3.905-10.467-.187-3.437,3-7.7,2.729-12.216-.229-3.728-3.905-7.54-4.166-11.8-.26-3.853,2.874-8.113,2.572-12.258-.292-3.916-4.01-7.676-4.343-11.748s2.75-8.28,2.385-12.289-4.166-7.707-4.551-11.664,2.562-8.457,2.083-12.352c-.479-4.166-4.385-7.7-4.905-11.456-.594-4.239,2.166-8.769,1.521-12.435-.792-4.478-4.968-7.728-5.843-11.04-1.635-6.165-1.437-12.1-3.364-12.5s-2.531,5.405-4.093,11.925c-.792,3.27-4.874,6.582-5.541,11.071-.552,3.635,2.343,8.05,1.864,12.279-.417,3.781-4.218,7.415-4.593,11.529-.344,3.864,2.739,8.123,2.437,12.164s-3.989,7.686-4.239,11.675,2.927,8.176,2.708,12.112-3.843,7.853-4.03,11.737c-.2,4.114,3.041,8.259,2.885,12.071-.167,4.228-3.749,8.1-3.874,11.789-.156,4.489,3.124,8.623,3.031,12.039-.219,7.415-3.614,5.874-3.739,11.841Z" data-name="Path 147" opacity=".4" transform="translate(-272.95 -184.527)"/><line id="Line_3" y2="128.756" fill="none" stroke="#263238" stroke-linecap="round" stroke-linejoin="round" stroke-width="1" data-name="Line 3" transform="translate(16.393 79.755)"/><path id="Path_148" fill="none" stroke="#263238" stroke-linecap="round" stroke-linejoin="round" stroke-width="1" d="M294.525,276.823l-5.874,5.072-4.8-6.4" data-name="Path 148" transform="translate(-272.498 -183.571)"/><path id="Path_149" fill="none" stroke="#263238" stroke-linecap="round" stroke-linejoin="round" stroke-width="1" d="M294.525,298.343l-5.874,5.072-4.8-6.4" data-name="Path 149" transform="translate(-272.498 -182.679)"/><path id="Path_150" fill="none" stroke="#263238" stroke-linecap="round" stroke-linejoin="round" stroke-width="1" d="M294.525,318.583l-5.874,5.072-4.8-6.4" data-name="Path 150" transform="translate(-272.498 -181.839)"/><path id="Path_151" fill="none" stroke="#263238" stroke-linecap="round" stroke-linejoin="round" stroke-width="1" d="M294.525,342.663l-5.874,5.072-4.8-6.405" data-name="Path 151" transform="translate(-272.498 -180.841)"/><path id="Path_152" fill="none" stroke="#263238" stroke-linecap="round" stroke-linejoin="round" stroke-width="1" d="M294.525,367l-5.874,5.061-4.8-6.395" data-name="Path 152" transform="translate(-272.498 -179.832)"/></g><g id="freepik--Plants--inject-2" transform="translate(0.996 0)"><path id="Path_153" fill="#92e3a9" d="M146.233,333.66c-2.666,3.958-6.384,9.1-8.332,13.237.76-2.729,1.5-5.3,2.166-7.624a50.139,50.139,0,0,1,6.874-10.415c3.989-4.27,5.7-7.009,3.551-7.29-1.489-.167-5.843,5.634-8.571,11.394.594-1.968,1.041-3.478,1.343-4.353.135-.4.26-.833.385-1.3a115.352,115.352,0,0,0,7.7-12.341c4.03-7.53,5.332-14.632,2.645-11.581-2.479,2.812-6.78,16.8-10.206,23.381.292-1.135.562-2.385.812-3.624.479-1.2,1.114-2.416,1.479-3.52.552-1.7,1.041-3.416,1.448-5.155a35.982,35.982,0,0,0,.979-8.332,16.84,16.84,0,0,0-2.572-9.29c-.469-.7-3.291-4.926-4.166-2.749a2.364,2.364,0,0,0-.062,1.114c.417,3.6,1.718,6.9,2.531,10.415,1.208,5.207.4,14.049,0,17.8-.156.594-.344,1.323-.573,2.177.562-6.53-2.27-14.258-4.884-15.622-3.239-1.677-.062,4.895,2.437,10.623a17.142,17.142,0,0,1,1.625,8.051c-.51,1.875-1.1,4-1.708,6.145q-.187.437-.344.875a18.088,18.088,0,0,0,.344-4.249c-.24-3.749-4.489-11.248-7.29-10.186s1.948,5.009,4.5,9.613a13.924,13.924,0,0,1,1.479,8.259,4.178,4.178,0,0,1-.083.5c-.292.979-.583,1.916-.864,2.812-.656,2.083-1.271,4.062-1.864,5.988a30.13,30.13,0,0,0,.948-8.54c-.354-5.489-3.572-10.675-6.249-11.383s2.406,8.248,4.114,13.279a18.1,18.1,0,0,1,.448,9.082c-.823,2.718-1.593,5.405-2.385,8.248a69.645,69.645,0,0,0-.24-11.164c-.521-6.1-4.166-10.008-6.655-9.852s.1,3.635,3.718,11.05a24.808,24.808,0,0,1,2.458,12.56c-.323,1.2-.656,2.427-.989,3.718-.385,1.458-.708,3.051-.969,4.687-.365-1.448-.906-3.583-1.531-5.926a52.979,52.979,0,0,1-1.583-7.936c-.344-3.124-1.166-7-4.166-8.623a1.729,1.729,0,0,0-2.562.687,3.405,3.405,0,0,0-.187,2.083,23.256,23.256,0,0,0,2.083,6.1,6.988,6.988,0,0,0-.792,3.739,9.769,9.769,0,0,0,.073,1.458c-.271-.5-.521-.958-.771-1.364a9.049,9.049,0,0,0-1.6-1.979,24.308,24.308,0,0,0,.24-3.479c0-1.52-1.781-5.384-3.374-2.52-.646,1.146-.521,3.4-.583,4.895-.437.406-.573,1.25-.2,2.583a32.8,32.8,0,0,0,.531,10.342c-.177-.323-.365-.646-.552-.969a77.432,77.432,0,0,1-1.375-12.112c-.208-6.728.864-12.248-.969-14.31s-2.854,5.207-2.083,13.154a32.972,32.972,0,0,0,2.864,10.487c-1.791-3.229-3.572-6.52-5.207-9.7a24.5,24.5,0,0,1-2.135-10.8c.531-5.853.916-10.644-1.3-13.945s-2.687-1.156-1.593,5.718c.739,4.718,1.541,11.019,2.906,15.393-1.3-2.51-2.52-4.895-3.614-7.061a50.22,50.22,0,0,1-2.083-12.279c0-5.843-.625-9.009-2.354-7.728-1.2.9-.427,8.113,1.51,14.185-.906-1.854-1.593-3.27-1.979-4.1-.177-.375-.385-.781-.614-1.208A114.252,114.252,0,0,0,95.409,320.6c-2.2-8.248-6.1-14.331-5.978-10.269.115,3.749,6.509,16.9,8.509,24.058-.562-1.041-1.229-2.135-1.885-3.208-.469-1.2-.833-2.52-1.323-3.572-.75-1.625-1.562-3.218-2.468-4.759a35.816,35.816,0,0,0-4.947-6.749,16.84,16.84,0,0,0-8.228-5.03c-.812-.2-5.759-1.354-4.916.833a2.334,2.334,0,0,0,.708.854c2.76,2.354,5.978,3.874,8.957,5.884,4.468,3.01,9.883,10,12.133,13.029l1.041,1.989c-4.041-5.155-11.383-8.884-14.226-8.082-3.51.989,3.3,3.624,9.04,6.1a17.163,17.163,0,0,1,6.676,4.77c.906,1.729,1.927,3.676,2.937,5.655.115.3.229.594.354.875a18.049,18.049,0,0,0-2.656-3.333c-2.729-2.572-10.946-5.207-12.289-2.468s4.853,2.333,9.863,3.958a13.851,13.851,0,0,1,6.707,5.03l.281.417c.458.916.885,1.8,1.291,2.645.948,1.989,1.843,3.843,2.729,5.655A29.818,29.818,0,0,0,102.574,348c-4-3.78-9.894-5.374-12.331-4.062s7.384,4.384,12.06,6.894a17.986,17.986,0,0,1,6.53,6.332c1.26,2.552,2.52,5.041,3.885,7.665a69.048,69.048,0,0,0-7.79-8c-4.551-4.114-9.863-4.478-11.581-2.656s2.552,2.572,10.258,5.53a24.7,24.7,0,0,1,10.363,7.509l1.812,3.4c.719,1.333,1.573,2.708,2.5,4.083-1.26-.812-3.124-2.01-5.207-3.291a53.233,53.233,0,0,1-6.572-4.718c-2.375-2.083-5.624-4.322-8.967-3.426a1.729,1.729,0,0,0-1.4,2.26,3.322,3.322,0,0,0,1.312,1.666c3.124,2.447,7.384,3.614,11.05,5.062a82.131,82.131,0,0,0,10.321,3.291c.864,1.25,1.781,2.489,2.687,3.666h-1.646c-1.948.052-10.737-3.926-15.205-5.207s-8.634,1.146-3.958,3.666,17.4,1.958,17.4,1.958l3.676-.115c.854,1.1,1.7,2.156,2.5,3.124h-17.4v4.832h3.447l2.791,17.2h23.173l2.8-17.2h3.447v-4.832h-11.56a43.465,43.465,0,0,1,.167-6.249,15.257,15.257,0,0,1,2.541-2.083c5.072-3.5,13.674-3.791,15.966-10.54.552-1.625-.073-3.718-2.02-3.624a6.145,6.145,0,0,0-3.749,2.3c-2.906,3.353-5.093,6.822-8.863,9.373-.167.115-2.552,2.01-3.728,3.187.125-1.1.292-2.281.51-3.541a34.374,34.374,0,0,1,3.124-4.6c3.124-3.833,7.78-6.082,11.123-9.738,1.041-1.114,2.375-5.145-.75-4.166-1.4.448-3.031,2.552-4.114,3.51-3.072,2.749-6.249,5.718-8.228,9.373.083-.365.167-.719.26-1.041a75.421,75.421,0,0,1,7.29-9.8c4.437-5.051,8.988-8.332,9.061-11.123s-5.645,1.875-10.508,8.207a32.651,32.651,0,0,0-5.051,9.613c.885-3.593,1.833-7.207,2.77-10.675a24.443,24.443,0,0,1,6.009-9.373c4.385-3.926,7.936-7.155,8.561-11.081S150.128,327.89,146.233,333.66Zm-24.547,44.45c-.656-.9-1.333-1.864-2.083-2.927a35.118,35.118,0,0,1-.864-5.5,22.693,22.693,0,0,1,.219-4.749,55.485,55.485,0,0,0,3.749,4.166,21.017,21.017,0,0,1-.5,4.1,48.3,48.3,0,0,0-.521,4.905Zm3.76,4.551c-.885-.948-1.864-2.083-2.916-3.447a14.725,14.725,0,0,1,.448-3.239,23.119,23.119,0,0,1,1.812-4.843c1.635,1.552,2.843,2.583,2.843,2.583l2.76,2.427c-.219,2.416-.344,4.676-.417,6.52Zm4.989-6.957c-.2-.167-.562-.479-1.239-1.042s-1.937-3.02-3.291-5.79a33.5,33.5,0,0,0,1.531-3.593c1.458,2.718,2.781,4.822,3.531,5.968C130.746,372.7,130.569,374.214,130.434,375.7Z" data-name="Path 153" transform="translate(-57.298 -88.982)"/><path id="Path_154" fill="none" stroke="#92e3a9" stroke-linecap="round" stroke-linejoin="round" stroke-width="1" d="M84.75,247.943s43.6-37.784,59.03-99.043" data-name="Path 154" transform="translate(-56.856 -94.976)"/><path id="Path_155" fill="#92e3a9" d="M92.135,236.771a6.644,6.644,0,0,0-1.271-5.79c-2.229-2.75-6.082-1.9-5.27-3.7s2.729-3.229,4.676-2.645a5.665,5.665,0,0,1,3.041,2.572s1.25-3.51,4.083-3.52,2.489,4.905,2.489,4.905,3.635-2.822,5.207-.958a3.354,3.354,0,0,1,.073,4.03s3.124-.677,4.166,2.135a44.772,44.772,0,0,1,1.531,5.124s-6.488-2.822-10.2-2.208S91.229,239.812,92.135,236.771Z" data-name="Path 155" transform="translate(-56.825 -91.875)"/><path id="Path_156" fill="#fff" d="M92.135,236.771a6.644,6.644,0,0,0-1.271-5.79c-2.229-2.75-6.082-1.9-5.27-3.7s2.729-3.229,4.676-2.645a5.665,5.665,0,0,1,3.041,2.572s1.25-3.51,4.083-3.52,2.489,4.905,2.489,4.905,3.635-2.822,5.207-.958a3.354,3.354,0,0,1,.073,4.03s3.124-.677,4.166,2.135a44.772,44.772,0,0,1,1.531,5.124s-6.488-2.822-10.2-2.208S91.229,239.812,92.135,236.771Z" data-name="Path 156" opacity=".5" transform="translate(-56.825 -91.875)"/><path id="Path_157" fill="#92e3a9" d="M105.913,218.711a6.6,6.6,0,0,0-1.281-5.78c-2.218-2.749-6.082-1.9-5.207-3.7s2.718-3.229,4.676-2.645a5.634,5.634,0,0,1,2.989,2.572s1.25-3.51,4.083-3.531,2.5,4.916,2.5,4.916,3.624-2.822,5.207-.958a3.353,3.353,0,0,1,.073,4.03s3.124-.677,4.166,2.083a45.5,45.5,0,0,1,1.531,5.124s-6.488-2.812-10.2-2.2S104.955,221.752,105.913,218.711Z" data-name="Path 157" transform="translate(-56.253 -92.624)"/><path id="Path_158" fill="#fff" d="M105.913,218.711a6.6,6.6,0,0,0-1.281-5.78c-2.218-2.749-6.082-1.9-5.207-3.7s2.718-3.229,4.676-2.645a5.634,5.634,0,0,1,2.989,2.572s1.25-3.51,4.083-3.531,2.5,4.916,2.5,4.916,3.624-2.822,5.207-.958a3.353,3.353,0,0,1,.073,4.03s3.124-.677,4.166,2.083a45.5,45.5,0,0,1,1.531,5.124s-6.488-2.812-10.2-2.2S104.955,221.752,105.913,218.711Z" data-name="Path 158" opacity=".5" transform="translate(-56.253 -92.624)"/><path id="Path_159" fill="#92e3a9" d="M116.3,204.026a6.634,6.634,0,0,0-4.166-4.218c-3.343-1.135-6.155,1.645-6.426-.312s.583-4.166,2.541-4.728a5.676,5.676,0,0,1,3.905.573s-.823-3.635,1.562-5.155S118.459,193,118.459,193s1.562-4.322,3.926-3.614a3.353,3.353,0,0,1,2.218,3.364s2.25-2.218,4.614-.4a45.131,45.131,0,0,1,4.03,3.52s-6.988,1.041-9.79,3.583S117.126,207.1,116.3,204.026Z" data-name="Path 159" transform="translate(-55.989 -93.301)"/><path id="Path_160" fill="#fff" d="M116.3,204.026a6.634,6.634,0,0,0-4.166-4.218c-3.343-1.135-6.155,1.645-6.426-.312s.583-4.166,2.541-4.728a5.676,5.676,0,0,1,3.905.573s-.823-3.635,1.562-5.155S118.459,193,118.459,193s1.562-4.322,3.926-3.614a3.353,3.353,0,0,1,2.218,3.364s2.25-2.218,4.614-.4a45.131,45.131,0,0,1,4.03,3.52s-6.988,1.041-9.79,3.583S117.126,207.1,116.3,204.026Z" data-name="Path 160" opacity=".5" transform="translate(-55.989 -93.301)"/><path id="Path_161" fill="#92e3a9" d="M126.733,187.5a6.645,6.645,0,0,0,1.531-5.728c-.719-3.458-4.541-4.478-2.989-5.7s3.905-1.625,5.374-.208a5.728,5.728,0,0,1,1.479,3.666s2.718-2.552,5.207-1.271,0,5.509,0,5.509,4.52-.844,5.1,1.562a3.353,3.353,0,0,1-1.781,3.614s3.062.812,2.677,3.78a43.75,43.75,0,0,1-.989,5.259s-4.468-5.489-8.04-6.645S124.5,189.811,126.733,187.5Z" data-name="Path 161" transform="translate(-55.191 -93.895)"/><path id="Path_162" fill="#fff" d="M126.733,187.5a6.645,6.645,0,0,0,1.531-5.728c-.719-3.458-4.541-4.478-2.989-5.7s3.905-1.625,5.374-.208a5.728,5.728,0,0,1,1.479,3.666s2.718-2.552,5.207-1.271,0,5.509,0,5.509,4.52-.844,5.1,1.562a3.353,3.353,0,0,1-1.781,3.614s3.062.812,2.677,3.78a43.75,43.75,0,0,1-.989,5.259s-4.468-5.489-8.04-6.645S124.5,189.811,126.733,187.5Z" data-name="Path 162" opacity=".5" transform="translate(-55.191 -93.895)"/><path id="Path_163" fill="#92e3a9" d="M133.593,172.319a6.655,6.655,0,0,0,1.521-5.728c-.719-3.458-4.541-4.478-2.989-5.7s3.906-1.625,5.374-.208a5.645,5.645,0,0,1,1.479,3.656s2.718-2.541,5.207-1.26,0,5.509,0,5.509,4.52-.844,5.1,1.562a3.343,3.343,0,0,1-1.77,3.614s3.051.812,2.666,3.781a45.117,45.117,0,0,1-.979,5.207s-4.478-5.489-8.05-6.645S131.354,174.589,133.593,172.319Z" data-name="Path 163" transform="translate(-54.907 -94.525)"/><path id="Path_164" fill="#fff" d="M133.593,172.319a6.655,6.655,0,0,0,1.521-5.728c-.719-3.458-4.541-4.478-2.989-5.7s3.906-1.625,5.374-.208a5.645,5.645,0,0,1,1.479,3.656s2.718-2.541,5.207-1.26,0,5.509,0,5.509,4.52-.844,5.1,1.562a3.343,3.343,0,0,1-1.77,3.614s3.051.812,2.666,3.781a45.117,45.117,0,0,1-.979,5.207s-4.478-5.489-8.05-6.645S131.354,174.589,133.593,172.319Z" data-name="Path 164" opacity=".5" transform="translate(-54.907 -94.525)"/><path id="Path_165" fill="#92e3a9" d="M135.7,166.784a6.645,6.645,0,0,0-4.791-3.5c-3.478-.583-5.811,2.6-6.395.708s-.083-4.218,1.76-5.072a5.687,5.687,0,0,1,3.947-.052s-1.385-3.458.729-5.343,5.124,2.031,5.124,2.031.854-4.51,3.312-4.166a3.353,3.353,0,0,1,2.718,2.968s1.864-2.552,4.489-1.114a45.317,45.317,0,0,1,4.541,2.822s-6.728,2.177-9.1,5.093S137,169.731,135.7,166.784Z" data-name="Path 165" transform="translate(-55.217 -94.874)"/><path id="Path_166" fill="#fff" d="M135.7,166.784a6.645,6.645,0,0,0-4.791-3.5c-3.478-.583-5.811,2.6-6.395.708s-.083-4.218,1.76-5.072a5.687,5.687,0,0,1,3.947-.052s-1.385-3.458.729-5.343,5.124,2.031,5.124,2.031.854-4.51,3.312-4.166a3.353,3.353,0,0,1,2.718,2.968s1.864-2.552,4.489-1.114a45.317,45.317,0,0,1,4.541,2.822s-6.728,2.177-9.1,5.093S137,169.731,135.7,166.784Z" data-name="Path 166" opacity=".5" transform="translate(-55.217 -94.874)"/><path id="Path_167" fill="#92e3a9" d="M140.284,150.411a6.645,6.645,0,0,0-4.78-3.5c-3.489-.583-5.822,2.6-6.395.708s-.094-4.218,1.76-5.072a5.686,5.686,0,0,1,3.947-.052s-1.385-3.458.729-5.343,5.114,2.083,5.114,2.083.854-4.51,3.312-4.166a3.343,3.343,0,0,1,2.718,2.968s1.875-2.552,4.5-1.114a45.307,45.307,0,0,1,4.541,2.822s-6.738,2.177-9.113,5.093S141.586,153.328,140.284,150.411Z" data-name="Path 167" transform="translate(-55.026 -95.55)"/><path id="Path_168" fill="#fff" d="M140.284,150.411a6.645,6.645,0,0,0-4.78-3.5c-3.489-.583-5.822,2.6-6.395.708s-.094-4.218,1.76-5.072a5.686,5.686,0,0,1,3.947-.052s-1.385-3.458.729-5.343,5.114,2.083,5.114,2.083.854-4.51,3.312-4.166a3.343,3.343,0,0,1,2.718,2.968s1.875-2.552,4.5-1.114a45.307,45.307,0,0,1,4.541,2.822s-6.738,2.177-9.113,5.093S141.586,153.328,140.284,150.411Z" data-name="Path 168" opacity=".5" transform="translate(-55.026 -95.55)"/><path id="Path_169" fill="none" stroke="#92e3a9" stroke-linecap="round" stroke-linejoin="round" stroke-width="1" d="M63.07,317.475s50.709-27.526,78.953-84.025" data-name="Path 169" transform="translate(-57.755 -91.471)"/><path id="Path_170" fill="#92e3a9" d="M71.872,308.624a6.613,6.613,0,0,0,0-5.926c-1.583-3.124-5.53-3.124-4.353-4.739s3.364-2.572,5.145-1.583a5.718,5.718,0,0,1,2.364,3.124s1.979-3.124,4.749-2.572,1.375,5.332,1.375,5.332,4.166-1.968,5.332.2a3.364,3.364,0,0,1-.75,3.958s3.124,0,3.551,2.958a44.942,44.942,0,0,1,.4,5.332s-5.728-4.166-9.488-4.343S70.289,311.394,71.872,308.624Z" data-name="Path 170" transform="translate(-57.579 -88.878)"/><path id="Path_171" fill="#fff" d="M71.872,308.624a6.613,6.613,0,0,0,0-5.926c-1.583-3.124-5.53-3.124-4.353-4.739s3.364-2.572,5.145-1.583a5.718,5.718,0,0,1,2.364,3.124s1.979-3.124,4.749-2.572,1.375,5.332,1.375,5.332,4.166-1.968,5.332.2a3.364,3.364,0,0,1-.75,3.958s3.124,0,3.551,2.958a44.942,44.942,0,0,1,.4,5.332s-5.728-4.166-9.488-4.343S70.289,311.394,71.872,308.624Z" data-name="Path 171" opacity=".5" transform="translate(-57.579 -88.878)"/><path id="Path_172" fill="#92e3a9" d="M89.182,293.964a6.613,6.613,0,0,0,0-5.926c-1.583-3.124-5.53-3.124-4.343-4.749s3.354-2.562,5.134-1.573a5.655,5.655,0,0,1,2.375,3.124s1.968-3.124,4.739-2.562,1.385,5.332,1.385,5.332,4.166-1.979,5.332.2a3.354,3.354,0,0,1-.792,3.947s3.124,0,3.551,2.968a44.791,44.791,0,0,1,.4,5.332s-5.728-4.166-9.477-4.353S87.619,296.724,89.182,293.964Z" data-name="Path 172" transform="translate(-56.861 -89.486)"/><path id="Path_173" fill="#fff" d="M89.182,293.964a6.613,6.613,0,0,0,0-5.926c-1.583-3.124-5.53-3.124-4.343-4.749s3.354-2.562,5.134-1.573a5.655,5.655,0,0,1,2.375,3.124s1.968-3.124,4.739-2.562,1.385,5.332,1.385,5.332,4.166-1.979,5.332.2a3.354,3.354,0,0,1-.792,3.947s3.124,0,3.551,2.968a44.791,44.791,0,0,1,.4,5.332s-5.728-4.166-9.477-4.353S87.619,296.724,89.182,293.964Z" data-name="Path 173" opacity=".5" transform="translate(-56.861 -89.486)"/><path id="Path_174" fill="#92e3a9" d="M102.563,281.816a6.592,6.592,0,0,0-3.124-5.009c-3.02-1.833-6.363.281-6.249-1.687s1.468-3.968,3.5-4.083a5.707,5.707,0,0,1,3.7,1.406s0-3.728,2.635-4.707,4.02,3.77,4.02,3.77,2.447-3.885,4.614-2.677a3.354,3.354,0,0,1,1.448,3.76s2.666-1.687,4.582.6a46.517,46.517,0,0,1,3.187,4.3s-7.061-.448-10.342,1.4S102.709,284.992,102.563,281.816Z" data-name="Path 174" transform="translate(-56.506 -90.055)"/><path id="Path_175" fill="#fff" d="M102.563,281.816a6.592,6.592,0,0,0-3.124-5.009c-3.02-1.833-6.363.281-6.249-1.687s1.468-3.968,3.5-4.083a5.707,5.707,0,0,1,3.7,1.406s0-3.728,2.635-4.707,4.02,3.77,4.02,3.77,2.447-3.885,4.614-2.677a3.354,3.354,0,0,1,1.448,3.76s2.666-1.687,4.582.6a46.517,46.517,0,0,1,3.187,4.3s-7.061-.448-10.342,1.4S102.709,284.992,102.563,281.816Z" data-name="Path 175" opacity=".5" transform="translate(-56.506 -90.055)"/><path id="Path_176" fill="#92e3a9" d="M116.277,268.03a6.6,6.6,0,0,0,2.718-5.259c0-3.541-3.468-5.353-1.687-6.249s4.166-.75,5.291.948a5.7,5.7,0,0,1,.656,3.9s3.208-1.906,5.395-.1-1.219,5.374-1.219,5.374,4.593.146,4.645,2.624a3.354,3.354,0,0,1-2.51,3.124s2.8,1.448,1.8,4.26a43.983,43.983,0,0,1-2.083,4.926s-3.187-6.311-6.426-8.217S113.6,269.769,116.277,268.03Z" data-name="Path 176" transform="translate(-55.576 -90.537)"/><path id="Path_177" fill="#fff" d="M116.277,268.03a6.6,6.6,0,0,0,2.718-5.259c0-3.541-3.468-5.353-1.687-6.249s4.166-.75,5.291.948a5.7,5.7,0,0,1,.656,3.9s3.208-1.906,5.395-.1-1.219,5.374-1.219,5.374,4.593.146,4.645,2.624a3.354,3.354,0,0,1-2.51,3.124s2.8,1.448,1.8,4.26a43.983,43.983,0,0,1-2.083,4.926s-3.187-6.311-6.426-8.217S113.6,269.769,116.277,268.03Z" data-name="Path 177" opacity=".5" transform="translate(-55.576 -90.537)"/><path id="Path_178" fill="#92e3a9" d="M126.247,254.638a6.634,6.634,0,0,0,2.718-5.207c0-3.541-3.468-5.353-1.687-6.249s4.166-.739,5.291.948a5.7,5.7,0,0,1,.656,3.9s3.2-1.9,5.384-.1-1.218,5.374-1.218,5.374,4.593.146,4.655,2.624a3.364,3.364,0,0,1-2.52,3.124s2.812,1.448,1.8,4.26a45.246,45.246,0,0,1-2.083,4.926s-3.187-6.311-6.436-8.207S123.57,256.377,126.247,254.638Z" data-name="Path 178" transform="translate(-55.163 -91.09)"/><path id="Path_179" fill="#fff" d="M126.247,254.638a6.634,6.634,0,0,0,2.718-5.207c0-3.541-3.468-5.353-1.687-6.249s4.166-.739,5.291.948a5.7,5.7,0,0,1,.656,3.9s3.2-1.9,5.384-.1-1.218,5.374-1.218,5.374,4.593.146,4.655,2.624a3.364,3.364,0,0,1-2.52,3.124s2.812,1.448,1.8,4.26a45.246,45.246,0,0,1-2.083,4.926s-3.187-6.311-6.436-8.207S123.57,256.377,126.247,254.638Z" data-name="Path 179" opacity=".5" transform="translate(-55.163 -91.09)"/><path id="Path_180" fill="#92e3a9" d="M129.531,249.57a6.645,6.645,0,0,0-3.916-4.447c-3.281-1.323-6.249,1.291-6.395-.677s.812-4.166,2.8-4.582a5.7,5.7,0,0,1,3.874.8s-.614-3.676,1.854-5.062,4.562,3.124,4.562,3.124,1.812-4.166,4.166-3.374a3.343,3.343,0,0,1,2.02,3.489s2.375-2.083,4.624-.135a46.611,46.611,0,0,1,3.833,3.739s-7.051.677-9.988,3.01S130.177,252.694,129.531,249.57Z" data-name="Path 180" transform="translate(-55.427 -91.396)"/><path id="Path_181" fill="#fff" d="M129.531,249.57a6.645,6.645,0,0,0-3.916-4.447c-3.281-1.323-6.249,1.291-6.395-.677s.812-4.166,2.8-4.582a5.7,5.7,0,0,1,3.874.8s-.614-3.676,1.854-5.062,4.562,3.124,4.562,3.124,1.812-4.166,4.166-3.374a3.343,3.343,0,0,1,2.02,3.489s2.375-2.083,4.624-.135a46.611,46.611,0,0,1,3.833,3.739s-7.051.677-9.988,3.01S130.177,252.694,129.531,249.57Z" data-name="Path 181" opacity=".5" transform="translate(-55.427 -91.396)"/><path id="Path_182" fill="#92e3a9" d="M137.531,234.57a6.644,6.644,0,0,0-3.916-4.447c-3.281-1.323-6.249,1.291-6.395-.677s.812-4.166,2.8-4.582a5.7,5.7,0,0,1,3.874.8s-.614-3.676,1.854-5.061,4.562,3.124,4.562,3.124,1.812-4.166,4.166-3.374a3.343,3.343,0,0,1,2.02,3.489s2.375-2.083,4.624-.135a46.6,46.6,0,0,1,3.833,3.739s-7.051.677-9.988,3.01S138.177,237.694,137.531,234.57Z" data-name="Path 182" transform="translate(-55.096 -92.018)"/><path id="Path_183" fill="#fff" d="M137.531,234.57a6.644,6.644,0,0,0-3.916-4.447c-3.281-1.323-6.249,1.291-6.395-.677s.812-4.166,2.8-4.582a5.7,5.7,0,0,1,3.874.8s-.614-3.676,1.854-5.061,4.562,3.124,4.562,3.124,1.812-4.166,4.166-3.374a3.343,3.343,0,0,1,2.02,3.489s2.375-2.083,4.624-.135a46.6,46.6,0,0,1,3.833,3.739s-7.051.677-9.988,3.01S138.177,237.694,137.531,234.57Z" data-name="Path 183" opacity=".5" transform="translate(-55.096 -92.018)"/><path id="Path_184" fill="none" stroke="#92e3a9" stroke-linecap="round" stroke-linejoin="round" stroke-width="1" d="M428.392,209.387S384.4,172.082,368.3,111" data-name="Path 184" transform="translate(-45.099 -96.548)"/><path id="Path_185" fill="#92e3a9" d="M419.553,198.349a6.644,6.644,0,0,1,1.208-5.8c2.2-2.77,6.061-1.968,5.207-3.749s-2.77-3.208-4.707-2.6a5.676,5.676,0,0,0-2.968,2.614s-1.291-3.5-4.114-3.489-2.447,4.947-2.447,4.947-3.656-2.781-5.259-.9a3.343,3.343,0,0,0,0,4.02s-3.124-.646-4.093,2.177a46.071,46.071,0,0,0-1.479,5.145s6.457-2.9,10.175-2.322S420.532,201.379,419.553,198.349Z" data-name="Path 185" transform="translate(-43.748 -93.466)"/><path id="Path_186" fill="#fff" d="M419.553,198.349a6.644,6.644,0,0,1,1.208-5.8c2.2-2.77,6.061-1.968,5.207-3.749s-2.77-3.208-4.707-2.6a5.676,5.676,0,0,0-2.968,2.614s-1.291-3.5-4.114-3.489-2.447,4.947-2.447,4.947-3.656-2.781-5.259-.9a3.343,3.343,0,0,0,0,4.02s-3.124-.646-4.093,2.177a46.071,46.071,0,0,0-1.479,5.145s6.457-2.9,10.175-2.322S420.532,201.379,419.553,198.349Z" data-name="Path 186" opacity=".5" transform="translate(-43.748 -93.466)"/><path id="Path_187" fill="#92e3a9" d="M405.583,180.449a6.645,6.645,0,0,1,1.208-5.8c2.2-2.77,6.061-1.968,5.207-3.749s-2.77-3.208-4.707-2.6a5.675,5.675,0,0,0-2.968,2.614s-1.291-3.5-4.114-3.489-2.447,4.947-2.447,4.947-3.656-2.781-5.259-.9a3.343,3.343,0,0,0,0,4.02s-3.124-.646-4.093,2.177a46.078,46.078,0,0,0-1.479,5.145s6.457-2.9,10.175-2.322S406.562,183.479,405.583,180.449Z" data-name="Path 187" transform="translate(-44.327 -94.208)"/><path id="Path_188" fill="#fff" d="M405.583,180.449a6.645,6.645,0,0,1,1.208-5.8c2.2-2.77,6.061-1.968,5.207-3.749s-2.77-3.208-4.707-2.6a5.675,5.675,0,0,0-2.968,2.614s-1.291-3.5-4.114-3.489-2.447,4.947-2.447,4.947-3.656-2.781-5.259-.9a3.343,3.343,0,0,0,0,4.02s-3.124-.646-4.093,2.177a46.078,46.078,0,0,0-1.479,5.145s6.457-2.9,10.175-2.322S406.562,183.479,405.583,180.449Z" data-name="Path 188" opacity=".5" transform="translate(-44.327 -94.208)"/><path id="Path_189" fill="#92e3a9" d="M395.117,165.873a6.624,6.624,0,0,1,4.166-4.26c3.333-1.177,6.165,1.573,6.415-.385s-.625-4.166-2.593-4.707a5.645,5.645,0,0,0-3.9.625s.781-3.645-1.625-5.145-4.7,2.864-4.7,2.864-1.614-4.3-3.968-3.562a3.364,3.364,0,0,0-2.187,3.385s-2.27-2.2-4.614-.344a45.344,45.344,0,0,0-4,3.562s7.009,1.041,9.842,3.468S394.325,168.956,395.117,165.873Z" data-name="Path 189" transform="translate(-44.692 -94.88)"/><path id="Path_190" fill="#fff" d="M395.117,165.873a6.624,6.624,0,0,1,4.166-4.26c3.333-1.177,6.165,1.573,6.415-.385s-.625-4.166-2.593-4.707a5.645,5.645,0,0,0-3.9.625s.781-3.645-1.625-5.145-4.7,2.864-4.7,2.864-1.614-4.3-3.968-3.562a3.364,3.364,0,0,0-2.187,3.385s-2.27-2.2-4.614-.344a45.344,45.344,0,0,0-4,3.562s7.009,1.041,9.842,3.468S394.325,168.956,395.117,165.873Z" data-name="Path 190" opacity=".5" transform="translate(-44.692 -94.88)"/><path id="Path_191" fill="#92e3a9" d="M384.14,149.5a6.624,6.624,0,0,1-1.583-5.707c.677-3.468,4.478-4.53,2.916-5.738s-3.926-1.573-5.374-.146a5.686,5.686,0,0,0-1.437,3.676s-2.749-2.52-5.259-1.208.094,5.509.094,5.509-4.52-.792-5.082,1.625a3.353,3.353,0,0,0,1.812,3.593s-3.041.844-2.624,3.8a43.941,43.941,0,0,0,1.041,5.207s4.416-5.53,7.978-6.728S386.4,151.748,384.14,149.5Z" data-name="Path 191" transform="translate(-45.13 -95.47)"/><path id="Path_192" fill="#fff" d="M384.14,149.5a6.624,6.624,0,0,1-1.583-5.707c.677-3.468,4.478-4.53,2.916-5.738s-3.926-1.573-5.374-.146a5.686,5.686,0,0,0-1.437,3.676s-2.749-2.52-5.259-1.208.094,5.509.094,5.509-4.52-.792-5.082,1.625a3.353,3.353,0,0,0,1.812,3.593s-3.041.844-2.624,3.8a43.941,43.941,0,0,0,1.041,5.207s4.416-5.53,7.978-6.728S386.4,151.748,384.14,149.5Z" data-name="Path 192" opacity=".5" transform="translate(-45.13 -95.47)"/><path id="Path_193" fill="#92e3a9" d="M377.12,134.368a6.655,6.655,0,0,1-1.583-5.718c.677-3.468,4.478-4.52,2.916-5.728s-3.926-1.583-5.374-.146a5.686,5.686,0,0,0-1.437,3.676s-2.749-2.52-5.259-1.208.094,5.509.094,5.509-4.52-.792-5.082,1.614a3.343,3.343,0,0,0,1.823,3.593s-3.051.854-2.635,3.812a44.518,44.518,0,0,0,1.042,5.207s4.416-5.53,7.978-6.728S379.38,136.587,377.12,134.368Z" data-name="Path 193" transform="translate(-45.421 -96.098)"/><path id="Path_194" fill="#fff" d="M377.12,134.368a6.655,6.655,0,0,1-1.583-5.718c.677-3.468,4.478-4.52,2.916-5.728s-3.926-1.583-5.374-.146a5.686,5.686,0,0,0-1.437,3.676s-2.749-2.52-5.259-1.208.094,5.509.094,5.509-4.52-.792-5.082,1.614a3.343,3.343,0,0,0,1.823,3.593s-3.051.854-2.635,3.812a44.518,44.518,0,0,0,1.042,5.207s4.416-5.53,7.978-6.728S379.38,136.587,377.12,134.368Z" data-name="Path 194" opacity=".5" transform="translate(-45.421 -96.098)"/><path id="Path_195" fill="#92e3a9" d="M375.289,128.854a6.592,6.592,0,0,1,4.739-3.551c3.478-.635,5.853,2.531,6.4.635s0-4.228-1.812-5.062a5.686,5.686,0,0,0-3.957,0s1.354-3.478-.781-5.332-5.1,2.083-5.1,2.083-.9-4.5-3.354-4.166a3.343,3.343,0,0,0-2.687,3s-1.9-2.531-4.5-1.041a44.781,44.781,0,0,0-4.509,2.874s6.759,2.083,9.165,4.989S374.019,131.728,375.289,128.854Z" data-name="Path 195" transform="translate(-45.455 -96.446)"/><path id="Path_196" fill="#fff" d="M375.289,128.854a6.592,6.592,0,0,1,4.739-3.551c3.478-.635,5.853,2.531,6.4.635s0-4.228-1.812-5.062a5.686,5.686,0,0,0-3.957,0s1.354-3.478-.781-5.332-5.1,2.083-5.1,2.083-.9-4.5-3.354-4.166a3.343,3.343,0,0,0-2.687,3s-1.9-2.531-4.5-1.041a44.781,44.781,0,0,0-4.509,2.874s6.759,2.083,9.165,4.989S374.019,131.728,375.289,128.854Z" data-name="Path 196" opacity=".5" transform="translate(-45.455 -96.446)"/><path id="Path_197" fill="#92e3a9" d="M370.519,112.534a6.624,6.624,0,0,1,4.749-3.551c3.478-.625,5.843,2.531,6.395.635s0-4.228-1.812-5.062a5.728,5.728,0,0,0-3.947,0s1.344-3.478-.781-5.332-5.1,2.083-5.1,2.083-.906-4.5-3.353-4.166a3.353,3.353,0,0,0-2.687,3s-1.9-2.531-4.51-1.041a46.347,46.347,0,0,0-4.51,2.874s6.759,2.083,9.165,4.989S369.249,115.46,370.519,112.534Z" data-name="Path 197" transform="translate(-45.653 -97.123)"/><path id="Path_198" fill="#fff" d="M370.519,112.534a6.624,6.624,0,0,1,4.749-3.551c3.478-.625,5.843,2.531,6.395.635s0-4.228-1.812-5.062a5.728,5.728,0,0,0-3.947,0s1.344-3.478-.781-5.332-5.1,2.083-5.1,2.083-.906-4.5-3.353-4.166a3.353,3.353,0,0,0-2.687,3s-1.9-2.531-4.51-1.041a46.347,46.347,0,0,0-4.51,2.874s6.759,2.083,9.165,4.989S369.249,115.46,370.519,112.534Z" data-name="Path 198" opacity=".5" transform="translate(-45.653 -97.123)"/><path id="Path_199" fill="none" stroke="#92e3a9" stroke-linecap="round" stroke-linejoin="round" stroke-width="1" d="M426.346,207.961S370.867,192.131,331,143.13" data-name="Path 199" transform="translate(-46.646 -95.216)"/><path id="Path_200" fill="#92e3a9" d="M413.51,201.9a6.645,6.645,0,0,1-1.291-5.791c.854-3.426,4.707-4.291,3.208-5.572s-3.833-1.781-5.353-.427a5.739,5.739,0,0,0-1.635,3.6s-2.614-2.656-5.207-1.479-.187,5.509-.187,5.509-4.478-1.041-5.155,1.354a3.364,3.364,0,0,0,1.625,3.687s-3.124.687-2.822,3.666a45.823,45.823,0,0,0,.771,5.291s4.687-5.3,8.332-6.249S415.645,204.255,413.51,201.9Z" data-name="Path 200" transform="translate(-43.923 -93.301)"/><path id="Path_201" fill="#fff" d="M413.51,201.9a6.645,6.645,0,0,1-1.291-5.791c.854-3.426,4.707-4.291,3.208-5.572s-3.833-1.781-5.353-.427a5.739,5.739,0,0,0-1.635,3.6s-2.614-2.656-5.207-1.479-.187,5.509-.187,5.509-4.478-1.041-5.155,1.354a3.364,3.364,0,0,0,1.625,3.687s-3.124.687-2.822,3.666a45.823,45.823,0,0,0,.771,5.291s4.687-5.3,8.332-6.249S415.645,204.255,413.51,201.9Z" data-name="Path 201" opacity=".5" transform="translate(-43.923 -93.301)"/><path id="Path_202" fill="#92e3a9" d="M393.4,191.351a6.613,6.613,0,0,1-1.291-5.78c.854-3.426,4.707-4.291,3.208-5.572s-3.833-1.781-5.353-.427a5.739,5.739,0,0,0-1.635,3.6s-2.614-2.656-5.207-1.479-.187,5.509-.187,5.509-4.478-1.041-5.155,1.354a3.364,3.364,0,0,0,1.625,3.687s-3.124.687-2.822,3.666a45.839,45.839,0,0,0,.771,5.291s4.687-5.3,8.332-6.311S395.535,193.7,393.4,191.351Z" data-name="Path 202" transform="translate(-44.757 -93.738)"/><path id="Path_203" fill="#fff" d="M393.4,191.351a6.613,6.613,0,0,1-1.291-5.78c.854-3.426,4.707-4.291,3.208-5.572s-3.833-1.781-5.353-.427a5.739,5.739,0,0,0-1.635,3.6s-2.614-2.656-5.207-1.479-.187,5.509-.187,5.509-4.478-1.041-5.155,1.354a3.364,3.364,0,0,0,1.625,3.687s-3.124.687-2.822,3.666a45.839,45.839,0,0,0,.771,5.291s4.687-5.3,8.332-6.311S395.535,193.7,393.4,191.351Z" data-name="Path 203" opacity=".5" transform="translate(-44.757 -93.738)"/><path id="Path_204" fill="#92e3a9" d="M377.96,182.344a6.624,6.624,0,0,1,2-5.572c2.552-2.447,6.249-1.114,5.7-3s-2.3-3.551-4.312-3.218a5.655,5.655,0,0,0-3.291,2.177s-.791-3.645-3.6-4.02-3.124,4.551-3.124,4.551-3.239-3.26-5.093-1.614a3.374,3.374,0,0,0-.594,3.989s-2.968-1.041-4.343,1.593a43.629,43.629,0,0,0-2.166,4.884s6.79-1.968,10.415-.9S378.512,185.489,377.96,182.344Z" data-name="Path 204" transform="translate(-45.48 -94.156)"/><path id="Path_205" fill="#fff" d="M377.96,182.344a6.624,6.624,0,0,1,2-5.572c2.552-2.447,6.249-1.114,5.7-3s-2.3-3.551-4.312-3.218a5.655,5.655,0,0,0-3.291,2.177s-.791-3.645-3.6-4.02-3.124,4.551-3.124,4.551-3.239-3.26-5.093-1.614a3.374,3.374,0,0,0-.594,3.989s-2.968-1.041-4.343,1.593a43.629,43.629,0,0,0-2.166,4.884s6.79-1.968,10.415-.9S378.512,185.489,377.96,182.344Z" data-name="Path 205" opacity=".5" transform="translate(-45.48 -94.156)"/><path id="Path_206" fill="#92e3a9" d="M361.114,171.943a6.634,6.634,0,0,1-3.8-4.551c-.812-3.437,2.218-5.978.3-6.426s-4.228.177-4.957,2.083a5.676,5.676,0,0,0,.208,3.937s-3.541-1.156-5.291,1.041S349.939,173,349.939,173s-4.457,1.146-3.968,3.572a3.354,3.354,0,0,0,3.124,2.531s-2.427,2.02-.823,4.551A43.743,43.743,0,0,0,351.4,188s1.739-6.853,4.489-9.373S364.1,173.046,361.114,171.943Z" data-name="Path 206" transform="translate(-46.027 -94.482)"/><path id="Path_207" fill="#fff" d="M361.114,171.943a6.634,6.634,0,0,1-3.8-4.551c-.812-3.437,2.218-5.978.3-6.426s-4.228.177-4.957,2.083a5.676,5.676,0,0,0,.208,3.937s-3.541-1.156-5.291,1.041S349.939,173,349.939,173s-4.457,1.146-3.968,3.572a3.354,3.354,0,0,0,3.124,2.531s-2.427,2.02-.823,4.551A43.743,43.743,0,0,0,351.4,188s1.739-6.853,4.489-9.373S364.1,173.046,361.114,171.943Z" data-name="Path 207" opacity=".5" transform="translate(-46.027 -94.482)"/><path id="Path_208" fill="#92e3a9" d="M348.474,161.042a6.634,6.634,0,0,1-3.8-4.551c-.812-3.437,2.218-5.978.3-6.426s-4.228.177-4.957,2.083a5.708,5.708,0,0,0,.208,3.947s-3.551-1.166-5.291,1.041,2.364,4.978,2.364,4.978-4.458,1.146-3.968,3.572a3.354,3.354,0,0,0,3.124,2.531s-2.427,2.02-.833,4.551a44.72,44.72,0,0,0,3.124,4.343s1.729-6.853,4.489-9.373S351.463,162.146,348.474,161.042Z" data-name="Path 208" transform="translate(-46.551 -94.934)"/><path id="Path_209" fill="#fff" d="M348.474,161.042a6.634,6.634,0,0,1-3.8-4.551c-.812-3.437,2.218-5.978.3-6.426s-4.228.177-4.957,2.083a5.708,5.708,0,0,0,.208,3.947s-3.551-1.166-5.291,1.041,2.364,4.978,2.364,4.978-4.458,1.146-3.968,3.572a3.354,3.354,0,0,0,3.124,2.531s-2.427,2.02-.833,4.551a44.72,44.72,0,0,0,3.124,4.343s1.729-6.853,4.489-9.373S351.463,162.146,348.474,161.042Z" data-name="Path 209" opacity=".5" transform="translate(-46.551 -94.934)"/><path id="Path_210" fill="#92e3a9" d="M344.658,156.773a6.634,6.634,0,0,1,2.854-5.207c2.906-2,6.374-.094,6.092-2.083s-1.7-3.874-3.739-3.864a5.728,5.728,0,0,0-3.6,1.625s-.2-3.718-2.916-4.53-3.781,4-3.781,4-2.677-3.728-4.77-2.4a3.354,3.354,0,0,0-1.208,3.843s-2.77-1.521-4.541.885a45.055,45.055,0,0,0-2.926,4.478s7.019-.875,10.415.76S344.741,159.96,344.658,156.773Z" data-name="Path 210" transform="translate(-46.848 -95.237)"/><path id="Path_211" fill="#fff" d="M344.658,156.773a6.634,6.634,0,0,1,2.854-5.207c2.906-2,6.374-.094,6.092-2.083s-1.7-3.874-3.739-3.864a5.728,5.728,0,0,0-3.6,1.625s-.2-3.718-2.916-4.53-3.781,4-3.781,4-2.677-3.728-4.77-2.4a3.354,3.354,0,0,0-1.208,3.843s-2.77-1.521-4.541.885a45.055,45.055,0,0,0-2.926,4.478s7.019-.875,10.415.76S344.741,159.96,344.658,156.773Z" data-name="Path 211" opacity=".5" transform="translate(-46.848 -95.237)"/><path id="Path_212" fill="#92e3a9" d="M333.578,143.873a6.624,6.624,0,0,1,2.864-5.207c2.906-2,6.363-.094,6.093-2.083s-1.708-3.874-3.739-3.864a5.728,5.728,0,0,0-3.6,1.625s-.208-3.718-2.916-4.53-3.781,4-3.781,4-2.687-3.728-4.77-2.4a3.353,3.353,0,0,0-1.208,3.843s-2.77-1.521-4.551.885a45.982,45.982,0,0,0-2.916,4.478s7.019-.875,10.415.76S333.63,147.06,333.578,143.873Z" data-name="Path 212" transform="translate(-47.307 -95.771)"/><path id="Path_213" fill="#fff" d="M333.578,143.873a6.624,6.624,0,0,1,2.864-5.207c2.906-2,6.363-.094,6.093-2.083s-1.708-3.874-3.739-3.864a5.728,5.728,0,0,0-3.6,1.625s-.208-3.718-2.916-4.53-3.781,4-3.781,4-2.687-3.728-4.77-2.4a3.353,3.353,0,0,0-1.208,3.843s-2.77-1.521-4.551.885a45.982,45.982,0,0,0-2.916,4.478s7.019-.875,10.415.76S333.63,147.06,333.578,143.873Z" data-name="Path 213" opacity=".5" transform="translate(-47.307 -95.771)"/><path id="Path_214" fill="none" stroke="#92e3a9" stroke-linecap="round" stroke-linejoin="round" stroke-width="1" d="M61.23,304.565s33.2-47.189,33.421-110.395" data-name="Path 214" transform="translate(-57.831 -93.099)"/><path id="Path_215" fill="#92e3a9" d="M66.625,291.558a6.634,6.634,0,0,0-2.635-5.311c-2.822-2.083-6.353-.375-6-2.312s1.875-3.8,3.905-3.7a5.665,5.665,0,0,1,3.52,1.771s.375-3.708,3.124-4.405,3.6,4.166,3.6,4.166,2.843-3.614,4.864-2.187a3.343,3.343,0,0,1,1.041,3.885s2.833-1.4,4.5,1.041a44.14,44.14,0,0,1,2.729,4.6s-6.978-1.177-10.415.312S66.437,294.683,66.625,291.558Z" data-name="Path 215" transform="translate(-57.966 -89.643)"/><path id="Path_216" fill="#fff" d="M66.625,291.558a6.634,6.634,0,0,0-2.635-5.311c-2.822-2.083-6.353-.375-6-2.312s1.875-3.8,3.905-3.7a5.665,5.665,0,0,1,3.52,1.771s.375-3.708,3.124-4.405,3.6,4.166,3.6,4.166,2.843-3.614,4.864-2.187a3.343,3.343,0,0,1,1.041,3.885s2.833-1.4,4.5,1.041a44.14,44.14,0,0,1,2.729,4.6s-6.978-1.177-10.415.312S66.437,294.683,66.625,291.558Z" data-name="Path 216" opacity=".5" transform="translate(-57.966 -89.643)"/><path id="Path_217" fill="#92e3a9" d="M75.645,270.677a6.634,6.634,0,0,0-2.635-5.311c-2.822-2.083-6.363-.375-6-2.312s1.864-3.791,3.9-3.7a5.7,5.7,0,0,1,3.531,1.823s.365-3.718,3.124-4.416,3.614,4.166,3.614,4.166,2.833-3.614,4.864-2.187a3.343,3.343,0,0,1,1.041,3.885s2.833-1.4,4.5,1.041a45.077,45.077,0,0,1,2.718,4.6s-6.967-1.177-10.415.312S75.457,273.853,75.645,270.677Z" data-name="Path 217" transform="translate(-57.592 -90.507)"/><path id="Path_218" fill="#fff" d="M75.645,270.677a6.634,6.634,0,0,0-2.635-5.311c-2.822-2.083-6.363-.375-6-2.312s1.864-3.791,3.9-3.7a5.7,5.7,0,0,1,3.531,1.823s.365-3.718,3.124-4.416,3.614,4.166,3.614,4.166,2.833-3.614,4.864-2.187a3.343,3.343,0,0,1,1.041,3.885s2.833-1.4,4.5,1.041a45.077,45.077,0,0,1,2.718,4.6s-6.967-1.177-10.415.312S75.457,273.853,75.645,270.677Z" data-name="Path 218" opacity=".5" transform="translate(-57.592 -90.507)"/><path id="Path_219" fill="#92e3a9" d="M82.148,253.956a6.624,6.624,0,0,0-5.062-3.124c-3.531-.292-5.582,3.124-6.311,1.25s-.448-4.166,1.323-5.207a5.655,5.655,0,0,1,3.926-.385s-1.666-3.333.271-5.384,5.28,1.593,5.28,1.593.469-4.572,2.947-4.457a3.364,3.364,0,0,1,2.958,2.739s1.646-2.708,4.385-1.5a45.45,45.45,0,0,1,4.759,2.437s-6.52,2.739-8.644,5.843S83.679,256.736,82.148,253.956Z" data-name="Path 219" transform="translate(-57.451 -91.272)"/><path id="Path_220" fill="#fff" d="M82.148,253.956a6.624,6.624,0,0,0-5.062-3.124c-3.531-.292-5.582,3.124-6.311,1.25s-.448-4.166,1.323-5.207a5.655,5.655,0,0,1,3.926-.385s-1.666-3.333.271-5.384,5.28,1.593,5.28,1.593.469-4.572,2.947-4.457a3.364,3.364,0,0,1,2.958,2.739s1.646-2.708,4.385-1.5a45.45,45.45,0,0,1,4.759,2.437s-6.52,2.739-8.644,5.843S83.679,256.736,82.148,253.956Z" data-name="Path 220" opacity=".5" transform="translate(-57.451 -91.272)"/><path id="Path_221" fill="#92e3a9" d="M88.365,235.324a6.624,6.624,0,0,0,.094-5.926c-1.531-3.187-5.478-3.249-4.27-4.812s3.406-2.51,5.207-1.5a5.686,5.686,0,0,1,2.312,3.2s2.083-3.124,4.791-2.489,1.291,5.364,1.291,5.364,4.166-1.916,5.332.281a3.364,3.364,0,0,1-.854,3.937s3.124.052,3.51,3.02a44.894,44.894,0,0,1,.3,5.343s-5.655-4.249-9.373-4.5S86.741,238.063,88.365,235.324Z" data-name="Path 221" transform="translate(-56.888 -91.918)"/><path id="Path_222" fill="#fff" d="M88.365,235.324a6.624,6.624,0,0,0,.094-5.926c-1.531-3.187-5.478-3.249-4.27-4.812s3.406-2.51,5.207-1.5a5.686,5.686,0,0,1,2.312,3.2s2.083-3.124,4.791-2.489,1.291,5.364,1.291,5.364,4.166-1.916,5.332.281a3.364,3.364,0,0,1-.854,3.937s3.124.052,3.51,3.02a44.894,44.894,0,0,1,.3,5.343s-5.655-4.249-9.373-4.5S86.741,238.063,88.365,235.324Z" data-name="Path 222" opacity=".5" transform="translate(-56.888 -91.918)"/><path id="Path_223" fill="#92e3a9" d="M91.345,218.9a6.624,6.624,0,0,0,.094-5.926c-1.521-3.187-5.478-3.26-4.27-4.812s3.406-2.52,5.207-1.5a5.728,5.728,0,0,1,2.322,3.2s2.02-3.124,4.78-2.489,1.291,5.353,1.291,5.353,4.166-1.906,5.332.292a3.343,3.343,0,0,1-.854,3.937s3.124.052,3.51,3.02a44.785,44.785,0,0,1,.3,5.332s-5.655-4.239-9.373-4.5S89.721,221.612,91.345,218.9Z" data-name="Path 223" transform="translate(-56.765 -92.599)"/><path id="Path_224" fill="#fff" d="M91.345,218.9a6.624,6.624,0,0,0,.094-5.926c-1.521-3.187-5.478-3.26-4.27-4.812s3.406-2.52,5.207-1.5a5.728,5.728,0,0,1,2.322,3.2s2.02-3.124,4.78-2.489,1.291,5.353,1.291,5.353,4.166-1.906,5.332.292a3.343,3.343,0,0,1-.854,3.937s3.124.052,3.51,3.02a44.785,44.785,0,0,1,.3,5.332s-5.655-4.239-9.373-4.5S89.721,221.612,91.345,218.9Z" data-name="Path 224" opacity=".5" transform="translate(-56.765 -92.599)"/><path id="Path_225" fill="#92e3a9" d="M91.978,213.135A6.634,6.634,0,0,0,86.49,210.9c-3.52.26-5.02,3.916-6.03,2.229s-1.114-4.083.479-5.353a5.634,5.634,0,0,1,3.822-1.041s-2.177-3.031-.583-5.364,5.457.739,5.457.739-.26-4.593,2.208-4.864a3.353,3.353,0,0,1,3.354,2.229s1.2-2.927,4.093-2.166a44.862,44.862,0,0,1,5.082,1.646s-6.009,3.739-7.613,7.134S93.936,215.645,91.978,213.135Z" data-name="Path 225" transform="translate(-57.064 -92.975)"/><path id="Path_226" fill="#fff" d="M91.978,213.135A6.634,6.634,0,0,0,86.49,210.9c-3.52.26-5.02,3.916-6.03,2.229s-1.114-4.083.479-5.353a5.634,5.634,0,0,1,3.822-1.041s-2.177-3.031-.583-5.364,5.457.739,5.457.739-.26-4.593,2.208-4.864a3.353,3.353,0,0,1,3.354,2.229s1.2-2.927,4.093-2.166a44.862,44.862,0,0,1,5.082,1.646s-6.009,3.739-7.613,7.134S93.936,215.645,91.978,213.135Z" data-name="Path 226" opacity=".5" transform="translate(-57.064 -92.975)"/><path id="Path_227" fill="#92e3a9" d="M92.488,196.144a6.624,6.624,0,0,0-5.478-2.25c-3.531.271-5.02,3.926-6.04,2.229s-1.1-4.083.479-5.353a5.7,5.7,0,0,1,3.833-.989s-2.187-3.031-.583-5.364,5.457.739,5.457.739-.26-4.593,2.2-4.864a3.364,3.364,0,0,1,3.364,2.229s1.2-2.926,4.083-2.177A45.821,45.821,0,0,1,104.892,182s-6.009,3.728-7.613,7.134S94.446,198.654,92.488,196.144Z" data-name="Path 227" transform="translate(-57.043 -93.678)"/><path id="Path_228" fill="#fff" d="M92.488,196.144a6.624,6.624,0,0,0-5.478-2.25c-3.531.271-5.02,3.926-6.04,2.229s-1.1-4.083.479-5.353a5.7,5.7,0,0,1,3.833-.989s-2.187-3.031-.583-5.364,5.457.739,5.457.739-.26-4.593,2.2-4.864a3.364,3.364,0,0,1,3.364,2.229s1.2-2.926,4.083-2.177A45.821,45.821,0,0,1,104.892,182s-6.009,3.728-7.613,7.134S94.446,198.654,92.488,196.144Z" data-name="Path 228" opacity=".5" transform="translate(-57.043 -93.678)"/></g><g id="freepik--Candles--inject-2" transform="translate(303.336 255.998)"><path id="Path_229" fill="#fff" stroke="#263238" stroke-linecap="round" stroke-linejoin="round" stroke-width="1" d="M403.634,393.4c0,1.291-1.885,2.333-4.166,2.333s-4.218-1.041-4.218-2.333,1.9-2.343,4.218-2.343S403.634,392.112,403.634,393.4Z" data-name="Path 229" transform="translate(-346.322 -340.934)"/><path id="Path_230" fill="#fff" stroke="#263238" stroke-linecap="round" stroke-linejoin="round" stroke-width="1" d="M376.224,394.3c0,1.291-1.885,2.333-4.218,2.333s-4.166-1.041-4.166-2.333,1.885-2.343,4.166-2.343S376.224,393.043,376.224,394.3Z" data-name="Path 230" transform="translate(-347.459 -340.897)"/><path id="Path_231" fill="#fff" stroke="#263238" stroke-linecap="round" stroke-linejoin="round" stroke-width="1" d="M380.042,395.643c0,1.291-1.885,2.343-4.166,2.343s-4.166-1.041-4.166-2.343,1.885-2.333,4.166-2.333S380.042,394.351,380.042,395.643Z" data-name="Path 231" transform="translate(-347.298 -340.841)"/><path id="Path_232" fill="#fff" stroke="#263238" stroke-linecap="round" stroke-linejoin="round" stroke-width="1" d="M392.624,394.753c0,1.291-1.885,2.333-4.166,2.333s-4.218-1.042-4.218-2.333,1.885-2.343,4.218-2.343S392.624,393.451,392.624,394.753Z" data-name="Path 232" transform="translate(-346.779 -340.878)"/><path id="Path_233" fill="#fff" stroke="#263238" stroke-linecap="round" stroke-linejoin="round" stroke-width="1" d="M385.884,394.3c0,1.291-1.885,2.333-4.166,2.333s-4.218-1.041-4.218-2.333,1.885-2.343,4.218-2.343S385.884,393.043,385.884,394.3Z" data-name="Path 233" transform="translate(-347.058 -340.897)"/><path id="Path_234" fill="#fff" stroke="#263238" stroke-linecap="round" stroke-linejoin="round" stroke-width="1" d="M399.594,396.093c0,1.291-1.885,2.343-4.218,2.343s-4.166-1.042-4.166-2.343,1.885-2.333,4.166-2.333S399.594,394.8,399.594,396.093Z" data-name="Path 234" transform="translate(-346.49 -340.822)"/><path id="Path_235" fill="#fff" stroke="#263238" stroke-linecap="round" stroke-linejoin="round" stroke-width="1" d="M409.7,396.323c0,1.291-1.885,2.343-4.166,2.343s-4.218-1.041-4.218-2.343,1.885-2.343,4.218-2.343S409.7,395.042,409.7,396.323Z" data-name="Path 235" transform="translate(-346.07 -340.813)"/><path id="Path_236" fill="#fff" stroke="#263238" stroke-linecap="round" stroke-linejoin="round" stroke-width="1" d="M370.834,396.773c0,1.291-1.885,2.333-4.218,2.333s-4.166-1.041-4.166-2.333,1.885-2.343,4.166-2.343S370.834,395.482,370.834,396.773Z" data-name="Path 236" transform="translate(-347.682 -340.795)"/><path id="Path_237" fill="#fff" stroke="#263238" stroke-linecap="round" stroke-linejoin="round" stroke-width="1" d="M375.992,397.893c0,1.291-1.885,2.343-4.166,2.343s-4.166-1.041-4.166-2.343,1.885-2.343,4.166-2.343S375.992,396.6,375.992,397.893Z" data-name="Path 237" transform="translate(-347.466 -340.748)"/><path id="Path_238" fill="#fff" stroke="#263238" stroke-linecap="round" stroke-linejoin="round" stroke-width="1" d="M402.514,398.573c0,1.291-1.885,2.333-4.166,2.333s-4.218-1.041-4.218-2.333,1.885-2.343,4.218-2.343S402.514,397.271,402.514,398.573Z" data-name="Path 238" transform="translate(-346.369 -340.72)"/><path id="Path_239" fill="#fff" stroke="#263238" stroke-linecap="round" stroke-linejoin="round" stroke-width="1" d="M385.664,397.443c0,1.291-1.885,2.343-4.218,2.343s-4.166-1.042-4.166-2.343,1.885-2.343,4.166-2.343S385.664,396.152,385.664,397.443Z" data-name="Path 239" transform="translate(-347.067 -340.767)"/><path id="Path_240" fill="#fff" stroke="#263238" stroke-linecap="round" stroke-linejoin="round" stroke-width="1" d="M391.724,397.443c0,1.291-1.885,2.343-4.166,2.343s-4.218-1.042-4.218-2.343,1.9-2.343,4.218-2.343S391.724,396.152,391.724,397.443Z" data-name="Path 240" transform="translate(-346.816 -340.767)"/><path id="Path_241" fill="#fff" stroke="#263238" stroke-linecap="round" stroke-linejoin="round" stroke-width="1" d="M370.9,363.22h10.415a3.124,3.124,0,0,1,3.124,3.124v34.077a1.562,1.562,0,0,1-1.562,1.562H369.342a1.562,1.562,0,0,1-1.562-1.562V366.344a3.124,3.124,0,0,1,3.124-3.124Z" data-name="Path 241" transform="translate(-347.461 -342.089)"/><path id="Path_242" fill="#92e3a9" stroke="#263238" stroke-linecap="round" stroke-linejoin="round" stroke-width="1" d="M375.955,363.869a5.666,5.666,0,0,1-2.083-5.207c.469-3.27,3.281-6.311,3.281-6.311a14.882,14.882,0,0,1,1.635,6.082C378.757,361.525,375.955,363.869,375.955,363.869Z" data-name="Path 242" transform="translate(-347.211 -342.539)"/><path id="Path_243" fill="#fff" stroke="#263238" stroke-linecap="round" stroke-linejoin="round" stroke-width="1" d="M389.124,353.74h10.415a3.124,3.124,0,0,1,3.124,3.124V400.8a1.562,1.562,0,0,1-1.562,1.562H387.562A1.562,1.562,0,0,1,386,400.8V356.864A3.124,3.124,0,0,1,389.124,353.74Z" data-name="Path 243" transform="translate(-346.706 -342.482)"/><path id="Path_244" fill="#92e3a9" stroke="#263238" stroke-linecap="round" stroke-linejoin="round" stroke-width="1" d="M394.155,354.4a5.676,5.676,0,0,1-2.083-5.155c.458-3.27,3.27-6.311,3.27-6.311a14.882,14.882,0,0,1,1.635,6.082C396.956,352.053,394.155,354.4,394.155,354.4Z" data-name="Path 244" transform="translate(-346.456 -342.93)"/><ellipse id="Ellipse_6" cx="4.208" cy="2.343" fill="#fff" stroke="#263238" stroke-linecap="round" stroke-linejoin="round" stroke-width="1" data-name="Ellipse 6" rx="4.208" ry="2.343" transform="translate(34.129 56.197)"/><path id="Path_245" fill="#fff" stroke="#263238" stroke-linecap="round" stroke-linejoin="round" stroke-width="1" d="M362.044,400.093c0,1.3-1.885,2.343-4.166,2.343s-4.218-1.041-4.218-2.343,1.885-2.333,4.218-2.333S362.044,398.833,362.044,400.093Z" data-name="Path 245" transform="translate(-348.046 -340.657)"/><path id="Path_246" fill="#fff" stroke="#263238" stroke-linecap="round" stroke-linejoin="round" stroke-width="1" d="M365.864,401.473c0,1.291-1.885,2.343-4.166,2.343s-4.218-1.042-4.218-2.343,1.885-2.333,4.218-2.333S365.864,400.181,365.864,401.473Z" data-name="Path 246" transform="translate(-347.888 -340.599)"/><path id="Path_247" fill="#fff" stroke="#263238" stroke-linecap="round" stroke-linejoin="round" stroke-width="1" d="M378.444,400.573c0,1.291-1.885,2.343-4.166,2.343s-4.218-1.041-4.218-2.343,1.885-2.333,4.218-2.333S378.444,399.281,378.444,400.573Z" data-name="Path 247" transform="translate(-347.367 -340.637)"/><path id="Path_248" fill="#fff" stroke="#263238" stroke-linecap="round" stroke-linejoin="round" stroke-width="1" d="M371.7,400.093c0,1.3-1.885,2.343-4.166,2.343s-4.218-1.041-4.218-2.343,1.885-2.333,4.218-2.333S371.7,398.833,371.7,400.093Z" data-name="Path 248" transform="translate(-347.646 -340.657)"/><path id="Path_249" fill="#fff" stroke="#263238" stroke-linecap="round" stroke-linejoin="round" stroke-width="1" d="M385.414,401.923c0,1.291-1.885,2.343-4.218,2.343s-4.166-1.041-4.166-2.343,1.885-2.343,4.166-2.343S385.414,400.632,385.414,401.923Z" data-name="Path 249" transform="translate(-347.078 -340.581)"/><path id="Path_250" fill="#fff" stroke="#263238" stroke-linecap="round" stroke-linejoin="round" stroke-width="1" d="M395.522,402.153c0,1.291-1.885,2.333-4.166,2.333s-4.166-1.041-4.166-2.333,1.885-2.343,4.166-2.343S395.522,400.862,395.522,402.153Z" data-name="Path 250" transform="translate(-346.656 -340.572)"/><path id="Path_251" fill="#fff" stroke="#263238" stroke-linecap="round" stroke-linejoin="round" stroke-width="1" d="M356.654,402.6c0,1.291-1.885,2.333-4.218,2.333s-4.166-1.041-4.166-2.333,1.885-2.343,4.166-2.343S356.654,401.3,356.654,402.6Z" data-name="Path 251" transform="translate(-348.27 -340.553)"/><path id="Path_252" fill="#fff" stroke="#263238" stroke-linecap="round" stroke-linejoin="round" stroke-width="1" d="M361.824,403.723c0,1.291-1.9,2.343-4.218,2.343s-4.166-1.042-4.166-2.343,1.885-2.343,4.166-2.343S361.824,402.432,361.824,403.723Z" data-name="Path 252" transform="translate(-348.056 -340.507)"/><path id="Path_253" fill="#fff" stroke="#263238" stroke-linecap="round" stroke-linejoin="round" stroke-width="1" d="M388.332,404.393c0,1.291-1.885,2.343-4.166,2.343S380,405.695,380,404.393s1.885-2.333,4.166-2.333S388.332,403.1,388.332,404.393Z" data-name="Path 253" transform="translate(-346.954 -340.478)"/><ellipse id="Ellipse_7" cx="4.208" cy="2.343" fill="#fff" stroke="#263238" stroke-linecap="round" stroke-linejoin="round" stroke-width="1" data-name="Ellipse 7" rx="4.208" ry="2.343" transform="translate(15.403 60.405)"/><ellipse id="Ellipse_8" cx="4.208" cy="2.343" fill="#fff" stroke="#263238" stroke-linecap="round" stroke-linejoin="round" stroke-width="1" data-name="Ellipse 8" rx="4.208" ry="2.343" transform="translate(21.725 60.405)"/><ellipse id="Ellipse_9" cx="4.208" cy="2.343" fill="#fff" stroke="#263238" stroke-linecap="round" stroke-linejoin="round" stroke-width="1" data-name="Ellipse 9" rx="4.208" ry="2.343" transform="translate(57.999 56.197)"/><path id="Path_254" fill="#fff" stroke="#263238" stroke-linecap="round" stroke-linejoin="round" stroke-width="1" d="M384.962,400.093c0,1.3-1.885,2.343-4.166,2.343s-4.166-1.041-4.166-2.343,1.885-2.333,4.166-2.333S384.962,398.833,384.962,400.093Z" data-name="Path 254" transform="translate(-347.094 -340.657)"/><path id="Path_255" fill="#fff" stroke="#263238" stroke-linecap="round" stroke-linejoin="round" stroke-width="1" d="M388.784,401.473c0,1.291-1.885,2.343-4.166,2.343s-4.218-1.042-4.218-2.343,1.885-2.333,4.218-2.333S388.784,400.181,388.784,401.473Z" data-name="Path 255" transform="translate(-346.938 -340.599)"/><path id="Path_256" fill="#fff" stroke="#263238" stroke-linecap="round" stroke-linejoin="round" stroke-width="1" d="M401.334,400.573c0,1.291-1.885,2.343-4.166,2.343s-4.218-1.041-4.218-2.343,1.885-2.333,4.218-2.333S401.334,399.281,401.334,400.573Z" data-name="Path 256" transform="translate(-346.417 -340.637)"/><path id="Path_257" fill="#fff" stroke="#263238" stroke-linecap="round" stroke-linejoin="round" stroke-width="1" d="M394.624,400.093c0,1.3-1.885,2.343-4.166,2.343s-4.218-1.041-4.218-2.343,1.885-2.333,4.218-2.333S394.624,398.833,394.624,400.093Z" data-name="Path 257" transform="translate(-346.696 -340.657)"/><path id="Path_258" fill="#fff" stroke="#263238" stroke-linecap="round" stroke-linejoin="round" stroke-width="1" d="M408.334,401.923c0,1.291-1.885,2.343-4.218,2.343s-4.166-1.041-4.166-2.343,1.885-2.343,4.166-2.343S408.334,400.632,408.334,401.923Z" data-name="Path 258" transform="translate(-346.127 -340.581)"/><path id="Path_259" fill="#fff" stroke="#263238" stroke-linecap="round" stroke-linejoin="round" stroke-width="1" d="M418.444,402.153c0,1.291-1.885,2.333-4.166,2.333s-4.218-1.041-4.218-2.333,1.885-2.343,4.218-2.343S418.444,400.862,418.444,402.153Z" data-name="Path 259" transform="translate(-345.708 -340.572)"/><path id="Path_260" fill="#fff" stroke="#263238" stroke-linecap="round" stroke-linejoin="round" stroke-width="1" d="M379.574,402.6c0,1.291-1.885,2.333-4.218,2.333s-4.166-1.041-4.166-2.333,1.885-2.343,4.166-2.343S379.574,401.3,379.574,402.6Z" data-name="Path 260" transform="translate(-347.32 -340.553)"/><path id="Path_261" fill="#fff" stroke="#263238" stroke-linecap="round" stroke-linejoin="round" stroke-width="1" d="M384.744,403.723c0,1.291-1.9,2.343-4.218,2.343s-4.166-1.042-4.166-2.343,1.885-2.343,4.166-2.343S384.744,402.432,384.744,403.723Z" data-name="Path 261" transform="translate(-347.105 -340.507)"/><path id="Path_262" fill="#fff" stroke="#263238" stroke-linecap="round" stroke-linejoin="round" stroke-width="1" d="M411.254,404.393c0,1.291-1.885,2.343-4.166,2.343s-4.218-1.041-4.218-2.343,1.885-2.333,4.218-2.333S411.254,403.1,411.254,404.393Z" data-name="Path 262" transform="translate(-346.006 -340.478)"/><ellipse id="Ellipse_10" cx="4.208" cy="2.343" fill="#fff" stroke="#263238" stroke-linecap="round" stroke-linejoin="round" stroke-width="1" data-name="Ellipse 10" rx="4.208" ry="2.343" transform="translate(39.274 60.405)"/><ellipse id="Ellipse_11" cx="4.208" cy="2.343" fill="#fff" stroke="#263238" stroke-linecap="round" stroke-linejoin="round" stroke-width="1" data-name="Ellipse 11" rx="4.208" ry="2.343" transform="translate(45.595 60.405)"/></g><g id="freepik--Mat--inject-2" transform="translate(76.391 304.697)"><path id="Path_263" fill="#92e3a9" stroke="#92e3a9" stroke-linecap="round" stroke-linejoin="round" stroke-width="1" d="M361.5,412.029H130.36l46.23-22.339H315.271Z" data-name="Path 263" transform="translate(-130.36 -389.69)"/></g><g id="freepik--Character--inject-2" transform="translate(95.554 124.346)"><path id="Path_264" fill="#fff" d="M238.516,259.7s.937,14.174-.375,16.6-9.509,4.291-14.362,5.041-11.748,1.114-13.612,4.478-1.5,11.008.927,16.788,13.81,35.816,13.81,35.816l-14.58,35.066s20.34,24.631,32.837,28.172,29.286-8.769,33.014-13.81a21.3,21.3,0,0,0,3.916-10.821L265.75,336.56s13.029-31.015,13.966-37.357,1.521-13.706-3.124-15.757-14.58-3.416-17.538-4.905-4.1-2.239-4.291-6.155.187-12.5.187-12.5S243.181,262.314,238.516,259.7Z" data-name="Path 264" transform="translate(-146.263 -214.729)"/><g id="Group_51" clip-path="url(#clip-path)" data-name="Group 51" transform="translate(62.722 44.971)"><path id="Path_265" fill="#92e3a9" d="M253.566,272.385c-.187-3.916.187-12.5.187-12.5s-11.748,2.427-16.413-.187c0,0,.75,11.456,0,15.528a15.756,15.756,0,0,0,6.77,2.364c3.51.458,7.29-.708,10.175-1.9A8.332,8.332,0,0,1,253.566,272.385Z" data-name="Path 265" transform="translate(-207.809 -259.7)"/><path id="Path_266" fill="#fff" d="M253.566,272.385c-.187-3.916.187-12.5.187-12.5s-11.748,2.427-16.413-.187c0,0,.75,11.456,0,15.528a15.756,15.756,0,0,0,6.77,2.364c3.51.458,7.29-.708,10.175-1.9A8.332,8.332,0,0,1,253.566,272.385Z" data-name="Path 266" opacity=".5" transform="translate(-207.809 -259.7)"/><path id="Path_267" fill="none" stroke="#263238" stroke-linecap="round" stroke-linejoin="round" stroke-width="1" d="M262.287,286.13l-11.071,1.7c-3.124.489-3.426,2.906-3.426,2.906" data-name="Path 267" transform="translate(-207.376 -258.604)"/><path id="Path_268" fill="none" stroke="#263238" stroke-linecap="round" stroke-linejoin="round" stroke-width="1" d="M243.215,290.024s-.26-1.458-2.635-2.427-13.716-1.208-16.091-1.7" data-name="Path 268" transform="translate(-208.342 -258.614)"/></g><path id="Path_270" fill="none" stroke="#263238" stroke-linecap="round" stroke-linejoin="round" stroke-width="1" d="M238.516,259.7s.937,14.174-.375,16.6-9.509,4.291-14.362,5.041-11.748,1.114-13.612,4.478-1.5,11.008.927,16.788,13.81,35.816,13.81,35.816l-14.58,35.066s20.34,24.631,32.837,28.172,29.286-8.769,33.014-13.81a21.3,21.3,0,0,0,3.916-10.821L265.75,336.56s13.029-31.015,13.966-37.357,1.521-13.706-3.124-15.757-14.58-3.416-17.538-4.905-4.1-2.239-4.291-6.155.187-12.5.187-12.5S243.181,262.314,238.516,259.7Z" data-name="Path 270" transform="translate(-146.263 -214.729)"/><path id="Path_271" fill="#92e3a9" d="M273.369,316.8c-3.5-3.937-7.915-10.675-7.832-18.663a160.012,160.012,0,0,1,.875-18.3c-1.229-.281-2.416-.552-3.489-.823-1.041,6.363-4.416,19.788-15.382,19.954-11.456.219-14.3-14.351-15.007-20.4-.625.2-1.281.385-1.937.562h0c-.656.177-1.323.333-1.989.489,5.988,12.654-6.4,32.837-10.821,39.367.2.542.406,1.041.614,1.614.052.125.094.26.146.385.187.479.365.948.542,1.416l.052.125c.635,1.687,1.271,3.333,1.864,4.884h0c.177.469.354.927.531,1.364l.073.219,1.041,2.614a1.26,1.26,0,0,0,.167.437l1.479,3.9.323.864.24.625.073.177L210.35,372.676s20.34,24.631,32.837,28.172,29.286-8.769,33.014-13.81a21.3,21.3,0,0,0,3.916-10.821l-14.424-40.44S269.661,326.331,273.369,316.8Z" data-name="Path 271" transform="translate(-146.207 -213.946)"/><g id="Group_52" clip-path="url(#clip-path-2)" data-name="Group 52" transform="translate(64.143 64.624)"><path id="Path_272" d="M265.417,334.443s3.968-9.446,7.676-18.975a38.275,38.275,0,0,1-2.406-3.02A9.957,9.957,0,0,0,268.511,315s-2.27,6.561-6.249,10.092-10.842,1.76-15.132,1.26-10.081,3.531-14.112-4.03c-3.947-7.384-7.4-12.352-11.31-11.456-1.51,2.656-2.927,4.864-3.968,6.426a4.523,4.523,0,0,1-.115.614c.167.437.333.885.51,1.333.052.125.094.26.146.385.187.479.365.948.542,1.416l.052.125c.635,1.687,1.271,3.333,1.864,4.884h0c.177.469.354.927.531,1.364l.073.219,1.041,2.614a1.26,1.26,0,0,0,.167.437l1.479,3.9c.125.344.24.625.323.864l.24.625.073.177L217,354.5c0,.458.271.542.823.083,2.77-2.26,9.071-6.551,14.122-3.02s8.821,10.331,17.392,6.551,9.373-12.1,15.132-11.092a19.227,19.227,0,0,1,6.249,2.5Z" data-name="Path 272" opacity=".15" transform="translate(-210.074 -277.235)"/></g><path id="Path_274" fill="none" stroke="#263238" stroke-linecap="round" stroke-linejoin="round" stroke-width="1" d="M273.369,316.8c-3.5-3.937-7.915-10.675-7.832-18.663a160.012,160.012,0,0,1,.875-18.3c-1.229-.281-2.416-.552-3.489-.823-1.041,6.363-4.416,19.788-15.382,19.954-11.456.219-14.3-14.351-15.007-20.4-.625.2-1.281.385-1.937.562h0c-.656.177-1.323.333-1.989.489,5.988,12.654-6.4,32.837-10.821,39.367.2.542.406,1.041.614,1.614.052.125.094.26.146.385.187.479.365.948.542,1.416l.052.125c.635,1.687,1.271,3.333,1.864,4.884h0c.177.469.354.927.531,1.364l.073.219,1.041,2.614a1.26,1.26,0,0,0,.167.437l1.479,3.9.323.864.24.625.073.177L210.35,372.676s20.34,24.631,32.837,28.172,29.286-8.769,33.014-13.81a21.3,21.3,0,0,0,3.916-10.821l-14.424-40.44S269.661,326.331,273.369,316.8Z" data-name="Path 274" transform="translate(-146.207 -213.946)"/><path id="Path_275" fill="#263238" d="M268.063,251.649a.312.312,0,0,0-.135,0c1.927-7.29-.062-16.663-3.489-22.631-4.478-7.832-9.519-12.123-13.435-12.123s-5.207,4.291-5.207,4.291-2.083-4.478-8.207-4.666-15.851,23.131-14.737,33.025,10.258,14.924,19.965,16.038,16.226-.927,22.194-8.019a13.536,13.536,0,0,0,1.864-2.926c-.979,3.593-3.26,9.915-7.519,12.164a.521.521,0,0,0-.208.708.511.511,0,0,0,.458.271.48.48,0,0,0,.24-.052c6.5-3.447,8.582-15,8.665-15.487a.521.521,0,0,0-.448-.594Z" data-name="Path 275" transform="translate(-145.692 -216.519)"/><path id="Path_276" fill="none" stroke="#fff" stroke-linecap="round" stroke-linejoin="round" stroke-width="1" d="M241.355,222.221s-3.812-3.812-6.926,1.729-12.5,21.871-9.009,27.734" data-name="Path 276" transform="translate(-145.614 -216.335)"/><path id="Path_277" fill="none" stroke="#fff" stroke-linecap="round" stroke-linejoin="round" stroke-width="1" d="M246.68,223.944s1.041-3.458,6.249-2.77,13.018,14.768,13.539,22.527" data-name="Path 277" transform="translate(-144.701 -216.33)"/><path id="Path_278" fill="#fff" stroke="#263238" stroke-linecap="round" stroke-linejoin="round" stroke-width="1" d="M232.608,247.933s-1.3-3.124-2.416.187,1.3,6.342,2.416,7.29,1.875-.739,1.5-1.864S232.608,247.933,232.608,247.933Z" data-name="Path 278" transform="translate(-145.396 -215.272)"/><path id="Path_279" fill="#fff" stroke="#263238" stroke-linecap="round" stroke-linejoin="round" stroke-width="1" d="M257.824,247.933s1.3-3.124,2.416.187-1.3,6.342-2.416,7.29-1.875-.739-1.5-1.864S257.824,247.933,257.824,247.933Z" data-name="Path 279" transform="translate(-144.305 -215.272)"/><path id="Path_280" fill="#fff" d="M243.89,222.62s-3.728,1.312-7.457,8.394a34.191,34.191,0,0,0-3.406,23.131c1.677,8.03,7.655,12.685,13.435,13.06s11.56-7.29,12.685-13.424-1.864-20.152-5.416-25.932a11.081,11.081,0,0,0-9.842-5.228Z" data-name="Path 280" transform="translate(-145.296 -216.266)"/><g id="Group_53" clip-path="url(#clip-path-3)" data-name="Group 53" transform="translate(87.032 6.346)"><path id="Path_281" fill="#92e3a9" d="M257.814,241.843c0,8.925-.583,18.746-8.332,21.308s-12.091-5.468-14.112-12.383c-1.718-5.905-.489-14.789.063-18.038a34,34,0,0,0-2.406,21c1.677,8.03,7.655,12.685,13.435,13.06s11.56-7.29,12.685-13.424c.635-3.5-.052-9.509-1.416-15.112C257.793,239.354,257.814,240.541,257.814,241.843Z" data-name="Path 281" transform="translate(-232.327 -222.193)"/><path id="Path_282" fill="#fff" d="M257.814,241.843c0,8.925-.583,18.746-8.332,21.308s-12.091-5.468-14.112-12.383c-1.718-5.905-.489-14.789.063-18.038a34,34,0,0,0-2.406,21c1.677,8.03,7.655,12.685,13.435,13.06s11.56-7.29,12.685-13.424c.635-3.5-.052-9.509-1.416-15.112C257.793,239.354,257.814,240.541,257.814,241.843Z" data-name="Path 282" opacity=".5" transform="translate(-232.327 -222.193)"/><path id="Path_283" fill="#92e3a9" d="M243.431,222.62s-.479,6.967,4.166,10.133,8.332,2.3,8.332,2.3S245.638,222.578,243.431,222.62Z" data-name="Path 283" transform="translate(-231.868 -222.612)"/><path id="Path_284" fill="#fff" d="M243.431,222.62s-.479,6.967,4.166,10.133,8.332,2.3,8.332,2.3S245.638,222.578,243.431,222.62Z" data-name="Path 284" opacity=".5" transform="translate(-231.868 -222.612)"/></g><path id="Path_286" fill="none" stroke="#263238" stroke-linecap="round" stroke-linejoin="round" stroke-width="1" d="M243.89,222.62s-3.728,1.312-7.457,8.394a34.191,34.191,0,0,0-3.406,23.131c1.677,8.03,7.655,12.685,13.435,13.06s11.56-7.29,12.685-13.424-1.864-20.152-5.416-25.932a11.081,11.081,0,0,0-9.842-5.228Z" data-name="Path 286" transform="translate(-145.296 -216.266)"/><path id="Path_287" fill="none" stroke="#263238" stroke-linecap="round" stroke-linejoin="round" stroke-width="1" d="M246.486,240.54a3.916,3.916,0,0,0,0,2.239c.365,1.114,2.979,1.3,2.239,2.791a5.822,5.822,0,0,1-2.083,2.239" data-name="Path 287" transform="translate(-144.715 -215.523)"/><line id="Line_4" x2="2.614" fill="none" stroke="#263238" stroke-linecap="round" stroke-linejoin="round" stroke-width="1" data-name="Line 4" transform="translate(99.896 37.14)"/><path id="Path_288" fill="none" stroke="#263238" stroke-linecap="round" stroke-linejoin="round" stroke-width="1" d="M249,241.636s2.427-1.489,4.478,0" data-name="Path 288" transform="translate(-144.604 -215.505)"/><path id="Path_289" fill="none" stroke="#263238" stroke-linecap="round" stroke-linejoin="round" stroke-width="1" d="M237.34,241.636s2.427-1.489,4.478,0" data-name="Path 289" transform="translate(-145.088 -215.505)"/><path id="Path_290" fill="none" stroke="#263238" stroke-linecap="round" stroke-linejoin="round" stroke-width="1" d="M235.73,237.379a6.124,6.124,0,0,1,6.53-1.3" data-name="Path 290" transform="translate(-145.155 -215.726)"/><path id="Path_291" fill="none" stroke="#263238" stroke-linecap="round" stroke-linejoin="round" stroke-width="1" d="M247.73,236.276s2.8-2.239,6.342.375" data-name="Path 291" transform="translate(-144.657 -215.737)"/><path id="Path_292" fill="#263238" stroke="#263238" stroke-linecap="round" stroke-linejoin="round" stroke-width="1" d="M243.43,222.642a97.11,97.11,0,0,0,8.394,8.957,12.5,12.5,0,0,0,9.144,3.364s-3.124-6.9-8.582-10.633S243.43,222.642,243.43,222.642Z" data-name="Path 292" transform="translate(-144.835 -216.288)"/><path id="Path_293" fill="#fff" d="M220.952,281.943s-7.748-1.1-11.071,5.541-6.926,39.867-6.926,39.867-4.166,2.77-8.852,5.541-13.851,8.582-18.548,10.248-8.863,3.041-8.863,3.041a39.409,39.409,0,0,1-2.77-5.811c-.281-1.385-3.322-1.937-4.707-3.322s-3.322-3.6-3.322-1.385-.281,3.593,1.937,4.426,3.874,3.874,3.874,3.874-12.175-.135-11.352.969a20.5,20.5,0,0,0,6.093,5.405,31.245,31.245,0,0,0,14.122,3.593c4.989,0,36.545-10.238,39.034-13.008S220.13,308.8,220.13,308.8" data-name="Path 293" transform="translate(-148.696 -213.809)"/><g id="Group_54" clip-path="url(#clip-path-4)" data-name="Group 54" transform="translate(1.616 68.065)"><path id="Path_294" fill="#92e3a9" d="M163.76,352.409a30.139,30.139,0,0,0,6.249.729c4.989,0,36.545-10.238,39.034-13.008s10.529-32.119,10.529-32.119l.115-3.843-2.531-3.228s-9.5,30.817-11.227,33.7-21.61,10.654-31.108,14.112C170.675,350.264,166.811,351.493,163.76,352.409Z" data-name="Path 294" transform="translate(-149.754 -281.084)"/><path id="Path_295" fill="#fff" d="M163.76,352.409a30.139,30.139,0,0,0,6.249.729c4.989,0,36.545-10.238,39.034-13.008s10.529-32.119,10.529-32.119l.115-3.843-2.531-3.228s-9.5,30.817-11.227,33.7-21.61,10.654-31.108,14.112C170.675,350.264,166.811,351.493,163.76,352.409Z" data-name="Path 295" opacity=".5" transform="translate(-149.754 -281.084)"/></g><path id="Path_297" fill="none" stroke="#263238" stroke-linecap="round" stroke-linejoin="round" stroke-width="1" d="M220.952,281.943s-7.748-1.1-11.071,5.541-6.926,39.867-6.926,39.867-4.166,2.77-8.852,5.541-13.851,8.582-18.548,10.248-8.863,3.041-8.863,3.041a39.409,39.409,0,0,1-2.77-5.811c-.281-1.385-3.322-1.937-4.707-3.322s-3.322-3.6-3.322-1.385-.281,3.593,1.937,4.426,3.874,3.874,3.874,3.874-12.175-.135-11.352.969a20.5,20.5,0,0,0,6.093,5.405,31.245,31.245,0,0,0,14.122,3.593c4.989,0,36.545-10.238,39.034-13.008S220.13,308.8,220.13,308.8" data-name="Path 297" transform="translate(-148.696 -213.809)"/><path id="Path_298" fill="#fff" stroke="#263238" stroke-linecap="round" stroke-linejoin="round" stroke-width="1" d="M152.457,344.826a8.79,8.79,0,0,1-2.666-1.906c-.771-1.041-1.406-4.582-.771-5.978s6.738-4.072,6.738-4.072a5.426,5.426,0,0,1,.26,2.541c-.26,1.146-4.166,2.8-4.166,2.8l1.4,5.082" data-name="Path 298" transform="translate(-148.76 -211.695)"/><path id="Path_299" fill="#fff" stroke="#263238" stroke-linecap="round" stroke-linejoin="round" stroke-width="1" d="M155.932,344.591a3.854,3.854,0,0,1-2.031-3.562c.125-1.531-.135-4.832-1.146-5.468s-1.906,5.343-1.906,6.863,2.541,3.687,2.541,3.687a20.679,20.679,0,0,1,2.083,1.271" data-name="Path 299" transform="translate(-148.674 -211.585)"/><path id="Path_300" fill="#fff" stroke="#263238" stroke-linecap="round" stroke-linejoin="round" stroke-width="1" d="M158.862,347.271a3.833,3.833,0,0,1-2.031-3.562c.125-1.521-.135-4.832-1.146-5.468s-1.906,5.343-1.906,6.874,1.906,2.927,1.906,2.927c-.458,0,.854.739,3.426,1.521" data-name="Path 300" transform="translate(-148.552 -211.474)"/><path id="Path_301" fill="#fff" stroke="#263238" stroke-linecap="round" stroke-linejoin="round" stroke-width="1" d="M162.071,347.506a3.416,3.416,0,0,1-2.406-2.687c-.167-1.333-1.041-4.166-1.989-4.478s-.656,4.936-.375,6.249,2.864,2.7,2.864,2.7a17.179,17.179,0,0,1,1.979.719" data-name="Path 301" transform="translate(-148.418 -211.386)"/><path id="Path_302" fill="#fff" d="M268.34,281.943s7.748-1.1,11.071,5.541,6.926,39.867,6.926,39.867,4.166,2.77,8.852,5.541,13.841,8.582,18.548,10.248,8.863,3.041,8.863,3.041a39.412,39.412,0,0,0,2.77-5.853c.281-1.385,3.322-1.937,4.707-3.322s3.322-3.6,3.322-1.385.281,3.593-1.937,4.426-3.874,3.874-3.874,3.874,12.175-.135,11.352.969a20.5,20.5,0,0,1-6.093,5.405,31.243,31.243,0,0,1-14.122,3.593c-4.989,0-36.545-10.238-39.034-13.008s-10.529-32.119-10.529-32.119" data-name="Path 302" transform="translate(-143.803 -213.809)"/><g id="Group_55" clip-path="url(#clip-path-5)" data-name="Group 55" transform="translate(124.537 68.065)"><path id="Path_303" fill="#92e3a9" d="M279.577,339.919c2.489,2.77,34.045,13.008,39.034,13.008a27.91,27.91,0,0,0,3.791-.281,38.535,38.535,0,0,1-9.456-3.239c-7.2-3.739-27.942-11.81-30.2-15.268s-7.2-26.2-10.081-27.932-.864,10.654-.864,10.654v.479C274.328,326.171,278.025,338.19,279.577,339.919Z" data-name="Path 303" transform="translate(-268.225 -280.872)"/><path id="Path_304" fill="#fff" d="M279.577,339.919c2.489,2.77,34.045,13.008,39.034,13.008a27.91,27.91,0,0,0,3.791-.281,38.535,38.535,0,0,1-9.456-3.239c-7.2-3.739-27.942-11.81-30.2-15.268s-7.2-26.2-10.081-27.932-.864,10.654-.864,10.654v.479C274.328,326.171,278.025,338.19,279.577,339.919Z" data-name="Path 304" opacity=".5" transform="translate(-268.225 -280.872)"/></g><path id="Path_306" fill="none" stroke="#263238" stroke-linecap="round" stroke-linejoin="round" stroke-width="1" d="M268.34,281.943s7.748-1.1,11.071,5.541,6.926,39.867,6.926,39.867,4.166,2.77,8.852,5.541,13.841,8.582,18.548,10.248,8.863,3.041,8.863,3.041a39.412,39.412,0,0,0,2.77-5.853c.281-1.385,3.322-1.937,4.707-3.322s3.322-3.6,3.322-1.385.281,3.593-1.937,4.426-3.874,3.874-3.874,3.874,12.175-.135,11.352.969a20.5,20.5,0,0,1-6.093,5.405,31.243,31.243,0,0,1-14.122,3.593c-4.989,0-36.545-10.238-39.034-13.008s-10.529-32.119-10.529-32.119" data-name="Path 306" transform="translate(-143.803 -213.809)"/><path id="Path_307" fill="#fff" stroke="#263238" stroke-linecap="round" stroke-linejoin="round" stroke-width="1" d="M334.314,344.826a8.79,8.79,0,0,0,2.666-1.906c.771-1.041,1.406-4.582.771-5.978s-6.738-4.072-6.738-4.072a5.424,5.424,0,0,0-.26,2.541c.26,1.146,4.166,2.8,4.166,2.8l-1.4,5.082" data-name="Path 307" transform="translate(-141.217 -211.695)"/><path id="Path_308" fill="#fff" stroke="#263238" stroke-linecap="round" stroke-linejoin="round" stroke-width="1" d="M330.75,344.591a3.854,3.854,0,0,0,2.031-3.562c-.125-1.531.135-4.832,1.146-5.468s1.906,5.343,1.906,6.863-2.541,3.687-2.541,3.687a20.658,20.658,0,0,0-2.031,1.271" data-name="Path 308" transform="translate(-141.215 -211.585)"/><path id="Path_309" fill="#fff" stroke="#263238" stroke-linecap="round" stroke-linejoin="round" stroke-width="1" d="M327.83,347.271a3.833,3.833,0,0,0,2.031-3.562c-.125-1.521.135-4.832,1.146-5.468s1.906,5.343,1.906,6.874-1.906,2.927-1.906,2.927c.458,0-.854.739-3.426,1.521" data-name="Path 309" transform="translate(-141.346 -211.474)"/><path id="Path_310" fill="#fff" stroke="#263238" stroke-linecap="round" stroke-linejoin="round" stroke-width="1" d="M324.613,347.506a3.416,3.416,0,0,0,2.406-2.687c.167-1.333,1.041-4.166,1.989-4.478s.656,4.936.375,6.249-2.864,2.7-2.864,2.7a17.177,17.177,0,0,0-1.979.719" data-name="Path 310" transform="translate(-141.472 -211.386)"/><path id="Path_311" fill="#fff" d="M276.142,383.55a21.3,21.3,0,0,0,3.916-10.821l-3.124-8.842c-25.557,4.478-54.343,1.042-64.248-.437l-2.4,5.78s20.34,24.631,32.837,28.172S272.413,388.591,276.142,383.55Z" data-name="Path 311" transform="translate(-146.209 -210.427)"/><g id="Group_56" clip-path="url(#clip-path-6)" data-name="Group 56" transform="translate(64.081 153.023)"><path id="Path_312" d="M276.142,383.55a21.3,21.3,0,0,0,3.916-10.821l-3.124-8.842c-25.557,4.478-54.343,1.042-64.248-.437l-2.4,5.78s20.34,24.631,32.837,28.172S272.413,388.591,276.142,383.55Z" data-name="Path 312" opacity=".3" transform="translate(-210.29 -363.45)"/></g><path id="Path_314" fill="none" stroke="#263238" stroke-linecap="round" stroke-linejoin="round" stroke-width="1" d="M276.142,383.55a21.3,21.3,0,0,0,3.916-10.821l-3.124-8.842c-25.557,4.478-54.343,1.042-64.248-.437l-2.4,5.78s20.34,24.631,32.837,28.172S272.413,388.591,276.142,383.55Z" data-name="Path 314" transform="translate(-146.209 -210.427)"/><path id="Path_315" fill="#fff" d="M258.18,383.073S280,364.525,298.047,357.391c0,0,18.267-8.811,22.037-1.885s-14.06,27.7-19.725,31.244-19.1,10.29-28.328,12.175-19.788,2.385-25.4-.635" data-name="Path 315" transform="translate(-144.703 -210.866)"/><g id="Group_57" clip-path="url(#clip-path-7)" data-name="Group 57" transform="translate(101.927 141.984)"><path id="Path_316" d="M257.544,382.99s22.454-18.465,40.5-25.6c0,0,18.267-8.811,22.037-1.885s-14.06,27.7-19.725,31.244-19.1,10.29-28.328,12.175-19.788,2.385-25.4-.635" data-name="Path 316" opacity=".3" transform="translate(-246.63 -352.85)"/><path id="Path_317" d="M251.665,396.968s16.611-1.583,31.119-7.655S302.03,382.2,302.03,382.2s-10.81,9.227-19.517,12.914a66.894,66.894,0,0,1-25.839,5.02A36.233,36.233,0,0,1,243,397.489Z" data-name="Path 317" opacity=".3" transform="translate(-246.78 -351.633)"/></g><path id="Path_319" fill="none" stroke="#263238" stroke-linecap="round" stroke-linejoin="round" stroke-width="1" d="M258.18,383.073S280,364.525,298.047,357.391c0,0,18.267-8.811,22.037-1.885s-14.06,27.7-19.725,31.244-19.1,10.29-28.328,12.175-19.788,2.385-25.4-.635" data-name="Path 319" transform="translate(-144.703 -210.866)"/><path id="Path_320" fill="#fff" d="M242.839,395.36s19.871-7.03,31.744-19.142,34.879-26.162,42.637-24.714,9.686,4.6,6.78,13.539-15.507,20.829-27.37,24.714-34.16,7.988-43.127,9.686-13.331,3.874-24.224,3.874S206.742,402.6,203.6,396.3s1.937-6.061,13.081-3.874a221.961,221.961,0,0,0,26.162,2.937Z" data-name="Path 320" transform="translate(-146.525 -210.926)"/><g id="Group_58" clip-path="url(#clip-path-8)" data-name="Group 58" transform="translate(56.154 140.474)"><path id="Path_321" d="M242.839,395.36s19.871-7.03,31.744-19.142,34.879-26.162,42.637-24.714,9.686,4.6,6.78,13.539-15.507,20.829-27.37,24.714-34.16,7.988-43.127,9.686-13.331,3.874-24.224,3.874S206.742,402.6,203.6,396.3s1.937-6.061,13.081-3.874a221.961,221.961,0,0,0,26.162,2.937Z" data-name="Path 321" opacity=".3" transform="translate(-202.679 -351.401)"/><path id="Path_322" d="M320.391,352.57s1.583,5.8-4.166,13.976-30.327,17.7-43.741,22.683-33.493,8.7-33.493,8.7l11.081,1.854s35.68-5.843,45.137-10.04,18.944-11.321,24.214-18.184S327.525,356.528,320.391,352.57Z" data-name="Path 322" opacity=".3" transform="translate(-201.174 -351.352)"/></g><path id="Path_324" fill="none" stroke="#263238" stroke-linecap="round" stroke-linejoin="round" stroke-width="1" d="M242.839,395.36s19.871-7.03,31.744-19.142,34.879-26.162,42.637-24.714,9.686,4.6,6.78,13.539-15.507,20.829-27.37,24.714-34.16,7.988-43.127,9.686-13.331,3.874-24.224,3.874S206.742,402.6,203.6,396.3s1.937-6.061,13.081-3.874a221.961,221.961,0,0,0,26.162,2.937Z" data-name="Path 324" transform="translate(-146.525 -210.926)"/><path id="Path_325" fill="#fff" d="M242.764,393.771a218.408,218.408,0,0,1-26.037-2.9c-11.144-2.187-16.236-2.427-13.081,3.874s14.778,7.019,25.682,7.019a60.406,60.406,0,0,0,15.268-1.843,11.279,11.279,0,0,1-1.833-6.155Z" data-name="Path 325" transform="translate(-146.523 -209.348)"/><g id="Group_59" clip-path="url(#clip-path-9)" data-name="Group 59" transform="translate(56.202 180.13)"><path id="Path_326" fill="#92e3a9" d="M242.764,393.771a218.408,218.408,0,0,1-26.037-2.9c-11.144-2.187-16.236-2.427-13.081,3.874s14.778,7.019,25.682,7.019a60.406,60.406,0,0,0,15.268-1.843,11.279,11.279,0,0,1-1.833-6.155Z" data-name="Path 326" transform="translate(-202.725 -389.478)"/><path id="Path_327" fill="#fff" d="M242.764,393.771a218.408,218.408,0,0,1-26.037-2.9c-11.144-2.187-16.236-2.427-13.081,3.874s14.778,7.019,25.682,7.019a60.406,60.406,0,0,0,15.268-1.843,11.279,11.279,0,0,1-1.833-6.155Z" data-name="Path 327" opacity=".5" transform="translate(-202.725 -389.478)"/></g><path id="Path_329" fill="none" stroke="#263238" stroke-linecap="round" stroke-linejoin="round" stroke-width="1" d="M242.764,393.771a218.408,218.408,0,0,1-26.037-2.9c-11.144-2.187-16.236-2.427-13.081,3.874s14.778,7.019,25.682,7.019a60.406,60.406,0,0,0,15.268-1.843,11.279,11.279,0,0,1-1.833-6.155Z" data-name="Path 329" transform="translate(-146.523 -209.348)"/><path id="Path_330" fill="#fff" d="M238.082,382.53c-14.3-11.873-49.511-35.41-58.239-35.41s-12.112,9.936-12.112,9.936-.969,3.635,6.3,10.654,29.557,25.932,47,30.536,21.808,2.416,21.808,2.416" data-name="Path 330" transform="translate(-147.976 -211.104)"/><g id="Group_60" clip-path="url(#clip-path-10)" data-name="Group 60" transform="translate(19.713 136.016)"><path id="Path_331" d="M238.718,382.46c-14.289-11.873-50.146-35.41-58.874-35.41s-12.112,9.936-12.112,9.936-.969,3.635,6.3,10.654,29.557,25.932,47,30.536,21.808,2.416,21.808,2.416" data-name="Path 331" opacity=".3" transform="translate(-167.689 -347.123)"/></g><path id="Path_333" fill="none" stroke="#263238" stroke-linecap="round" stroke-linejoin="round" stroke-width="1" d="M238.082,382.53c-14.3-11.873-49.511-35.41-58.239-35.41s-12.112,9.936-12.112,9.936-.969,3.635,6.3,10.654,29.557,25.932,47,30.536,21.808,2.416,21.808,2.416" data-name="Path 333" transform="translate(-147.976 -211.104)"/><path id="Path_334" fill="#fff" d="M187.512,356.843s18.278,8.175,24.578,12.758,20.611,17.913,28.359,22.037,14.778,7.019,20.111,7.019,31-3.385,35.129-1.208-2.177,7.29-7.749,9.207-26.162-2.427-33.452-2.906-31.733-3.874-48.688-9.7-36.107-27.859-38.284-31.973,1.823-8.592,1.823-8.592" data-name="Path 334" transform="translate(-148.01 -210.84)"/><g id="Group_61" clip-path="url(#clip-path-11)" data-name="Group 61" transform="translate(18.857 142.65)"><path id="Path_335" d="M188.111,356.774s17.7,8.269,23.954,12.852,20.611,17.913,28.359,22.037,14.778,7.019,20.111,7.019,31-3.385,35.128-1.208-2.177,7.29-7.749,9.207-26.141-2.427-33.431-2.906-31.733-3.874-48.688-9.7-36.107-27.859-38.284-31.973,3.124-9.207,3.124-9.207" data-name="Path 335" opacity=".3" transform="translate(-166.862 -353.514)"/><path id="Path_336" d="M168.377,354.09s1.323,6.592,11.6,14.768,51.959,24.787,62.488,27.422,18.455,2.645,19.246,3.124,1.843,4.489-2.635,4.749-23.735-1.041-40.877-5.009-34.285-15.56-40.617-21.621-11.56-12.883-12.1-17.1A6.686,6.686,0,0,1,168.377,354.09Z" data-name="Path 336" opacity=".3" transform="translate(-166.927 -353.465)"/></g><path id="Path_338" fill="none" stroke="#263238" stroke-linecap="round" stroke-linejoin="round" stroke-width="1" d="M187.512,356.843s18.278,8.175,24.578,12.758,20.611,17.913,28.359,22.037,14.778,7.019,20.111,7.019,31-3.385,35.129-1.208-2.177,7.29-7.749,9.207-26.162-2.427-33.452-2.906-31.733-3.874-48.688-9.7-36.107-27.859-38.284-31.973,1.823-8.592,1.823-8.592" data-name="Path 338" transform="translate(-148.01 -210.84)"/><path id="Path_339" fill="#fff" d="M292.12,395.729c-4.166-2.177-29.8,1.208-35.129,1.208a17.94,17.94,0,0,1-2.52-.2,10.477,10.477,0,0,1-1.541,5.478c8.488.958,26.307,4.5,31.442,2.718C289.944,403,296.234,397.906,292.12,395.729Z" data-name="Path 339" transform="translate(-144.441 -209.119)"/><g id="Group_62" clip-path="url(#clip-path-12)" data-name="Group 62" transform="translate(108.489 185.88)"><path id="Path_340" fill="#92e3a9" d="M292.12,395.729c-4.166-2.177-29.8,1.208-35.129,1.208a17.94,17.94,0,0,1-2.52-.2,10.477,10.477,0,0,1-1.541,5.478c8.488.958,26.307,4.5,31.442,2.718C289.944,403,296.234,397.906,292.12,395.729Z" data-name="Path 340" transform="translate(-252.93 -394.999)"/><path id="Path_341" fill="#fff" d="M292.12,395.729c-4.166-2.177-29.8,1.208-35.129,1.208a17.94,17.94,0,0,1-2.52-.2,10.477,10.477,0,0,1-1.541,5.478c8.488.958,26.307,4.5,31.442,2.718C289.944,403,296.234,397.906,292.12,395.729Z" data-name="Path 341" opacity=".5" transform="translate(-252.93 -394.999)"/></g><path id="Path_343" fill="none" stroke="#263238" stroke-linecap="round" stroke-linejoin="round" stroke-width="1" d="M292.12,395.729c-4.166-2.177-29.8,1.208-35.129,1.208a17.94,17.94,0,0,1-2.52-.2,10.477,10.477,0,0,1-1.541,5.478c8.488.958,26.307,4.5,31.442,2.718C289.944,403,296.234,397.906,292.12,395.729Z" data-name="Path 343" transform="translate(-144.441 -209.119)"/><path id="Path_344" fill="#263238" stroke="#263238" stroke-linecap="round" stroke-linejoin="round" stroke-width="1" d="M235.738,262.39A198.7,198.7,0,0,1,221,276.564c-9.7,8.582-9.134,29.286-6.155,35.066s10.071,6.165,11.008,11.008,3.124,13.622,7.644,17.538,13.81,6.53,15.622-8.957-4.166-28.494-8.467-35.962-2.541-32.129-2.541-32.129Z" data-name="Path 344" transform="translate(-146.1 -214.617)"/><path id="Path_345" fill="none" stroke="#fff" stroke-linecap="round" stroke-linejoin="round" stroke-width="1" d="M223.514,282.33c-4.989,7.228-8.727,16.226-3.01,23.3,5.895,7.29,19.069,17.7,18.746,25.651s-6.582,5.207-8.665-1.4" data-name="Path 345" transform="translate(-145.905 -213.79)"/><path id="Path_346" fill="none" stroke="#fff" stroke-linecap="round" stroke-linejoin="round" stroke-width="1" d="M235.745,263.44c-.677,4.53-3.437,8.665-6.436,12.008-.937,1.041-1.948,2.2-2.989,3.468" data-name="Path 346" transform="translate(-145.545 -214.573)"/><path id="Path_347" fill="none" stroke="#fff" stroke-linecap="round" stroke-linejoin="round" stroke-width="1" d="M244.07,319.67a15.227,15.227,0,0,1,1.042,4.166" data-name="Path 347" transform="translate(-144.809 -212.242)"/><path id="Path_348" fill="none" stroke="#fff" stroke-linecap="round" stroke-linejoin="round" stroke-width="1" d="M235.3,271.42s-9.019,11.092-7.29,23.954c1.3,9.644,10.05,15.372,14.758,22.631" data-name="Path 348" transform="translate(-145.484 -214.243)"/></g></svg>